<?xml version="1.0" encoding="UTF-8" standalone="no"?><svg xmlns="http://www.w3.org/2000/svg" xmlns:xlink="http://www.w3.org/1999/xlink" contentScriptType="application/ecmascript" contentStyleType="text/css" height="296px" preserveAspectRatio="none" style="width:373px;height:296px;" version="1.1" viewBox="0 0 373 296" width="373px" zoomAndPan="magnify"><defs><filter height="300%" id="fataonedu2c8w" width="300%" x="-1" y="-1"><feGaussianBlur result="blurOut" stdDeviation="2.0"/><feColorMatrix in="blurOut" result="blurOut2" type="matrix" values="0 0 0 0 0 0 0 0 0 0 0 0 0 0 0 0 0 0 .4 0"/><feOffset dx="4.0" dy="4.0" in="blurOut2" result="blurOut3"/><feBlend in="SourceGraphic" in2="blurOut3" mode="normal"/></filter></defs><g><!--MD5=[1150a93d5810c20721d60198d5d20fa4]
class ActivateTeleportationRay--><rect fill="#FEFECE" filter="url(#fataonedu2c8w)" height="60.8047" id="ActivateTeleportationRay" style="stroke: #A80036; stroke-width: 1.5;" width="188" x="172.63" y="116"/><ellipse cx="187.63" cy="132" fill="#ADD1B2" rx="11" ry="11" style="stroke: #A80036; stroke-width: 1.0;"/><path d="M190.5988,137.6406 Q190.0206,137.9375 189.38,138.0781 Q188.7394,138.2344 188.0363,138.2344 Q185.5363,138.2344 184.2081,136.5938 Q182.8956,134.9375 182.8956,131.8125 Q182.8956,128.6875 184.2081,127.0313 Q185.5363,125.375 188.0363,125.375 Q188.7394,125.375 189.38,125.5313 Q190.0363,125.6875 190.5988,125.9844 L190.5988,128.7031 Q189.9738,128.125 189.38,127.8594 Q188.7863,127.5781 188.1613,127.5781 Q186.8175,127.5781 186.13,128.6563 Q185.4425,129.7188 185.4425,131.8125 Q185.4425,133.9063 186.13,134.9844 Q186.8175,136.0469 188.1613,136.0469 Q188.7863,136.0469 189.38,135.7813 Q189.9738,135.5 190.5988,134.9219 L190.5988,137.6406 Z "/><text fill="#000000" font-family="sans-serif" font-size="12" lengthAdjust="spacingAndGlyphs" textLength="156" x="201.63" y="136.1543">ActivateTeleportationRay</text><line style="stroke: #A80036; stroke-width: 1.5;" x1="173.63" x2="359.63" y1="148" y2="148"/><line style="stroke: #A80036; stroke-width: 1.5;" x1="173.63" x2="359.63" y1="156" y2="156"/><text fill="#000000" font-family="sans-serif" font-size="11" lengthAdjust="spacingAndGlyphs" textLength="83" x="178.63" y="170.2104">Update() : void</text><!--MD5=[83b3cf3d23d77c6f1e1b5291a241bc2a]
class MonoBehaviour--><rect fill="#FEFECE" filter="url(#fataonedu2c8w)" height="48" id="MonoBehaviour" style="stroke: #A80036; stroke-width: 1.5;" width="128" x="202.63" y="8"/><ellipse cx="217.63" cy="24" fill="#ADD1B2" rx="11" ry="11" style="stroke: #A80036; stroke-width: 1.0;"/><path d="M220.5988,29.6406 Q220.0206,29.9375 219.38,30.0781 Q218.7394,30.2344 218.0363,30.2344 Q215.5363,30.2344 214.2081,28.5938 Q212.8956,26.9375 212.8956,23.8125 Q212.8956,20.6875 214.2081,19.0313 Q215.5363,17.375 218.0363,17.375 Q218.7394,17.375 219.38,17.5313 Q220.0363,17.6875 220.5988,17.9844 L220.5988,20.7031 Q219.9738,20.125 219.38,19.8594 Q218.7863,19.5781 218.1613,19.5781 Q216.8175,19.5781 216.13,20.6563 Q215.4425,21.7188 215.4425,23.8125 Q215.4425,25.9063 216.13,26.9844 Q216.8175,28.0469 218.1613,28.0469 Q218.7863,28.0469 219.38,27.7813 Q219.9738,27.5 220.5988,26.9219 L220.5988,29.6406 Z "/><text fill="#000000" font-family="sans-serif" font-size="12" lengthAdjust="spacingAndGlyphs" textLength="96" x="231.63" y="28.1543">MonoBehaviour</text><line style="stroke: #A80036; stroke-width: 1.5;" x1="203.63" x2="329.63" y1="40" y2="40"/><line style="stroke: #A80036; stroke-width: 1.5;" x1="203.63" x2="329.63" y1="48" y2="48"/><!--MD5=[064f7a74fee85463ec1a30143664ee17]
class GameObject--><rect fill="#FEFECE" filter="url(#fataonedu2c8w)" height="48" id="GameObject" style="stroke: #A80036; stroke-width: 1.5;" width="108" x="45.63" y="237"/><ellipse cx="60.63" cy="253" fill="#ADD1B2" rx="11" ry="11" style="stroke: #A80036; stroke-width: 1.0;"/><path d="M63.5987,258.6406 Q63.0206,258.9375 62.38,259.0781 Q61.7394,259.2344 61.0362,259.2344 Q58.5362,259.2344 57.2081,257.5938 Q55.8956,255.9375 55.8956,252.8125 Q55.8956,249.6875 57.2081,248.0313 Q58.5362,246.375 61.0362,246.375 Q61.7394,246.375 62.38,246.5313 Q63.0362,246.6875 63.5987,246.9844 L63.5987,249.7031 Q62.9737,249.125 62.38,248.8594 Q61.7862,248.5781 61.1612,248.5781 Q59.8175,248.5781 59.13,249.6563 Q58.4425,250.7188 58.4425,252.8125 Q58.4425,254.9063 59.13,255.9844 Q59.8175,257.0469 61.1612,257.0469 Q61.7862,257.0469 62.38,256.7813 Q62.9737,256.5 63.5987,255.9219 L63.5987,258.6406 Z "/><text fill="#000000" font-family="sans-serif" font-size="12" lengthAdjust="spacingAndGlyphs" textLength="76" x="74.63" y="257.1543">GameObject</text><line style="stroke: #A80036; stroke-width: 1.5;" x1="46.63" x2="152.63" y1="269" y2="269"/><line style="stroke: #A80036; stroke-width: 1.5;" x1="46.63" x2="152.63" y1="277" y2="277"/><!--MD5=[bd622505b4ad2c89ad2f9c7a1fb5e1ce]
class InputActionProperty--><rect fill="#FEFECE" filter="url(#fataonedu2c8w)" height="48" id="InputActionProperty" style="stroke: #A80036; stroke-width: 1.5;" width="156" x="188.63" y="237"/><ellipse cx="203.63" cy="253" fill="#ADD1B2" rx="11" ry="11" style="stroke: #A80036; stroke-width: 1.0;"/><path d="M206.5988,258.6406 Q206.0206,258.9375 205.38,259.0781 Q204.7394,259.2344 204.0363,259.2344 Q201.5363,259.2344 200.2081,257.5938 Q198.8956,255.9375 198.8956,252.8125 Q198.8956,249.6875 200.2081,248.0313 Q201.5363,246.375 204.0363,246.375 Q204.7394,246.375 205.38,246.5313 Q206.0363,246.6875 206.5988,246.9844 L206.5988,249.7031 Q205.9738,249.125 205.38,248.8594 Q204.7863,248.5781 204.1613,248.5781 Q202.8175,248.5781 202.13,249.6563 Q201.4425,250.7188 201.4425,252.8125 Q201.4425,254.9063 202.13,255.9844 Q202.8175,257.0469 204.1613,257.0469 Q204.7863,257.0469 205.38,256.7813 Q205.9738,256.5 206.5988,255.9219 L206.5988,258.6406 Z "/><text fill="#000000" font-family="sans-serif" font-size="12" lengthAdjust="spacingAndGlyphs" textLength="124" x="217.63" y="257.1543">InputActionProperty</text><line style="stroke: #A80036; stroke-width: 1.5;" x1="189.63" x2="343.63" y1="269" y2="269"/><line style="stroke: #A80036; stroke-width: 1.5;" x1="189.63" x2="343.63" y1="277" y2="277"/><!--MD5=[60ec7495d12ad890cfaa5a7ee6ace5ea]
reverse link MonoBehaviour to ActivateTeleportationRay--><path d="M266.63,76.11 C266.63,89.31 266.63,103.54 266.63,115.65 " fill="none" id="MonoBehaviour&lt;-ActivateTeleportationRay" style="stroke: #A80036; stroke-width: 1.0;"/><polygon fill="none" points="259.63,76.04,266.63,56.04,273.63,76.04,259.63,76.04" style="stroke: #A80036; stroke-width: 1.0;"/><!--MD5=[5448f84e4866c06860f4f7e75eb364d9]
link ActivateTeleportationRay to GameObject--><path d="M222.76,177.06 C196.54,194.72 163.54,216.95 138.3,233.95 " fill="none" id="ActivateTeleportationRay-&gt;GameObject" style="stroke: #A80036; stroke-width: 1.0;"/><polygon fill="#A80036" points="134,236.85,143.7033,235.1628,138.1537,234.0666,139.2499,228.517,134,236.85" style="stroke: #A80036; stroke-width: 1.0;"/><text fill="#000000" font-family="sans-serif" font-size="13" lengthAdjust="spacingAndGlyphs" textLength="113" x="15.3292" y="225.8236">rightTeleportation</text><!--MD5=[9b4d42e544e1a0b3f754083973b200c4]
link ActivateTeleportationRay to InputActionProperty--><path d="M255.26,177.06 C253.38,193.93 253.43,214.98 255.4,231.65 " fill="none" id="ActivateTeleportationRay-&gt;InputActionProperty" style="stroke: #A80036; stroke-width: 1.0;"/><polygon fill="#A80036" points="256.07,236.67,258.8526,227.2224,255.4129,231.7134,250.922,228.2737,256.07,236.67" style="stroke: #A80036; stroke-width: 1.0;"/><text fill="#000000" font-family="sans-serif" font-size="13" lengthAdjust="spacingAndGlyphs" textLength="81" x="162.6241" y="225.9945">rightActivate</text><!--MD5=[9b4d42e544e1a0b3f754083973b200c4]
link ActivateTeleportationRay to InputActionProperty--><path d="M278.68,177.06 C280.67,193.93 280.62,214.98 278.54,231.65 " fill="none" id="ActivateTeleportationRay-&gt;InputActionProperty-1" style="stroke: #A80036; stroke-width: 1.0;"/><polygon fill="#A80036" points="277.82,236.67,283.0391,228.3177,278.5191,231.7191,275.1177,227.1991,277.82,236.67" style="stroke: #A80036; stroke-width: 1.0;"/><text fill="#000000" font-family="sans-serif" font-size="13" lengthAdjust="spacingAndGlyphs" textLength="72" x="289.3226" y="225.9945">rightCancel</text><!--MD5=[3f6b9fb331cddd2619c9eab54f62a365]
@startuml
class ActivateTeleportationRay {
    Update() : void
}
MonoBehaviour <|- - ActivateTeleportationRay
ActivateTeleportationRay - -> "rightTeleportation" GameObject
ActivateTeleportationRay - -> "rightActivate" InputActionProperty
ActivateTeleportationRay - -> "rightCancel" InputActionProperty
@enduml

PlantUML version 1.2020.02(Sun Mar 01 10:22:07 GMT 2020)
(GPL source distribution)
Java Runtime: OpenJDK Runtime Environment
JVM: OpenJDK 64-Bit Server VM
Java Version: 11.0.9+11-Ubuntu-0ubuntu1
Operating System: Linux
Default Encoding: ANSI_X3.4-1968
Language: en
Country: US
--></g></svg>