<?xml version="1.0" encoding="UTF-8" standalone="no"?><svg xmlns="http://www.w3.org/2000/svg" xmlns:xlink="http://www.w3.org/1999/xlink" contentScriptType="application/ecmascript" contentStyleType="text/css" height="296px" preserveAspectRatio="none" style="width:401px;height:296px;" version="1.1" viewBox="0 0 401 296" width="401px" zoomAndPan="magnify"><defs><filter height="300%" id="f1e6ai08isvb0w" width="300%" x="-1" y="-1"><feGaussianBlur result="blurOut" stdDeviation="2.0"/><feColorMatrix in="blurOut" result="blurOut2" type="matrix" values="0 0 0 0 0 0 0 0 0 0 0 0 0 0 0 0 0 0 .4 0"/><feOffset dx="4.0" dy="4.0" in="blurOut2" result="blurOut3"/><feBlend in="SourceGraphic" in2="blurOut3" mode="normal"/></filter></defs><g><!--MD5=[e28b7e38fc63f76650a9d176cd93e317]
class AnimateHand--><rect fill="#FEFECE" filter="url(#f1e6ai08isvb0w)" height="60.8047" id="AnimateHand" style="stroke: #A80036; stroke-width: 1.5;" width="116" x="112.57" y="116"/><ellipse cx="127.57" cy="132" fill="#ADD1B2" rx="11" ry="11" style="stroke: #A80036; stroke-width: 1.0;"/><path d="M130.5388,137.6406 Q129.9606,137.9375 129.32,138.0781 Q128.6794,138.2344 127.9763,138.2344 Q125.4763,138.2344 124.1481,136.5938 Q122.8356,134.9375 122.8356,131.8125 Q122.8356,128.6875 124.1481,127.0313 Q125.4763,125.375 127.9763,125.375 Q128.6794,125.375 129.32,125.5313 Q129.9763,125.6875 130.5388,125.9844 L130.5388,128.7031 Q129.9138,128.125 129.32,127.8594 Q128.7263,127.5781 128.1013,127.5781 Q126.7575,127.5781 126.07,128.6563 Q125.3825,129.7188 125.3825,131.8125 Q125.3825,133.9063 126.07,134.9844 Q126.7575,136.0469 128.1013,136.0469 Q128.7263,136.0469 129.32,135.7813 Q129.9138,135.5 130.5388,134.9219 L130.5388,137.6406 Z "/><text fill="#000000" font-family="sans-serif" font-size="12" lengthAdjust="spacingAndGlyphs" textLength="84" x="141.57" y="136.1543">AnimateHand</text><line style="stroke: #A80036; stroke-width: 1.5;" x1="113.57" x2="227.57" y1="148" y2="148"/><line style="stroke: #A80036; stroke-width: 1.5;" x1="113.57" x2="227.57" y1="156" y2="156"/><text fill="#000000" font-family="sans-serif" font-size="11" lengthAdjust="spacingAndGlyphs" textLength="83" x="118.57" y="170.2104">Update() : void</text><!--MD5=[83b3cf3d23d77c6f1e1b5291a241bc2a]
class MonoBehaviour--><rect fill="#FEFECE" filter="url(#f1e6ai08isvb0w)" height="48" id="MonoBehaviour" style="stroke: #A80036; stroke-width: 1.5;" width="128" x="106.57" y="8"/><ellipse cx="121.57" cy="24" fill="#ADD1B2" rx="11" ry="11" style="stroke: #A80036; stroke-width: 1.0;"/><path d="M124.5388,29.6406 Q123.9606,29.9375 123.32,30.0781 Q122.6794,30.2344 121.9763,30.2344 Q119.4763,30.2344 118.1481,28.5938 Q116.8356,26.9375 116.8356,23.8125 Q116.8356,20.6875 118.1481,19.0313 Q119.4763,17.375 121.9763,17.375 Q122.6794,17.375 123.32,17.5313 Q123.9763,17.6875 124.5388,17.9844 L124.5388,20.7031 Q123.9138,20.125 123.32,19.8594 Q122.7263,19.5781 122.1013,19.5781 Q120.7575,19.5781 120.07,20.6563 Q119.3825,21.7188 119.3825,23.8125 Q119.3825,25.9063 120.07,26.9844 Q120.7575,28.0469 122.1013,28.0469 Q122.7263,28.0469 123.32,27.7813 Q123.9138,27.5 124.5388,26.9219 L124.5388,29.6406 Z "/><text fill="#000000" font-family="sans-serif" font-size="12" lengthAdjust="spacingAndGlyphs" textLength="96" x="135.57" y="28.1543">MonoBehaviour</text><line style="stroke: #A80036; stroke-width: 1.5;" x1="107.57" x2="233.57" y1="40" y2="40"/><line style="stroke: #A80036; stroke-width: 1.5;" x1="107.57" x2="233.57" y1="48" y2="48"/><!--MD5=[bd622505b4ad2c89ad2f9c7a1fb5e1ce]
class InputActionProperty--><rect fill="#FEFECE" filter="url(#f1e6ai08isvb0w)" height="48" id="InputActionProperty" style="stroke: #A80036; stroke-width: 1.5;" width="156" x="92.57" y="237"/><ellipse cx="107.57" cy="253" fill="#ADD1B2" rx="11" ry="11" style="stroke: #A80036; stroke-width: 1.0;"/><path d="M110.5388,258.6406 Q109.9606,258.9375 109.32,259.0781 Q108.6794,259.2344 107.9763,259.2344 Q105.4763,259.2344 104.1481,257.5938 Q102.8356,255.9375 102.8356,252.8125 Q102.8356,249.6875 104.1481,248.0313 Q105.4763,246.375 107.9763,246.375 Q108.6794,246.375 109.32,246.5313 Q109.9763,246.6875 110.5388,246.9844 L110.5388,249.7031 Q109.9138,249.125 109.32,248.8594 Q108.7263,248.5781 108.1013,248.5781 Q106.7575,248.5781 106.07,249.6563 Q105.3825,250.7188 105.3825,252.8125 Q105.3825,254.9063 106.07,255.9844 Q106.7575,257.0469 108.1013,257.0469 Q108.7263,257.0469 109.32,256.7813 Q109.9138,256.5 110.5388,255.9219 L110.5388,258.6406 Z "/><text fill="#000000" font-family="sans-serif" font-size="12" lengthAdjust="spacingAndGlyphs" textLength="124" x="121.57" y="257.1543">InputActionProperty</text><line style="stroke: #A80036; stroke-width: 1.5;" x1="93.57" x2="247.57" y1="269" y2="269"/><line style="stroke: #A80036; stroke-width: 1.5;" x1="93.57" x2="247.57" y1="277" y2="277"/><!--MD5=[8b805049d0499e23d33da8a1efc9f54d]
class Animator--><rect fill="#FEFECE" filter="url(#f1e6ai08isvb0w)" height="48" id="Animator" style="stroke: #A80036; stroke-width: 1.5;" width="88" x="283.57" y="237"/><ellipse cx="298.57" cy="253" fill="#ADD1B2" rx="11" ry="11" style="stroke: #A80036; stroke-width: 1.0;"/><path d="M301.5388,258.6406 Q300.9606,258.9375 300.32,259.0781 Q299.6794,259.2344 298.9763,259.2344 Q296.4763,259.2344 295.1481,257.5938 Q293.8356,255.9375 293.8356,252.8125 Q293.8356,249.6875 295.1481,248.0313 Q296.4763,246.375 298.9763,246.375 Q299.6794,246.375 300.32,246.5313 Q300.9763,246.6875 301.5388,246.9844 L301.5388,249.7031 Q300.9138,249.125 300.32,248.8594 Q299.7263,248.5781 299.1013,248.5781 Q297.7575,248.5781 297.07,249.6563 Q296.3825,250.7188 296.3825,252.8125 Q296.3825,254.9063 297.07,255.9844 Q297.7575,257.0469 299.1013,257.0469 Q299.7263,257.0469 300.32,256.7813 Q300.9138,256.5 301.5388,255.9219 L301.5388,258.6406 Z "/><text fill="#000000" font-family="sans-serif" font-size="12" lengthAdjust="spacingAndGlyphs" textLength="56" x="312.57" y="257.1543">Animator</text><line style="stroke: #A80036; stroke-width: 1.5;" x1="284.57" x2="370.57" y1="269" y2="269"/><line style="stroke: #A80036; stroke-width: 1.5;" x1="284.57" x2="370.57" y1="277" y2="277"/><!--MD5=[2a2f9b86537ca9e808c53bfb890352f6]
reverse link MonoBehaviour to AnimateHand--><path d="M170.57,76.11 C170.57,89.31 170.57,103.54 170.57,115.65 " fill="none" id="MonoBehaviour&lt;-AnimateHand" style="stroke: #A80036; stroke-width: 1.0;"/><polygon fill="none" points="163.57,76.04,170.57,56.04,177.57,76.04,163.57,76.04" style="stroke: #A80036; stroke-width: 1.0;"/><!--MD5=[a4dff544fe62d82e090e7afa3f9985df]
link AnimateHand to InputActionProperty--><path d="M159.19,177.06 C157.31,193.93 157.36,214.98 159.33,231.65 " fill="none" id="AnimateHand-&gt;InputActionProperty" style="stroke: #A80036; stroke-width: 1.0;"/><polygon fill="#A80036" points="160,236.67,162.7826,227.2224,159.3429,231.7134,154.852,228.2737,160,236.67" style="stroke: #A80036; stroke-width: 1.0;"/><text fill="#000000" font-family="sans-serif" font-size="13" lengthAdjust="spacingAndGlyphs" textLength="139" x="1.4829" y="225.9945">pinchAnimationAction</text><!--MD5=[a4dff544fe62d82e090e7afa3f9985df]
link AnimateHand to InputActionProperty--><path d="M182.61,177.06 C184.6,193.93 184.55,214.98 182.47,231.65 " fill="none" id="AnimateHand-&gt;InputActionProperty-1" style="stroke: #A80036; stroke-width: 1.0;"/><polygon fill="#A80036" points="181.76,236.67,186.9791,228.3177,182.4591,231.7191,179.0577,227.1991,181.76,236.67" style="stroke: #A80036; stroke-width: 1.0;"/><text fill="#000000" font-family="sans-serif" font-size="13" lengthAdjust="spacingAndGlyphs" textLength="129" x="200.1112" y="225.9328">gripAnimationAction</text><!--MD5=[27625768b8438e13b2136f7bec26c31a]
link AnimateHand to Animator--><path d="M211.82,177.06 C236.36,194.65 267.24,216.77 290.92,233.74 " fill="none" id="AnimateHand-&gt;Animator" style="stroke: #A80036; stroke-width: 1.0;"/><polygon fill="#A80036" points="295.26,236.85,290.2501,228.3706,291.1875,233.9492,285.6088,234.8866,295.26,236.85" style="stroke: #A80036; stroke-width: 1.0;"/><text fill="#000000" font-family="sans-serif" font-size="13" lengthAdjust="spacingAndGlyphs" textLength="91" x="298.6399" y="225.8236">handAnimator</text><!--MD5=[089ad410ac700de84593eb3c9cc1d753]
@startuml
class AnimateHand {
    Update() : void
}
MonoBehaviour <|- - AnimateHand
AnimateHand - -> "pinchAnimationAction" InputActionProperty
AnimateHand - -> "gripAnimationAction" InputActionProperty
AnimateHand - -> "handAnimator" Animator
@enduml

PlantUML version 1.2020.02(Sun Mar 01 10:22:07 GMT 2020)
(GPL source distribution)
Java Runtime: OpenJDK Runtime Environment
JVM: OpenJDK 64-Bit Server VM
Java Version: 11.0.9+11-Ubuntu-0ubuntu1
Operating System: Linux
Default Encoding: ANSI_X3.4-1968
Language: en
Country: US
--></g></svg>