<?xml version="1.0" encoding="UTF-8" standalone="no"?><svg xmlns="http://www.w3.org/2000/svg" xmlns:xlink="http://www.w3.org/1999/xlink" contentScriptType="application/ecmascript" contentStyleType="text/css" height="334px" preserveAspectRatio="none" style="width:399px;height:334px;" version="1.1" viewBox="0 0 399 334" width="399px" zoomAndPan="magnify"><defs><filter height="300%" id="f9f4mdburio0m" width="300%" x="-1" y="-1"><feGaussianBlur result="blurOut" stdDeviation="2.0"/><feColorMatrix in="blurOut" result="blurOut2" type="matrix" values="0 0 0 0 0 0 0 0 0 0 0 0 0 0 0 0 0 0 .4 0"/><feOffset dx="4.0" dy="4.0" in="blurOut2" result="blurOut3"/><feBlend in="SourceGraphic" in2="blurOut3" mode="normal"/></filter></defs><g><!--MD5=[9ad84c86117d4c1256a93aa68246b16d]
class AnimalShop--><rect fill="#FEFECE" filter="url(#f9f4mdburio0m)" height="99.2188" id="AnimalShop" style="stroke: #A80036; stroke-width: 1.5;" width="143" x="125.5" y="116"/><ellipse cx="157.6" cy="132" fill="#ADD1B2" rx="11" ry="11" style="stroke: #A80036; stroke-width: 1.0;"/><path d="M160.5688,137.6406 Q159.9906,137.9375 159.35,138.0781 Q158.7094,138.2344 158.0063,138.2344 Q155.5063,138.2344 154.1781,136.5938 Q152.8656,134.9375 152.8656,131.8125 Q152.8656,128.6875 154.1781,127.0313 Q155.5063,125.375 158.0063,125.375 Q158.7094,125.375 159.35,125.5313 Q160.0063,125.6875 160.5688,125.9844 L160.5688,128.7031 Q159.9438,128.125 159.35,127.8594 Q158.7563,127.5781 158.1313,127.5781 Q156.7875,127.5781 156.1,128.6563 Q155.4125,129.7188 155.4125,131.8125 Q155.4125,133.9063 156.1,134.9844 Q156.7875,136.0469 158.1313,136.0469 Q158.7563,136.0469 159.35,135.7813 Q159.9438,135.5 160.5688,134.9219 L160.5688,137.6406 Z "/><text fill="#000000" font-family="sans-serif" font-size="12" lengthAdjust="spacingAndGlyphs" textLength="73" x="175.4" y="136.1543">AnimalShop</text><line style="stroke: #A80036; stroke-width: 1.5;" x1="126.5" x2="267.5" y1="148" y2="148"/><ellipse cx="136.5" cy="159" fill="none" rx="3" ry="3" style="stroke: #038048; stroke-width: 1.0;"/><text fill="#000000" font-family="sans-serif" font-size="11" lengthAdjust="spacingAndGlyphs" textLength="54" x="145.5" y="162.2104">price : int</text><text fill="#000000" font-family="sans-serif" font-size="11" lengthAdjust="spacingAndGlyphs" textLength="93" x="145.5" y="175.0151">isPressed : bool</text><line style="stroke: #A80036; stroke-width: 1.5;" x1="126.5" x2="267.5" y1="181.6094" y2="181.6094"/><text fill="#000000" font-family="sans-serif" font-size="11" lengthAdjust="spacingAndGlyphs" textLength="71" x="145.5" y="195.8198">Start() : void</text><ellipse cx="136.5" cy="205.4141" fill="#84BE84" rx="3" ry="3" style="stroke: #038048; stroke-width: 1.0;"/><text fill="#000000" font-family="sans-serif" font-size="11" lengthAdjust="spacingAndGlyphs" textLength="117" x="145.5" y="208.6245">SpawnObject() : void</text><!--MD5=[83b3cf3d23d77c6f1e1b5291a241bc2a]
class MonoBehaviour--><rect fill="#FEFECE" filter="url(#f9f4mdburio0m)" height="48" id="MonoBehaviour" style="stroke: #A80036; stroke-width: 1.5;" width="128" x="133" y="8"/><ellipse cx="148" cy="24" fill="#ADD1B2" rx="11" ry="11" style="stroke: #A80036; stroke-width: 1.0;"/><path d="M150.9688,29.6406 Q150.3906,29.9375 149.75,30.0781 Q149.1094,30.2344 148.4063,30.2344 Q145.9063,30.2344 144.5781,28.5938 Q143.2656,26.9375 143.2656,23.8125 Q143.2656,20.6875 144.5781,19.0313 Q145.9063,17.375 148.4063,17.375 Q149.1094,17.375 149.75,17.5313 Q150.4063,17.6875 150.9688,17.9844 L150.9688,20.7031 Q150.3438,20.125 149.75,19.8594 Q149.1563,19.5781 148.5313,19.5781 Q147.1875,19.5781 146.5,20.6563 Q145.8125,21.7188 145.8125,23.8125 Q145.8125,25.9063 146.5,26.9844 Q147.1875,28.0469 148.5313,28.0469 Q149.1563,28.0469 149.75,27.7813 Q150.3438,27.5 150.9688,26.9219 L150.9688,29.6406 Z "/><text fill="#000000" font-family="sans-serif" font-size="12" lengthAdjust="spacingAndGlyphs" textLength="96" x="162" y="28.1543">MonoBehaviour</text><line style="stroke: #A80036; stroke-width: 1.5;" x1="134" x2="260" y1="40" y2="40"/><line style="stroke: #A80036; stroke-width: 1.5;" x1="134" x2="260" y1="48" y2="48"/><!--MD5=[064f7a74fee85463ec1a30143664ee17]
class GameObject--><rect fill="#FEFECE" filter="url(#f9f4mdburio0m)" height="48" id="GameObject" style="stroke: #A80036; stroke-width: 1.5;" width="108" x="6" y="275"/><ellipse cx="21" cy="291" fill="#ADD1B2" rx="11" ry="11" style="stroke: #A80036; stroke-width: 1.0;"/><path d="M23.9688,296.6406 Q23.3906,296.9375 22.75,297.0781 Q22.1094,297.2344 21.4063,297.2344 Q18.9063,297.2344 17.5781,295.5938 Q16.2656,293.9375 16.2656,290.8125 Q16.2656,287.6875 17.5781,286.0313 Q18.9063,284.375 21.4063,284.375 Q22.1094,284.375 22.75,284.5313 Q23.4063,284.6875 23.9688,284.9844 L23.9688,287.7031 Q23.3438,287.125 22.75,286.8594 Q22.1563,286.5781 21.5313,286.5781 Q20.1875,286.5781 19.5,287.6563 Q18.8125,288.7188 18.8125,290.8125 Q18.8125,292.9063 19.5,293.9844 Q20.1875,295.0469 21.5313,295.0469 Q22.1563,295.0469 22.75,294.7813 Q23.3438,294.5 23.9688,293.9219 L23.9688,296.6406 Z "/><text fill="#000000" font-family="sans-serif" font-size="12" lengthAdjust="spacingAndGlyphs" textLength="76" x="35" y="295.1543">GameObject</text><line style="stroke: #A80036; stroke-width: 1.5;" x1="7" x2="113" y1="307" y2="307"/><line style="stroke: #A80036; stroke-width: 1.5;" x1="7" x2="113" y1="315" y2="315"/><!--MD5=[004b1d6c4ca8aad4ba8b586a335ed4f3]
class Transform--><rect fill="#FEFECE" filter="url(#f9f4mdburio0m)" height="48" id="Transform" style="stroke: #A80036; stroke-width: 1.5;" width="95" x="149.5" y="275"/><ellipse cx="164.5" cy="291" fill="#ADD1B2" rx="11" ry="11" style="stroke: #A80036; stroke-width: 1.0;"/><path d="M167.4688,296.6406 Q166.8906,296.9375 166.25,297.0781 Q165.6094,297.2344 164.9063,297.2344 Q162.4063,297.2344 161.0781,295.5938 Q159.7656,293.9375 159.7656,290.8125 Q159.7656,287.6875 161.0781,286.0313 Q162.4063,284.375 164.9063,284.375 Q165.6094,284.375 166.25,284.5313 Q166.9063,284.6875 167.4688,284.9844 L167.4688,287.7031 Q166.8438,287.125 166.25,286.8594 Q165.6563,286.5781 165.0313,286.5781 Q163.6875,286.5781 163,287.6563 Q162.3125,288.7188 162.3125,290.8125 Q162.3125,292.9063 163,293.9844 Q163.6875,295.0469 165.0313,295.0469 Q165.6563,295.0469 166.25,294.7813 Q166.8438,294.5 167.4688,293.9219 L167.4688,296.6406 Z "/><text fill="#000000" font-family="sans-serif" font-size="12" lengthAdjust="spacingAndGlyphs" textLength="63" x="178.5" y="295.1543">Transform</text><line style="stroke: #A80036; stroke-width: 1.5;" x1="150.5" x2="243.5" y1="307" y2="307"/><line style="stroke: #A80036; stroke-width: 1.5;" x1="150.5" x2="243.5" y1="315" y2="315"/><!--MD5=[3ead63e7a6dbaeb1466e3b865cfef6ea]
class UnityEvent--><rect fill="#FEFECE" filter="url(#f9f4mdburio0m)" height="48" id="UnityEvent" style="stroke: #A80036; stroke-width: 1.5;" width="98" x="280" y="275"/><ellipse cx="295" cy="291" fill="#ADD1B2" rx="11" ry="11" style="stroke: #A80036; stroke-width: 1.0;"/><path d="M297.9688,296.6406 Q297.3906,296.9375 296.75,297.0781 Q296.1094,297.2344 295.4063,297.2344 Q292.9063,297.2344 291.5781,295.5938 Q290.2656,293.9375 290.2656,290.8125 Q290.2656,287.6875 291.5781,286.0313 Q292.9063,284.375 295.4063,284.375 Q296.1094,284.375 296.75,284.5313 Q297.4063,284.6875 297.9688,284.9844 L297.9688,287.7031 Q297.3438,287.125 296.75,286.8594 Q296.1563,286.5781 295.5313,286.5781 Q294.1875,286.5781 293.5,287.6563 Q292.8125,288.7188 292.8125,290.8125 Q292.8125,292.9063 293.5,293.9844 Q294.1875,295.0469 295.5313,295.0469 Q296.1563,295.0469 296.75,294.7813 Q297.3438,294.5 297.9688,293.9219 L297.9688,296.6406 Z "/><text fill="#000000" font-family="sans-serif" font-size="12" lengthAdjust="spacingAndGlyphs" textLength="66" x="309" y="295.1543">UnityEvent</text><line style="stroke: #A80036; stroke-width: 1.5;" x1="281" x2="377" y1="307" y2="307"/><line style="stroke: #A80036; stroke-width: 1.5;" x1="281" x2="377" y1="315" y2="315"/><!--MD5=[ead4d9c6b68d2e9b254526fd4679ffb4]
reverse link MonoBehaviour to AnimalShop--><path d="M197,76.51 C197,89.14 197,103.01 197,115.93 " fill="none" id="MonoBehaviour&lt;-AnimalShop" style="stroke: #A80036; stroke-width: 1.0;"/><polygon fill="none" points="190,76.21,197,56.21,204,76.21,190,76.21" style="stroke: #A80036; stroke-width: 1.0;"/><!--MD5=[99c50b0510df6d785ebbe718ddc1e6bf]
link AnimalShop to GameObject--><path d="M134.02,215.09 C113.46,233.98 92.28,254.89 77.6,270.99 " fill="none" id="AnimalShop-&gt;GameObject" style="stroke: #A80036; stroke-width: 1.0;"/><polygon fill="#A80036" points="74.02,274.98,83.0139,270.9662,77.3648,271.2635,77.0675,265.6145,74.02,274.98" style="stroke: #A80036; stroke-width: 1.0;"/><text fill="#000000" font-family="sans-serif" font-size="13" lengthAdjust="spacingAndGlyphs" textLength="42" x="30.2314" y="263.9869">button</text><!--MD5=[99c50b0510df6d785ebbe718ddc1e6bf]
link AnimalShop to GameObject--><path d="M159.46,215.09 C140.56,234.14 117.91,255.25 98.81,271.4 " fill="none" id="AnimalShop-&gt;GameObject-1" style="stroke: #A80036; stroke-width: 1.0;"/><polygon fill="#A80036" points="94.54,274.98,104.0098,272.2739,98.3753,271.7721,98.8771,266.1375,94.54,274.98" style="stroke: #A80036; stroke-width: 1.0;"/><text fill="#000000" font-family="sans-serif" font-size="13" lengthAdjust="spacingAndGlyphs" textLength="86" x="114.3478" y="263.9252">boughtObject</text><!--MD5=[62a96a51cc93e16b21b63e3c13e460f9]
link AnimalShop to Transform--><path d="M197,215.09 C197,233.5 197,253.83 197,269.75 " fill="none" id="AnimalShop-&gt;Transform" style="stroke: #A80036; stroke-width: 1.0;"/><polygon fill="#A80036" points="197,274.98,201,265.98,197,269.98,193,265.98,197,274.98" style="stroke: #A80036; stroke-width: 1.0;"/><text fill="#000000" font-family="sans-serif" font-size="13" lengthAdjust="spacingAndGlyphs" textLength="23" x="199.9469" y="263.9869">pos</text><!--MD5=[1eab4e30cd1955810c12f5bfc08ac06f]
link AnimalShop to UnityEvent--><path d="M233.42,215.09 C251.65,234.14 273.46,255.25 291.82,271.4 " fill="none" id="AnimalShop-&gt;UnityEvent" style="stroke: #A80036; stroke-width: 1.0;"/><polygon fill="#A80036" points="295.92,274.98,291.7616,266.0521,292.15,271.6956,286.5065,272.084,295.92,274.98" style="stroke: #A80036; stroke-width: 1.0;"/><text fill="#000000" font-family="sans-serif" font-size="13" lengthAdjust="spacingAndGlyphs" textLength="51" x="245.3184" y="263.9239">onPress</text><!--MD5=[1eab4e30cd1955810c12f5bfc08ac06f]
link AnimalShop to UnityEvent--><path d="M258.86,215.09 C278.75,233.98 299.11,254.89 313.04,270.99 " fill="none" id="AnimalShop-&gt;UnityEvent-1" style="stroke: #A80036; stroke-width: 1.0;"/><polygon fill="#A80036" points="316.44,274.98,313.6404,265.5374,313.1943,271.1767,307.5551,270.7306,316.44,274.98" style="stroke: #A80036; stroke-width: 1.0;"/><text fill="#000000" font-family="sans-serif" font-size="13" lengthAdjust="spacingAndGlyphs" textLength="66" x="321.6778" y="263.9869">onRelease</text><!--MD5=[04f872fabb2bff5e3f3f60859aa74b2b]
@startuml
class AnimalShop {
    + price : int
    isPressed : bool
    Start() : void
    + SpawnObject() : void
}
MonoBehaviour <|- - AnimalShop
AnimalShop - -> "button" GameObject
AnimalShop - -> "boughtObject" GameObject
AnimalShop - -> "pos" Transform
AnimalShop - -> "onPress" UnityEvent
AnimalShop - -> "onRelease" UnityEvent
@enduml

PlantUML version 1.2020.02(Sun Mar 01 10:22:07 GMT 2020)
(GPL source distribution)
Java Runtime: OpenJDK Runtime Environment
JVM: OpenJDK 64-Bit Server VM
Java Version: 11.0.9+11-Ubuntu-0ubuntu1
Operating System: Linux
Default Encoding: ANSI_X3.4-1968
Language: en
Country: US
--></g></svg>