<?xml version="1.0" encoding="UTF-8" standalone="no"?><svg xmlns="http://www.w3.org/2000/svg" xmlns:xlink="http://www.w3.org/1999/xlink" contentScriptType="application/ecmascript" contentStyleType="text/css" height="296px" preserveAspectRatio="none" style="width:222px;height:296px;" version="1.1" viewBox="0 0 222 296" width="222px" zoomAndPan="magnify"><defs><filter height="300%" id="f16dlpzi641578" width="300%" x="-1" y="-1"><feGaussianBlur result="blurOut" stdDeviation="2.0"/><feColorMatrix in="blurOut" result="blurOut2" type="matrix" values="0 0 0 0 0 0 0 0 0 0 0 0 0 0 0 0 0 0 .4 0"/><feOffset dx="4.0" dy="4.0" in="blurOut2" result="blurOut3"/><feBlend in="SourceGraphic" in2="blurOut3" mode="normal"/></filter></defs><g><!--MD5=[f5583ecde7ba6c5cbe3458718c6305a0]
class BirdFormController--><rect fill="#FEFECE" filter="url(#f16dlpzi641578)" height="60.8047" id="BirdFormController" style="stroke: #A80036; stroke-width: 1.5;" width="205" x="6" y="116"/><ellipse cx="46.65" cy="132" fill="#ADD1B2" rx="11" ry="11" style="stroke: #A80036; stroke-width: 1.0;"/><path d="M49.6188,137.6406 Q49.0406,137.9375 48.4,138.0781 Q47.7594,138.2344 47.0563,138.2344 Q44.5563,138.2344 43.2281,136.5938 Q41.9156,134.9375 41.9156,131.8125 Q41.9156,128.6875 43.2281,127.0313 Q44.5563,125.375 47.0563,125.375 Q47.7594,125.375 48.4,125.5313 Q49.0563,125.6875 49.6188,125.9844 L49.6188,128.7031 Q48.9938,128.125 48.4,127.8594 Q47.8063,127.5781 47.1813,127.5781 Q45.8375,127.5781 45.15,128.6563 Q44.4625,129.7188 44.4625,131.8125 Q44.4625,133.9063 45.15,134.9844 Q45.8375,136.0469 47.1813,136.0469 Q47.8063,136.0469 48.4,135.7813 Q48.9938,135.5 49.6188,134.9219 L49.6188,137.6406 Z "/><text fill="#000000" font-family="sans-serif" font-size="12" lengthAdjust="spacingAndGlyphs" textLength="116" x="66.35" y="136.1543">BirdFormController</text><line style="stroke: #A80036; stroke-width: 1.5;" x1="7" x2="210" y1="148" y2="148"/><line style="stroke: #A80036; stroke-width: 1.5;" x1="7" x2="210" y1="156" y2="156"/><ellipse cx="17" cy="167" fill="#84BE84" rx="3" ry="3" style="stroke: #038048; stroke-width: 1.0;"/><text fill="#000000" font-family="sans-serif" font-size="11" lengthAdjust="spacingAndGlyphs" textLength="179" x="26" y="170.2104">setDirection(pos:Vector3) : void</text><!--MD5=[83b3cf3d23d77c6f1e1b5291a241bc2a]
class MonoBehaviour--><rect fill="#FEFECE" filter="url(#f16dlpzi641578)" height="48" id="MonoBehaviour" style="stroke: #A80036; stroke-width: 1.5;" width="128" x="44.5" y="8"/><ellipse cx="59.5" cy="24" fill="#ADD1B2" rx="11" ry="11" style="stroke: #A80036; stroke-width: 1.0;"/><path d="M62.4688,29.6406 Q61.8906,29.9375 61.25,30.0781 Q60.6094,30.2344 59.9063,30.2344 Q57.4063,30.2344 56.0781,28.5938 Q54.7656,26.9375 54.7656,23.8125 Q54.7656,20.6875 56.0781,19.0313 Q57.4063,17.375 59.9063,17.375 Q60.6094,17.375 61.25,17.5313 Q61.9063,17.6875 62.4688,17.9844 L62.4688,20.7031 Q61.8438,20.125 61.25,19.8594 Q60.6563,19.5781 60.0313,19.5781 Q58.6875,19.5781 58,20.6563 Q57.3125,21.7188 57.3125,23.8125 Q57.3125,25.9063 58,26.9844 Q58.6875,28.0469 60.0313,28.0469 Q60.6563,28.0469 61.25,27.7813 Q61.8438,27.5 62.4688,26.9219 L62.4688,29.6406 Z "/><text fill="#000000" font-family="sans-serif" font-size="12" lengthAdjust="spacingAndGlyphs" textLength="96" x="73.5" y="28.1543">MonoBehaviour</text><line style="stroke: #A80036; stroke-width: 1.5;" x1="45.5" x2="171.5" y1="40" y2="40"/><line style="stroke: #A80036; stroke-width: 1.5;" x1="45.5" x2="171.5" y1="48" y2="48"/><!--MD5=[65d619c042c23702cef2ca07d67b1cf6]
class Vector3--><rect fill="#FEFECE" filter="url(#f16dlpzi641578)" height="48" id="Vector3" style="stroke: #A80036; stroke-width: 1.5;" width="81" x="68" y="237"/><ellipse cx="83" cy="253" fill="#ADD1B2" rx="11" ry="11" style="stroke: #A80036; stroke-width: 1.0;"/><path d="M85.9688,258.6406 Q85.3906,258.9375 84.75,259.0781 Q84.1094,259.2344 83.4063,259.2344 Q80.9063,259.2344 79.5781,257.5938 Q78.2656,255.9375 78.2656,252.8125 Q78.2656,249.6875 79.5781,248.0313 Q80.9063,246.375 83.4063,246.375 Q84.1094,246.375 84.75,246.5313 Q85.4063,246.6875 85.9688,246.9844 L85.9688,249.7031 Q85.3438,249.125 84.75,248.8594 Q84.1563,248.5781 83.5313,248.5781 Q82.1875,248.5781 81.5,249.6563 Q80.8125,250.7188 80.8125,252.8125 Q80.8125,254.9063 81.5,255.9844 Q82.1875,257.0469 83.5313,257.0469 Q84.1563,257.0469 84.75,256.7813 Q85.3438,256.5 85.9688,255.9219 L85.9688,258.6406 Z "/><text fill="#000000" font-family="sans-serif" font-size="12" lengthAdjust="spacingAndGlyphs" textLength="49" x="97" y="257.1543">Vector3</text><line style="stroke: #A80036; stroke-width: 1.5;" x1="69" x2="148" y1="269" y2="269"/><line style="stroke: #A80036; stroke-width: 1.5;" x1="69" x2="148" y1="277" y2="277"/><!--MD5=[d2b11c15985a78284f40cc37bb6e0b9e]
reverse link MonoBehaviour to BirdFormController--><path d="M108.5,76.11 C108.5,89.31 108.5,103.54 108.5,115.65 " fill="none" id="MonoBehaviour&lt;-BirdFormController" style="stroke: #A80036; stroke-width: 1.0;"/><polygon fill="none" points="101.5,76.04,108.5,56.04,115.5,76.04,101.5,76.04" style="stroke: #A80036; stroke-width: 1.0;"/><!--MD5=[361ce3fad14ea1827c1b491af2b3f2fd]
link BirdFormController to Vector3--><path d="M108.5,177.06 C108.5,193.93 108.5,214.98 108.5,231.65 " fill="none" id="BirdFormController-&gt;Vector3" style="stroke: #A80036; stroke-width: 1.0;"/><polygon fill="#A80036" points="108.5,236.67,112.5,227.67,108.5,231.67,104.5,227.67,108.5,236.67" style="stroke: #A80036; stroke-width: 1.0;"/><text fill="#000000" font-family="sans-serif" font-size="13" lengthAdjust="spacingAndGlyphs" textLength="47" x="55.7719" y="225.9945">endPos</text><!--MD5=[930da9494c34124d8e7ec3048a199a72]
@startuml
class BirdFormController {
    + setDirection(pos:Vector3) : void
}
MonoBehaviour <|- - BirdFormController
BirdFormController - -> "endPos" Vector3
@enduml

PlantUML version 1.2020.02(Sun Mar 01 10:22:07 GMT 2020)
(GPL source distribution)
Java Runtime: OpenJDK Runtime Environment
JVM: OpenJDK 64-Bit Server VM
Java Version: 11.0.9+11-Ubuntu-0ubuntu1
Operating System: Linux
Default Encoding: ANSI_X3.4-1968
Language: en
Country: US
--></g></svg>