<?xml version="1.0" encoding="UTF-8" standalone="no"?><svg xmlns="http://www.w3.org/2000/svg" xmlns:xlink="http://www.w3.org/1999/xlink" contentScriptType="application/ecmascript" contentStyleType="text/css" height="334px" preserveAspectRatio="none" style="width:283px;height:334px;" version="1.1" viewBox="0 0 283 334" width="283px" zoomAndPan="magnify"><defs><filter height="300%" id="fiwbs9vanwnfp" width="300%" x="-1" y="-1"><feGaussianBlur result="blurOut" stdDeviation="2.0"/><feColorMatrix in="blurOut" result="blurOut2" type="matrix" values="0 0 0 0 0 0 0 0 0 0 0 0 0 0 0 0 0 0 .4 0"/><feOffset dx="4.0" dy="4.0" in="blurOut2" result="blurOut3"/><feBlend in="SourceGraphic" in2="blurOut3" mode="normal"/></filter></defs><g><!--MD5=[8e462589b31a1e75c7d1a35aa1e37e8d]
class ButtonVR--><rect fill="#FEFECE" filter="url(#fiwbs9vanwnfp)" height="99.2188" id="ButtonVR" style="stroke: #A80036; stroke-width: 1.5;" width="143" x="58.39" y="116"/><ellipse cx="97.24" cy="132" fill="#ADD1B2" rx="11" ry="11" style="stroke: #A80036; stroke-width: 1.0;"/><path d="M100.2088,137.6406 Q99.6306,137.9375 98.99,138.0781 Q98.3494,138.2344 97.6463,138.2344 Q95.1463,138.2344 93.8181,136.5938 Q92.5056,134.9375 92.5056,131.8125 Q92.5056,128.6875 93.8181,127.0313 Q95.1463,125.375 97.6463,125.375 Q98.3494,125.375 98.99,125.5313 Q99.6463,125.6875 100.2088,125.9844 L100.2088,128.7031 Q99.5838,128.125 98.99,127.8594 Q98.3963,127.5781 97.7713,127.5781 Q96.4275,127.5781 95.74,128.6563 Q95.0525,129.7188 95.0525,131.8125 Q95.0525,133.9063 95.74,134.9844 Q96.4275,136.0469 97.7713,136.0469 Q98.3963,136.0469 98.99,135.7813 Q99.5838,135.5 100.2088,134.9219 L100.2088,137.6406 Z "/><text fill="#000000" font-family="sans-serif" font-size="12" lengthAdjust="spacingAndGlyphs" textLength="58" x="116.54" y="136.1543">ButtonVR</text><line style="stroke: #A80036; stroke-width: 1.5;" x1="59.39" x2="200.39" y1="148" y2="148"/><ellipse cx="69.39" cy="159" fill="none" rx="3" ry="3" style="stroke: #038048; stroke-width: 1.0;"/><text fill="#000000" font-family="sans-serif" font-size="11" lengthAdjust="spacingAndGlyphs" textLength="54" x="78.39" y="162.2104">price : int</text><text fill="#000000" font-family="sans-serif" font-size="11" lengthAdjust="spacingAndGlyphs" textLength="93" x="78.39" y="175.0151">isPressed : bool</text><line style="stroke: #A80036; stroke-width: 1.5;" x1="59.39" x2="200.39" y1="181.6094" y2="181.6094"/><text fill="#000000" font-family="sans-serif" font-size="11" lengthAdjust="spacingAndGlyphs" textLength="71" x="78.39" y="195.8198">Start() : void</text><ellipse cx="69.39" cy="205.4141" fill="#84BE84" rx="3" ry="3" style="stroke: #038048; stroke-width: 1.0;"/><text fill="#000000" font-family="sans-serif" font-size="11" lengthAdjust="spacingAndGlyphs" textLength="117" x="78.39" y="208.6245">SpawnObject() : void</text><!--MD5=[83b3cf3d23d77c6f1e1b5291a241bc2a]
class MonoBehaviour--><rect fill="#FEFECE" filter="url(#fiwbs9vanwnfp)" height="48" id="MonoBehaviour" style="stroke: #A80036; stroke-width: 1.5;" width="128" x="65.89" y="8"/><ellipse cx="80.89" cy="24" fill="#ADD1B2" rx="11" ry="11" style="stroke: #A80036; stroke-width: 1.0;"/><path d="M83.8588,29.6406 Q83.2806,29.9375 82.64,30.0781 Q81.9994,30.2344 81.2963,30.2344 Q78.7963,30.2344 77.4681,28.5938 Q76.1556,26.9375 76.1556,23.8125 Q76.1556,20.6875 77.4681,19.0313 Q78.7963,17.375 81.2963,17.375 Q81.9994,17.375 82.64,17.5313 Q83.2963,17.6875 83.8588,17.9844 L83.8588,20.7031 Q83.2338,20.125 82.64,19.8594 Q82.0463,19.5781 81.4213,19.5781 Q80.0775,19.5781 79.39,20.6563 Q78.7025,21.7188 78.7025,23.8125 Q78.7025,25.9063 79.39,26.9844 Q80.0775,28.0469 81.4213,28.0469 Q82.0463,28.0469 82.64,27.7813 Q83.2338,27.5 83.8588,26.9219 L83.8588,29.6406 Z "/><text fill="#000000" font-family="sans-serif" font-size="12" lengthAdjust="spacingAndGlyphs" textLength="96" x="94.89" y="28.1543">MonoBehaviour</text><line style="stroke: #A80036; stroke-width: 1.5;" x1="66.89" x2="192.89" y1="40" y2="40"/><line style="stroke: #A80036; stroke-width: 1.5;" x1="66.89" x2="192.89" y1="48" y2="48"/><!--MD5=[064f7a74fee85463ec1a30143664ee17]
class GameObject--><rect fill="#FEFECE" filter="url(#fiwbs9vanwnfp)" height="48" id="GameObject" style="stroke: #A80036; stroke-width: 1.5;" width="108" x="6.89" y="275"/><ellipse cx="21.89" cy="291" fill="#ADD1B2" rx="11" ry="11" style="stroke: #A80036; stroke-width: 1.0;"/><path d="M24.8588,296.6406 Q24.2806,296.9375 23.64,297.0781 Q22.9994,297.2344 22.2963,297.2344 Q19.7963,297.2344 18.4681,295.5938 Q17.1556,293.9375 17.1556,290.8125 Q17.1556,287.6875 18.4681,286.0313 Q19.7963,284.375 22.2963,284.375 Q22.9994,284.375 23.64,284.5313 Q24.2963,284.6875 24.8588,284.9844 L24.8588,287.7031 Q24.2338,287.125 23.64,286.8594 Q23.0463,286.5781 22.4213,286.5781 Q21.0775,286.5781 20.39,287.6563 Q19.7025,288.7188 19.7025,290.8125 Q19.7025,292.9063 20.39,293.9844 Q21.0775,295.0469 22.4213,295.0469 Q23.0463,295.0469 23.64,294.7813 Q24.2338,294.5 24.8588,293.9219 L24.8588,296.6406 Z "/><text fill="#000000" font-family="sans-serif" font-size="12" lengthAdjust="spacingAndGlyphs" textLength="76" x="35.89" y="295.1543">GameObject</text><line style="stroke: #A80036; stroke-width: 1.5;" x1="7.89" x2="113.89" y1="307" y2="307"/><line style="stroke: #A80036; stroke-width: 1.5;" x1="7.89" x2="113.89" y1="315" y2="315"/><!--MD5=[3ead63e7a6dbaeb1466e3b865cfef6ea]
class UnityEvent--><rect fill="#FEFECE" filter="url(#fiwbs9vanwnfp)" height="48" id="UnityEvent" style="stroke: #A80036; stroke-width: 1.5;" width="98" x="149.89" y="275"/><ellipse cx="164.89" cy="291" fill="#ADD1B2" rx="11" ry="11" style="stroke: #A80036; stroke-width: 1.0;"/><path d="M167.8588,296.6406 Q167.2806,296.9375 166.64,297.0781 Q165.9994,297.2344 165.2963,297.2344 Q162.7963,297.2344 161.4681,295.5938 Q160.1556,293.9375 160.1556,290.8125 Q160.1556,287.6875 161.4681,286.0313 Q162.7963,284.375 165.2963,284.375 Q165.9994,284.375 166.64,284.5313 Q167.2963,284.6875 167.8588,284.9844 L167.8588,287.7031 Q167.2338,287.125 166.64,286.8594 Q166.0463,286.5781 165.4213,286.5781 Q164.0775,286.5781 163.39,287.6563 Q162.7025,288.7188 162.7025,290.8125 Q162.7025,292.9063 163.39,293.9844 Q164.0775,295.0469 165.4213,295.0469 Q166.0463,295.0469 166.64,294.7813 Q167.2338,294.5 167.8588,293.9219 L167.8588,296.6406 Z "/><text fill="#000000" font-family="sans-serif" font-size="12" lengthAdjust="spacingAndGlyphs" textLength="66" x="178.89" y="295.1543">UnityEvent</text><line style="stroke: #A80036; stroke-width: 1.5;" x1="150.89" x2="246.89" y1="307" y2="307"/><line style="stroke: #A80036; stroke-width: 1.5;" x1="150.89" x2="246.89" y1="315" y2="315"/><!--MD5=[35c580719dd55d15ddd49c14863bea99]
reverse link MonoBehaviour to ButtonVR--><path d="M129.89,76.51 C129.89,89.14 129.89,103.01 129.89,115.93 " fill="none" id="MonoBehaviour&lt;-ButtonVR" style="stroke: #A80036; stroke-width: 1.0;"/><polygon fill="none" points="122.89,76.21,129.89,56.21,136.89,76.21,122.89,76.21" style="stroke: #A80036; stroke-width: 1.0;"/><!--MD5=[e79c3fb59ccbb158b3b817a23b3d01f0]
link ButtonVR to GameObject--><path d="M92.04,215.09 C81.42,233.66 71.23,254.18 64.85,270.17 " fill="none" id="ButtonVR-&gt;GameObject" style="stroke: #A80036; stroke-width: 1.0;"/><polygon fill="#A80036" points="63,274.98,69.9756,268.0273,64.8026,270.3162,62.5136,265.1432,63,274.98" style="stroke: #A80036; stroke-width: 1.0;"/><text fill="#000000" font-family="sans-serif" font-size="13" lengthAdjust="spacingAndGlyphs" textLength="42" x="16.1594" y="263.9869">button</text><!--MD5=[e79c3fb59ccbb158b3b817a23b3d01f0]
link ButtonVR to GameObject--><path d="M117.48,215.09 C108.58,233.82 97.08,254.54 86.49,270.58 " fill="none" id="ButtonVR-&gt;GameObject-1" style="stroke: #A80036; stroke-width: 1.0;"/><polygon fill="#A80036" points="83.52,274.98,91.8737,269.7632,86.3198,270.8374,85.2456,265.2835,83.52,274.98" style="stroke: #A80036; stroke-width: 1.0;"/><text fill="#000000" font-family="sans-serif" font-size="13" lengthAdjust="spacingAndGlyphs" textLength="86" x="100.2509" y="263.9252">boughtObject</text><!--MD5=[a055aeba659ece1ef1e86e32533970b3]
link ButtonVR to UnityEvent--><path d="M143.03,215.09 C151.98,233.82 163.44,254.54 173.92,270.58 " fill="none" id="ButtonVR-&gt;UnityEvent" style="stroke: #A80036; stroke-width: 1.0;"/><polygon fill="#A80036" points="176.84,274.98,175.1759,265.2727,174.0665,270.8197,168.5195,269.7103,176.84,274.98" style="stroke: #A80036; stroke-width: 1.0;"/><text fill="#000000" font-family="sans-serif" font-size="13" lengthAdjust="spacingAndGlyphs" textLength="51" x="177.7241" y="263.9869">onPress</text><!--MD5=[a055aeba659ece1ef1e86e32533970b3]
link ButtonVR to UnityEvent--><path d="M168.47,215.09 C179.13,233.66 189.3,254.18 195.55,270.17 " fill="none" id="ButtonVR-&gt;UnityEvent-1" style="stroke: #A80036; stroke-width: 1.0;"/><polygon fill="#A80036" points="197.36,274.98,197.9452,265.1485,195.6044,270.2984,190.4546,267.9575,197.36,274.98" style="stroke: #A80036; stroke-width: 1.0;"/><text fill="#000000" font-family="sans-serif" font-size="13" lengthAdjust="spacingAndGlyphs" textLength="66" x="205.4242" y="263.9869">onRelease</text><!--MD5=[5797963840874d775ba1ef817d594101]
@startuml
class ButtonVR {
    + price : int
    isPressed : bool
    Start() : void
    + SpawnObject() : void
}
MonoBehaviour <|- - ButtonVR
ButtonVR - -> "button" GameObject
ButtonVR - -> "boughtObject" GameObject
ButtonVR - -> "onPress" UnityEvent
ButtonVR - -> "onRelease" UnityEvent
@enduml

PlantUML version 1.2020.02(Sun Mar 01 10:22:07 GMT 2020)
(GPL source distribution)
Java Runtime: OpenJDK Runtime Environment
JVM: OpenJDK 64-Bit Server VM
Java Version: 11.0.9+11-Ubuntu-0ubuntu1
Operating System: Linux
Default Encoding: ANSI_X3.4-1968
Language: en
Country: US
--></g></svg>