<?xml version="1.0" encoding="UTF-8" standalone="no"?><svg xmlns="http://www.w3.org/2000/svg" xmlns:xlink="http://www.w3.org/1999/xlink" contentScriptType="application/ecmascript" contentStyleType="text/css" height="283px" preserveAspectRatio="none" style="width:179px;height:283px;" version="1.1" viewBox="0 0 179 283" width="179px" zoomAndPan="magnify"><defs><filter height="300%" id="f1pcsonfbqq0vv" width="300%" x="-1" y="-1"><feGaussianBlur result="blurOut" stdDeviation="2.0"/><feColorMatrix in="blurOut" result="blurOut2" type="matrix" values="0 0 0 0 0 0 0 0 0 0 0 0 0 0 0 0 0 0 .4 0"/><feOffset dx="4.0" dy="4.0" in="blurOut2" result="blurOut3"/><feBlend in="SourceGraphic" in2="blurOut3" mode="normal"/></filter></defs><g><!--MD5=[566e68f78ebf3c67adfc77a6b1e06735]
class CanController--><rect fill="#FEFECE" filter="url(#f1pcsonfbqq0vv)" height="48" id="CanController" style="stroke: #A80036; stroke-width: 1.5;" width="117" x="31.5" y="116"/><ellipse cx="46.5" cy="132" fill="#ADD1B2" rx="11" ry="11" style="stroke: #A80036; stroke-width: 1.0;"/><path d="M49.4688,137.6406 Q48.8906,137.9375 48.25,138.0781 Q47.6094,138.2344 46.9063,138.2344 Q44.4063,138.2344 43.0781,136.5938 Q41.7656,134.9375 41.7656,131.8125 Q41.7656,128.6875 43.0781,127.0313 Q44.4063,125.375 46.9063,125.375 Q47.6094,125.375 48.25,125.5313 Q48.9063,125.6875 49.4688,125.9844 L49.4688,128.7031 Q48.8438,128.125 48.25,127.8594 Q47.6563,127.5781 47.0313,127.5781 Q45.6875,127.5781 45,128.6563 Q44.3125,129.7188 44.3125,131.8125 Q44.3125,133.9063 45,134.9844 Q45.6875,136.0469 47.0313,136.0469 Q47.6563,136.0469 48.25,135.7813 Q48.8438,135.5 49.4688,134.9219 L49.4688,137.6406 Z "/><text fill="#000000" font-family="sans-serif" font-size="12" lengthAdjust="spacingAndGlyphs" textLength="85" x="60.5" y="136.1543">CanController</text><line style="stroke: #A80036; stroke-width: 1.5;" x1="32.5" x2="147.5" y1="148" y2="148"/><line style="stroke: #A80036; stroke-width: 1.5;" x1="32.5" x2="147.5" y1="156" y2="156"/><!--MD5=[83b3cf3d23d77c6f1e1b5291a241bc2a]
class MonoBehaviour--><rect fill="#FEFECE" filter="url(#f1pcsonfbqq0vv)" height="48" id="MonoBehaviour" style="stroke: #A80036; stroke-width: 1.5;" width="128" x="26" y="8"/><ellipse cx="41" cy="24" fill="#ADD1B2" rx="11" ry="11" style="stroke: #A80036; stroke-width: 1.0;"/><path d="M43.9688,29.6406 Q43.3906,29.9375 42.75,30.0781 Q42.1094,30.2344 41.4063,30.2344 Q38.9063,30.2344 37.5781,28.5938 Q36.2656,26.9375 36.2656,23.8125 Q36.2656,20.6875 37.5781,19.0313 Q38.9063,17.375 41.4063,17.375 Q42.1094,17.375 42.75,17.5313 Q43.4063,17.6875 43.9688,17.9844 L43.9688,20.7031 Q43.3438,20.125 42.75,19.8594 Q42.1563,19.5781 41.5313,19.5781 Q40.1875,19.5781 39.5,20.6563 Q38.8125,21.7188 38.8125,23.8125 Q38.8125,25.9063 39.5,26.9844 Q40.1875,28.0469 41.5313,28.0469 Q42.1563,28.0469 42.75,27.7813 Q43.3438,27.5 43.9688,26.9219 L43.9688,29.6406 Z "/><text fill="#000000" font-family="sans-serif" font-size="12" lengthAdjust="spacingAndGlyphs" textLength="96" x="55" y="28.1543">MonoBehaviour</text><line style="stroke: #A80036; stroke-width: 1.5;" x1="27" x2="153" y1="40" y2="40"/><line style="stroke: #A80036; stroke-width: 1.5;" x1="27" x2="153" y1="48" y2="48"/><!--MD5=[bd622505b4ad2c89ad2f9c7a1fb5e1ce]
class InputActionProperty--><rect fill="#FEFECE" filter="url(#f1pcsonfbqq0vv)" height="48" id="InputActionProperty" style="stroke: #A80036; stroke-width: 1.5;" width="156" x="12" y="224"/><ellipse cx="27" cy="240" fill="#ADD1B2" rx="11" ry="11" style="stroke: #A80036; stroke-width: 1.0;"/><path d="M29.9688,245.6406 Q29.3906,245.9375 28.75,246.0781 Q28.1094,246.2344 27.4063,246.2344 Q24.9063,246.2344 23.5781,244.5938 Q22.2656,242.9375 22.2656,239.8125 Q22.2656,236.6875 23.5781,235.0313 Q24.9063,233.375 27.4063,233.375 Q28.1094,233.375 28.75,233.5313 Q29.4063,233.6875 29.9688,233.9844 L29.9688,236.7031 Q29.3438,236.125 28.75,235.8594 Q28.1563,235.5781 27.5313,235.5781 Q26.1875,235.5781 25.5,236.6563 Q24.8125,237.7188 24.8125,239.8125 Q24.8125,241.9063 25.5,242.9844 Q26.1875,244.0469 27.5313,244.0469 Q28.1563,244.0469 28.75,243.7813 Q29.3438,243.5 29.9688,242.9219 L29.9688,245.6406 Z "/><text fill="#000000" font-family="sans-serif" font-size="12" lengthAdjust="spacingAndGlyphs" textLength="124" x="41" y="244.1543">InputActionProperty</text><line style="stroke: #A80036; stroke-width: 1.5;" x1="13" x2="167" y1="256" y2="256"/><line style="stroke: #A80036; stroke-width: 1.5;" x1="13" x2="167" y1="264" y2="264"/><!--MD5=[0f6743fd967cdf86defade6cb11a44de]
reverse link MonoBehaviour to CanController--><path d="M90,76.02 C90,89.58 90,104.04 90,115.68 " fill="none" id="MonoBehaviour&lt;-CanController" style="stroke: #A80036; stroke-width: 1.0;"/><polygon fill="none" points="83,76,90,56,97,76,83,76" style="stroke: #A80036; stroke-width: 1.0;"/><!--MD5=[36c41c2400207c421e37e5a80cef449e]
link CanController to InputActionProperty--><path d="M90,164 C90,180 90,201.45 90,218.53 " fill="none" id="CanController-&gt;InputActionProperty" style="stroke: #A80036; stroke-width: 1.0;"/><polygon fill="#A80036" points="90,223.68,94,214.68,90,218.68,86,214.68,90,223.68" style="stroke: #A80036; stroke-width: 1.0;"/><text fill="#000000" font-family="sans-serif" font-size="13" lengthAdjust="spacingAndGlyphs" textLength="69" x="12.5906" y="213.007">rightSelect</text><!--MD5=[997aeea911b0f933904655cfd9e83bd0]
@startuml
class CanController {
}
MonoBehaviour <|- - CanController
CanController - -> "rightSelect" InputActionProperty
@enduml

PlantUML version 1.2020.02(Sun Mar 01 10:22:07 GMT 2020)
(GPL source distribution)
Java Runtime: OpenJDK Runtime Environment
JVM: OpenJDK 64-Bit Server VM
Java Version: 11.0.9+11-Ubuntu-0ubuntu1
Operating System: Linux
Default Encoding: ANSI_X3.4-1968
Language: en
Country: US
--></g></svg>