<?xml version="1.0" encoding="UTF-8" standalone="no"?><svg xmlns="http://www.w3.org/2000/svg" xmlns:xlink="http://www.w3.org/1999/xlink" contentScriptType="application/ecmascript" contentStyleType="text/css" height="309px" preserveAspectRatio="none" style="width:308px;height:309px;" version="1.1" viewBox="0 0 308 309" width="308px" zoomAndPan="magnify"><defs><filter height="300%" id="fbg12mtt0y59o" width="300%" x="-1" y="-1"><feGaussianBlur result="blurOut" stdDeviation="2.0"/><feColorMatrix in="blurOut" result="blurOut2" type="matrix" values="0 0 0 0 0 0 0 0 0 0 0 0 0 0 0 0 0 0 .4 0"/><feOffset dx="4.0" dy="4.0" in="blurOut2" result="blurOut3"/><feBlend in="SourceGraphic" in2="blurOut3" mode="normal"/></filter></defs><g><!--MD5=[05227e7c584d0af92805e7c125f711c1]
class CapsuleController--><rect fill="#FEFECE" filter="url(#fbg12mtt0y59o)" height="73.6094" id="CapsuleController" style="stroke: #A80036; stroke-width: 1.5;" width="291" x="6" y="116"/><ellipse cx="91.75" cy="132" fill="#ADD1B2" rx="11" ry="11" style="stroke: #A80036; stroke-width: 1.0;"/><path d="M94.7188,137.6406 Q94.1406,137.9375 93.5,138.0781 Q92.8594,138.2344 92.1563,138.2344 Q89.6563,138.2344 88.3281,136.5938 Q87.0156,134.9375 87.0156,131.8125 Q87.0156,128.6875 88.3281,127.0313 Q89.6563,125.375 92.1563,125.375 Q92.8594,125.375 93.5,125.5313 Q94.1563,125.6875 94.7188,125.9844 L94.7188,128.7031 Q94.0938,128.125 93.5,127.8594 Q92.9063,127.5781 92.2813,127.5781 Q90.9375,127.5781 90.25,128.6563 Q89.5625,129.7188 89.5625,131.8125 Q89.5625,133.9063 90.25,134.9844 Q90.9375,136.0469 92.2813,136.0469 Q92.9063,136.0469 93.5,135.7813 Q94.0938,135.5 94.7188,134.9219 L94.7188,137.6406 Z "/><text fill="#000000" font-family="sans-serif" font-size="12" lengthAdjust="spacingAndGlyphs" textLength="111" x="112.25" y="136.1543">CapsuleController</text><line style="stroke: #A80036; stroke-width: 1.5;" x1="7" x2="296" y1="148" y2="148"/><ellipse cx="17" cy="159" fill="none" rx="3" ry="3" style="stroke: #038048; stroke-width: 1.0;"/><text fill="#000000" font-family="sans-serif" font-size="11" lengthAdjust="spacingAndGlyphs" textLength="119" x="26" y="162.2104">asleep : bool = false</text><line style="stroke: #A80036; stroke-width: 1.5;" x1="7" x2="296" y1="168.8047" y2="168.8047"/><text fill="#000000" font-family="sans-serif" font-size="11" lengthAdjust="spacingAndGlyphs" textLength="279" x="12" y="183.0151">Wait(time:float, other:GameObject) : IEnumerator</text><!--MD5=[83b3cf3d23d77c6f1e1b5291a241bc2a]
class MonoBehaviour--><rect fill="#FEFECE" filter="url(#fbg12mtt0y59o)" height="48" id="MonoBehaviour" style="stroke: #A80036; stroke-width: 1.5;" width="128" x="87.5" y="8"/><ellipse cx="102.5" cy="24" fill="#ADD1B2" rx="11" ry="11" style="stroke: #A80036; stroke-width: 1.0;"/><path d="M105.4688,29.6406 Q104.8906,29.9375 104.25,30.0781 Q103.6094,30.2344 102.9063,30.2344 Q100.4063,30.2344 99.0781,28.5938 Q97.7656,26.9375 97.7656,23.8125 Q97.7656,20.6875 99.0781,19.0313 Q100.4063,17.375 102.9063,17.375 Q103.6094,17.375 104.25,17.5313 Q104.9063,17.6875 105.4688,17.9844 L105.4688,20.7031 Q104.8438,20.125 104.25,19.8594 Q103.6563,19.5781 103.0313,19.5781 Q101.6875,19.5781 101,20.6563 Q100.3125,21.7188 100.3125,23.8125 Q100.3125,25.9063 101,26.9844 Q101.6875,28.0469 103.0313,28.0469 Q103.6563,28.0469 104.25,27.7813 Q104.8438,27.5 105.4688,26.9219 L105.4688,29.6406 Z "/><text fill="#000000" font-family="sans-serif" font-size="12" lengthAdjust="spacingAndGlyphs" textLength="96" x="116.5" y="28.1543">MonoBehaviour</text><line style="stroke: #A80036; stroke-width: 1.5;" x1="88.5" x2="214.5" y1="40" y2="40"/><line style="stroke: #A80036; stroke-width: 1.5;" x1="88.5" x2="214.5" y1="48" y2="48"/><!--MD5=[694f20c2e96cf2e3ef99d3f752738316]
class AnimController--><rect fill="#FEFECE" filter="url(#fbg12mtt0y59o)" height="48" id="AnimController" style="stroke: #A80036; stroke-width: 1.5;" width="123" x="15" y="250"/><ellipse cx="30" cy="266" fill="#ADD1B2" rx="11" ry="11" style="stroke: #A80036; stroke-width: 1.0;"/><path d="M32.9688,271.6406 Q32.3906,271.9375 31.75,272.0781 Q31.1094,272.2344 30.4063,272.2344 Q27.9063,272.2344 26.5781,270.5938 Q25.2656,268.9375 25.2656,265.8125 Q25.2656,262.6875 26.5781,261.0313 Q27.9063,259.375 30.4063,259.375 Q31.1094,259.375 31.75,259.5313 Q32.4063,259.6875 32.9688,259.9844 L32.9688,262.7031 Q32.3438,262.125 31.75,261.8594 Q31.1563,261.5781 30.5313,261.5781 Q29.1875,261.5781 28.5,262.6563 Q27.8125,263.7188 27.8125,265.8125 Q27.8125,267.9063 28.5,268.9844 Q29.1875,270.0469 30.5313,270.0469 Q31.1563,270.0469 31.75,269.7813 Q32.3438,269.5 32.9688,268.9219 L32.9688,271.6406 Z "/><text fill="#000000" font-family="sans-serif" font-size="12" lengthAdjust="spacingAndGlyphs" textLength="91" x="44" y="270.1543">AnimController</text><line style="stroke: #A80036; stroke-width: 1.5;" x1="16" x2="137" y1="282" y2="282"/><line style="stroke: #A80036; stroke-width: 1.5;" x1="16" x2="137" y1="290" y2="290"/><!--MD5=[064f7a74fee85463ec1a30143664ee17]
class GameObject--><rect fill="#FEFECE" filter="url(#fbg12mtt0y59o)" height="48" id="GameObject" style="stroke: #A80036; stroke-width: 1.5;" width="108" x="173.5" y="250"/><ellipse cx="188.5" cy="266" fill="#ADD1B2" rx="11" ry="11" style="stroke: #A80036; stroke-width: 1.0;"/><path d="M191.4688,271.6406 Q190.8906,271.9375 190.25,272.0781 Q189.6094,272.2344 188.9063,272.2344 Q186.4063,272.2344 185.0781,270.5938 Q183.7656,268.9375 183.7656,265.8125 Q183.7656,262.6875 185.0781,261.0313 Q186.4063,259.375 188.9063,259.375 Q189.6094,259.375 190.25,259.5313 Q190.9063,259.6875 191.4688,259.9844 L191.4688,262.7031 Q190.8438,262.125 190.25,261.8594 Q189.6563,261.5781 189.0313,261.5781 Q187.6875,261.5781 187,262.6563 Q186.3125,263.7188 186.3125,265.8125 Q186.3125,267.9063 187,268.9844 Q187.6875,270.0469 189.0313,270.0469 Q189.6563,270.0469 190.25,269.7813 Q190.8438,269.5 191.4688,268.9219 L191.4688,271.6406 Z "/><text fill="#000000" font-family="sans-serif" font-size="12" lengthAdjust="spacingAndGlyphs" textLength="76" x="202.5" y="270.1543">GameObject</text><line style="stroke: #A80036; stroke-width: 1.5;" x1="174.5" x2="280.5" y1="282" y2="282"/><line style="stroke: #A80036; stroke-width: 1.5;" x1="174.5" x2="280.5" y1="290" y2="290"/><!--MD5=[dbc5636416e2f13ea1352c46ac88670b]
reverse link MonoBehaviour to CapsuleController--><path d="M151.5,76.43 C151.5,89.33 151.5,103.32 151.5,115.71 " fill="none" id="MonoBehaviour&lt;-CapsuleController" style="stroke: #A80036; stroke-width: 1.0;"/><polygon fill="none" points="144.5,76.23,151.5,56.23,158.5,76.23,144.5,76.23" style="stroke: #A80036; stroke-width: 1.0;"/><!--MD5=[5fa63c43a79b8197f1b9ec6f1e1474e9]
link CapsuleController to AnimController--><path d="M128.79,190.03 C117.6,207.79 104.32,228.87 93.94,245.33 " fill="none" id="CapsuleController-&gt;AnimController" style="stroke: #A80036; stroke-width: 1.0;"/><polygon fill="#A80036" points="91.09,249.85,99.2653,244.3578,93.7503,245.6164,92.4916,240.1014,91.09,249.85" style="stroke: #A80036; stroke-width: 1.0;"/><text fill="#000000" font-family="sans-serif" font-size="13" lengthAdjust="spacingAndGlyphs" textLength="58" x="29.3974" y="238.8236">animator</text><!--MD5=[46ea917e224e9f3a1a6081ccceab4319]
link CapsuleController to GameObject--><path d="M174.51,190.03 C185.85,207.79 199.31,228.87 209.83,245.33 " fill="none" id="CapsuleController-&gt;GameObject" style="stroke: #A80036; stroke-width: 1.0;"/><polygon fill="#A80036" points="212.72,249.85,211.2329,240.1141,210.0227,245.6399,204.4968,244.4297,212.72,249.85" style="stroke: #A80036; stroke-width: 1.0;"/><text fill="#000000" font-family="sans-serif" font-size="13" lengthAdjust="spacingAndGlyphs" textLength="82" x="142.66" y="238.9653">awakeSpawn</text><!--MD5=[afe2a9eda265e42c7609d2be06a9cdb9]
@startuml
class CapsuleController {
    + asleep : bool = false
    Wait(time:float, other:GameObject) : IEnumerator
}
MonoBehaviour <|- - CapsuleController
CapsuleController - -> "animator" AnimController
CapsuleController - -> "awakeSpawn" GameObject
@enduml

PlantUML version 1.2020.02(Sun Mar 01 10:22:07 GMT 2020)
(GPL source distribution)
Java Runtime: OpenJDK Runtime Environment
JVM: OpenJDK 64-Bit Server VM
Java Version: 11.0.9+11-Ubuntu-0ubuntu1
Operating System: Linux
Default Encoding: ANSI_X3.4-1968
Language: en
Country: US
--></g></svg>