<?xml version="1.0" encoding="UTF-8" standalone="no"?><svg xmlns="http://www.w3.org/2000/svg" xmlns:xlink="http://www.w3.org/1999/xlink" contentScriptType="application/ecmascript" contentStyleType="text/css" height="226px" preserveAspectRatio="none" style="width:244px;height:226px;" version="1.1" viewBox="0 0 244 226" width="244px" zoomAndPan="magnify"><defs><filter height="300%" id="f13onbikaipgzl" width="300%" x="-1" y="-1"><feGaussianBlur result="blurOut" stdDeviation="2.0"/><feColorMatrix in="blurOut" result="blurOut2" type="matrix" values="0 0 0 0 0 0 0 0 0 0 0 0 0 0 0 0 0 0 .4 0"/><feOffset dx="4.0" dy="4.0" in="blurOut2" result="blurOut3"/><feBlend in="SourceGraphic" in2="blurOut3" mode="normal"/></filter></defs><g><!--MD5=[cbd83c2d5caeb8760a5dcff5c9df3780]
class CSVWriter--><rect fill="#FEFECE" filter="url(#f13onbikaipgzl)" height="99.2188" id="CSVWriter" style="stroke: #A80036; stroke-width: 1.5;" width="227" x="6" y="116"/><ellipse cx="84.75" cy="132" fill="#ADD1B2" rx="11" ry="11" style="stroke: #A80036; stroke-width: 1.0;"/><path d="M87.7188,137.6406 Q87.1406,137.9375 86.5,138.0781 Q85.8594,138.2344 85.1563,138.2344 Q82.6563,138.2344 81.3281,136.5938 Q80.0156,134.9375 80.0156,131.8125 Q80.0156,128.6875 81.3281,127.0313 Q82.6563,125.375 85.1563,125.375 Q85.8594,125.375 86.5,125.5313 Q87.1563,125.6875 87.7188,125.9844 L87.7188,128.7031 Q87.0938,128.125 86.5,127.8594 Q85.9063,127.5781 85.2813,127.5781 Q83.9375,127.5781 83.25,128.6563 Q82.5625,129.7188 82.5625,131.8125 Q82.5625,133.9063 83.25,134.9844 Q83.9375,136.0469 85.2813,136.0469 Q85.9063,136.0469 86.5,135.7813 Q87.0938,135.5 87.7188,134.9219 L87.7188,137.6406 Z "/><text fill="#000000" font-family="sans-serif" font-size="12" lengthAdjust="spacingAndGlyphs" textLength="61" x="105.25" y="136.1543">CSVWriter</text><line style="stroke: #A80036; stroke-width: 1.5;" x1="7" x2="232" y1="148" y2="148"/><line style="stroke: #A80036; stroke-width: 1.5;" x1="7" x2="232" y1="156" y2="156"/><ellipse cx="17" cy="167" fill="#84BE84" rx="3" ry="3" style="stroke: #038048; stroke-width: 1.0;"/><text fill="#000000" font-family="sans-serif" font-size="11" lengthAdjust="spacingAndGlyphs" textLength="83" x="26" y="170.2104">addFile() : void</text><ellipse cx="17" cy="179.8047" fill="#84BE84" rx="3" ry="3" style="stroke: #038048; stroke-width: 1.0;"/><text fill="#000000" font-family="sans-serif" font-size="11" lengthAdjust="spacingAndGlyphs" textLength="195" x="26" y="183.0151">WriteCSV(path:List&lt;Vector3&gt;) : int</text><ellipse cx="17" cy="192.6094" fill="#84BE84" rx="3" ry="3" style="stroke: #038048; stroke-width: 1.0;"/><text fill="#000000" font-family="sans-serif" font-size="11" lengthAdjust="spacingAndGlyphs" textLength="152" x="26" y="195.8198">DeleteFile(pathID:int) : void</text><text fill="#000000" font-family="sans-serif" font-size="11" lengthAdjust="spacingAndGlyphs" textLength="201" x="26" y="208.6245">RefreshEditorProjectWindow() : void</text><!--MD5=[83b3cf3d23d77c6f1e1b5291a241bc2a]
class MonoBehaviour--><rect fill="#FEFECE" filter="url(#f13onbikaipgzl)" height="48" id="MonoBehaviour" style="stroke: #A80036; stroke-width: 1.5;" width="128" x="55.5" y="8"/><ellipse cx="70.5" cy="24" fill="#ADD1B2" rx="11" ry="11" style="stroke: #A80036; stroke-width: 1.0;"/><path d="M73.4688,29.6406 Q72.8906,29.9375 72.25,30.0781 Q71.6094,30.2344 70.9063,30.2344 Q68.4063,30.2344 67.0781,28.5938 Q65.7656,26.9375 65.7656,23.8125 Q65.7656,20.6875 67.0781,19.0313 Q68.4063,17.375 70.9063,17.375 Q71.6094,17.375 72.25,17.5313 Q72.9063,17.6875 73.4688,17.9844 L73.4688,20.7031 Q72.8438,20.125 72.25,19.8594 Q71.6563,19.5781 71.0313,19.5781 Q69.6875,19.5781 69,20.6563 Q68.3125,21.7188 68.3125,23.8125 Q68.3125,25.9063 69,26.9844 Q69.6875,28.0469 71.0313,28.0469 Q71.6563,28.0469 72.25,27.7813 Q72.8438,27.5 73.4688,26.9219 L73.4688,29.6406 Z "/><text fill="#000000" font-family="sans-serif" font-size="12" lengthAdjust="spacingAndGlyphs" textLength="96" x="84.5" y="28.1543">MonoBehaviour</text><line style="stroke: #A80036; stroke-width: 1.5;" x1="56.5" x2="182.5" y1="40" y2="40"/><line style="stroke: #A80036; stroke-width: 1.5;" x1="56.5" x2="182.5" y1="48" y2="48"/><!--MD5=[b3b25e07e8b0c2646b89b0dbae5895d0]
reverse link MonoBehaviour to CSVWriter--><path d="M119.5,76.51 C119.5,89.14 119.5,103.01 119.5,115.93 " fill="none" id="MonoBehaviour&lt;-CSVWriter" style="stroke: #A80036; stroke-width: 1.0;"/><polygon fill="none" points="112.5,76.21,119.5,56.21,126.5,76.21,112.5,76.21" style="stroke: #A80036; stroke-width: 1.0;"/><!--MD5=[0e11e586601cc344b28cc1ee96246058]
@startuml
class CSVWriter {
    + addFile() : void
    + WriteCSV(path:List<Vector3>) : int
    + DeleteFile(pathID:int) : void
    RefreshEditorProjectWindow() : void
}
MonoBehaviour <|- - CSVWriter
@enduml

PlantUML version 1.2020.02(Sun Mar 01 10:22:07 GMT 2020)
(GPL source distribution)
Java Runtime: OpenJDK Runtime Environment
JVM: OpenJDK 64-Bit Server VM
Java Version: 11.0.9+11-Ubuntu-0ubuntu1
Operating System: Linux
Default Encoding: ANSI_X3.4-1968
Language: en
Country: US
--></g></svg>