<?xml version="1.0" encoding="UTF-8" standalone="no"?><svg xmlns="http://www.w3.org/2000/svg" xmlns:xlink="http://www.w3.org/1999/xlink" contentScriptType="application/ecmascript" contentStyleType="text/css" height="328px" preserveAspectRatio="none" style="width:425px;height:328px;" version="1.1" viewBox="0 0 425 328" width="425px" zoomAndPan="magnify"><defs><filter height="300%" id="feuilw0d29a" width="300%" x="-1" y="-1"><feGaussianBlur result="blurOut" stdDeviation="2.0"/><feColorMatrix in="blurOut" result="blurOut2" type="matrix" values="0 0 0 0 0 0 0 0 0 0 0 0 0 0 0 0 0 0 .4 0"/><feOffset dx="4.0" dy="4.0" in="blurOut2" result="blurOut3"/><feBlend in="SourceGraphic" in2="blurOut3" mode="normal"/></filter></defs><g><!--MD5=[86d1fb58f4dfc98362518a97d842616b]
class DatabaseController--><rect fill="#FEFECE" filter="url(#feuilw0d29a)" height="112.0234" id="DatabaseController" style="stroke: #A80036; stroke-width: 1.5;" width="269" x="6" y="161"/><ellipse cx="75.25" cy="177" fill="#ADD1B2" rx="11" ry="11" style="stroke: #A80036; stroke-width: 1.0;"/><path d="M78.2188,182.6406 Q77.6406,182.9375 77,183.0781 Q76.3594,183.2344 75.6563,183.2344 Q73.1563,183.2344 71.8281,181.5938 Q70.5156,179.9375 70.5156,176.8125 Q70.5156,173.6875 71.8281,172.0313 Q73.1563,170.375 75.6563,170.375 Q76.3594,170.375 77,170.5313 Q77.6563,170.6875 78.2188,170.9844 L78.2188,173.7031 Q77.5938,173.125 77,172.8594 Q76.4063,172.5781 75.7813,172.5781 Q74.4375,172.5781 73.75,173.6563 Q73.0625,174.7188 73.0625,176.8125 Q73.0625,178.9063 73.75,179.9844 Q74.4375,181.0469 75.7813,181.0469 Q76.4063,181.0469 77,180.7813 Q77.5938,180.5 78.2188,179.9219 L78.2188,182.6406 Z "/><text fill="#000000" font-family="sans-serif" font-size="12" lengthAdjust="spacingAndGlyphs" textLength="122" x="95.75" y="181.1543">DatabaseController</text><line style="stroke: #A80036; stroke-width: 1.5;" x1="7" x2="274" y1="193" y2="193"/><line style="stroke: #A80036; stroke-width: 1.5;" x1="7" x2="274" y1="201" y2="201"/><ellipse cx="17" cy="212" fill="#84BE84" rx="3" ry="3" style="stroke: #038048; stroke-width: 1.0;"/><text fill="#000000" font-family="sans-serif" font-size="11" lengthAdjust="spacingAndGlyphs" textLength="71" x="26" y="215.2104">Start() : void</text><ellipse cx="17" cy="224.8047" fill="#84BE84" rx="3" ry="3" style="stroke: #038048; stroke-width: 1.0;"/><text fill="#000000" font-family="sans-serif" font-size="11" lengthAdjust="spacingAndGlyphs" textLength="218" x="26" y="228.0151">sendData(t_cells:List&lt;Vector3&gt;) : void</text><ellipse cx="17" cy="237.6094" fill="#84BE84" rx="3" ry="3" style="stroke: #038048; stroke-width: 1.0;"/><text fill="#000000" font-family="sans-serif" font-size="11" lengthAdjust="spacingAndGlyphs" textLength="129" x="26" y="240.8198">postAfterGame() : void</text><ellipse cx="17" cy="250.4141" fill="#84BE84" rx="3" ry="3" style="stroke: #038048; stroke-width: 1.0;"/><text fill="#000000" font-family="sans-serif" font-size="11" lengthAdjust="spacingAndGlyphs" textLength="243" x="26" y="253.6245">PostMethod(jsonData:string) : IEnumerator</text><text fill="#000000" font-family="sans-serif" font-size="11" lengthAdjust="spacingAndGlyphs" textLength="83" x="26" y="266.4292">GetIP() : string</text><!--MD5=[48e88c162c5505361c629eb6ff3812a8]
class GameState--><rect fill="#FEFECE" filter="url(#feuilw0d29a)" height="201.6563" id="GameState" style="stroke: #A80036; stroke-width: 1.5;" width="104" x="310.5" y="116"/><ellipse cx="326.4" cy="132" fill="#ADD1B2" rx="11" ry="11" style="stroke: #A80036; stroke-width: 1.0;"/><path d="M329.3688,137.6406 Q328.7906,137.9375 328.15,138.0781 Q327.5094,138.2344 326.8063,138.2344 Q324.3063,138.2344 322.9781,136.5938 Q321.6656,134.9375 321.6656,131.8125 Q321.6656,128.6875 322.9781,127.0313 Q324.3063,125.375 326.8063,125.375 Q327.5094,125.375 328.15,125.5313 Q328.8063,125.6875 329.3688,125.9844 L329.3688,128.7031 Q328.7438,128.125 328.15,127.8594 Q327.5563,127.5781 326.9313,127.5781 Q325.5875,127.5781 324.9,128.6563 Q324.2125,129.7188 324.2125,131.8125 Q324.2125,133.9063 324.9,134.9844 Q325.5875,136.0469 326.9313,136.0469 Q327.5563,136.0469 328.15,135.7813 Q328.7438,135.5 329.3688,134.9219 L329.3688,137.6406 Z "/><text fill="#000000" font-family="sans-serif" font-size="12" lengthAdjust="spacingAndGlyphs" textLength="70" x="340.6" y="136.1543">GameState</text><line style="stroke: #A80036; stroke-width: 1.5;" x1="311.5" x2="413.5" y1="148" y2="148"/><ellipse cx="321.5" cy="159" fill="none" rx="3" ry="3" style="stroke: #038048; stroke-width: 1.0;"/><text fill="#000000" font-family="sans-serif" font-size="11" lengthAdjust="spacingAndGlyphs" textLength="55" x="330.5" y="162.2104">ip : string</text><ellipse cx="321.5" cy="171.8047" fill="none" rx="3" ry="3" style="stroke: #038048; stroke-width: 1.0;"/><text fill="#000000" font-family="sans-serif" font-size="11" lengthAdjust="spacingAndGlyphs" textLength="64" x="330.5" y="175.0151">pathNr : int</text><ellipse cx="321.5" cy="184.6094" fill="none" rx="3" ry="3" style="stroke: #038048; stroke-width: 1.0;"/><text fill="#000000" font-family="sans-serif" font-size="11" lengthAdjust="spacingAndGlyphs" textLength="71" x="330.5" y="187.8198">cell1 : string</text><ellipse cx="321.5" cy="197.4141" fill="none" rx="3" ry="3" style="stroke: #038048; stroke-width: 1.0;"/><text fill="#000000" font-family="sans-serif" font-size="11" lengthAdjust="spacingAndGlyphs" textLength="71" x="330.5" y="200.6245">cell2 : string</text><ellipse cx="321.5" cy="210.2188" fill="none" rx="3" ry="3" style="stroke: #038048; stroke-width: 1.0;"/><text fill="#000000" font-family="sans-serif" font-size="11" lengthAdjust="spacingAndGlyphs" textLength="71" x="330.5" y="213.4292">cell3 : string</text><ellipse cx="321.5" cy="223.0234" fill="none" rx="3" ry="3" style="stroke: #038048; stroke-width: 1.0;"/><text fill="#000000" font-family="sans-serif" font-size="11" lengthAdjust="spacingAndGlyphs" textLength="71" x="330.5" y="226.2339">cell4 : string</text><ellipse cx="321.5" cy="235.8281" fill="none" rx="3" ry="3" style="stroke: #038048; stroke-width: 1.0;"/><text fill="#000000" font-family="sans-serif" font-size="11" lengthAdjust="spacingAndGlyphs" textLength="71" x="330.5" y="239.0386">cell5 : string</text><ellipse cx="321.5" cy="248.6328" fill="none" rx="3" ry="3" style="stroke: #038048; stroke-width: 1.0;"/><text fill="#000000" font-family="sans-serif" font-size="11" lengthAdjust="spacingAndGlyphs" textLength="71" x="330.5" y="251.8433">cell6 : string</text><ellipse cx="321.5" cy="261.4375" fill="none" rx="3" ry="3" style="stroke: #038048; stroke-width: 1.0;"/><text fill="#000000" font-family="sans-serif" font-size="11" lengthAdjust="spacingAndGlyphs" textLength="71" x="330.5" y="264.6479">cell7 : string</text><ellipse cx="321.5" cy="274.2422" fill="none" rx="3" ry="3" style="stroke: #038048; stroke-width: 1.0;"/><text fill="#000000" font-family="sans-serif" font-size="11" lengthAdjust="spacingAndGlyphs" textLength="71" x="330.5" y="277.4526">cell8 : string</text><ellipse cx="321.5" cy="287.0469" fill="none" rx="3" ry="3" style="stroke: #038048; stroke-width: 1.0;"/><text fill="#000000" font-family="sans-serif" font-size="11" lengthAdjust="spacingAndGlyphs" textLength="71" x="330.5" y="290.2573">cell9 : string</text><ellipse cx="321.5" cy="299.8516" fill="none" rx="3" ry="3" style="stroke: #038048; stroke-width: 1.0;"/><text fill="#000000" font-family="sans-serif" font-size="11" lengthAdjust="spacingAndGlyphs" textLength="78" x="330.5" y="303.062">cell10 : string</text><line style="stroke: #A80036; stroke-width: 1.5;" x1="311.5" x2="413.5" y1="309.6563" y2="309.6563"/><!--MD5=[83b3cf3d23d77c6f1e1b5291a241bc2a]
class MonoBehaviour--><rect fill="#FEFECE" filter="url(#feuilw0d29a)" height="48" id="MonoBehaviour" style="stroke: #A80036; stroke-width: 1.5;" width="128" x="76.5" y="8"/><ellipse cx="91.5" cy="24" fill="#ADD1B2" rx="11" ry="11" style="stroke: #A80036; stroke-width: 1.0;"/><path d="M94.4688,29.6406 Q93.8906,29.9375 93.25,30.0781 Q92.6094,30.2344 91.9063,30.2344 Q89.4063,30.2344 88.0781,28.5938 Q86.7656,26.9375 86.7656,23.8125 Q86.7656,20.6875 88.0781,19.0313 Q89.4063,17.375 91.9063,17.375 Q92.6094,17.375 93.25,17.5313 Q93.9063,17.6875 94.4688,17.9844 L94.4688,20.7031 Q93.8438,20.125 93.25,19.8594 Q92.6563,19.5781 92.0313,19.5781 Q90.6875,19.5781 90,20.6563 Q89.3125,21.7188 89.3125,23.8125 Q89.3125,25.9063 90,26.9844 Q90.6875,28.0469 92.0313,28.0469 Q92.6563,28.0469 93.25,27.7813 Q93.8438,27.5 94.4688,26.9219 L94.4688,29.6406 Z "/><text fill="#000000" font-family="sans-serif" font-size="12" lengthAdjust="spacingAndGlyphs" textLength="96" x="105.5" y="28.1543">MonoBehaviour</text><line style="stroke: #A80036; stroke-width: 1.5;" x1="77.5" x2="203.5" y1="40" y2="40"/><line style="stroke: #A80036; stroke-width: 1.5;" x1="77.5" x2="203.5" y1="48" y2="48"/><!--MD5=[fd61ebb7f49117e51082e8411b8b4c3b]
reverse link MonoBehaviour to DatabaseController--><path d="M140.5,76.32 C140.5,101.6 140.5,133.74 140.5,160.81 " fill="none" id="MonoBehaviour&lt;-DatabaseController" style="stroke: #A80036; stroke-width: 1.0;"/><polygon fill="none" points="133.5,76.18,140.5,56.18,147.5,76.18,133.5,76.18" style="stroke: #A80036; stroke-width: 1.0;"/><!--MD5=[b664717e44c01657c3bbd2ed854eb40a]
link DatabaseController to GameState--><path d="M287.102,254.6331 C287.102,254.6331 294.7,252.68 297.93,251.65 " fill="none" id="DatabaseController-GameState" style="stroke: #A80036; stroke-width: 1.0;"/><polygon fill="#A80036" points="310.41,247.17,300.5873,246.4533,305.7053,248.8628,303.2958,253.9808,310.41,247.17" style="stroke: #A80036; stroke-width: 1.0;"/><line style="stroke: #A80036; stroke-width: 1.0;" x1="305.7053" x2="298.18" y1="248.8628" y2="251.56"/><polygon fill="#FFFFFF" points="275.35,257.06,282.035,259.7639,287.102,254.6331,280.417,251.9292,275.35,257.06" style="stroke: #A80036; stroke-width: 1.0;"/><text fill="#000000" font-family="sans-serif" font-size="13" lengthAdjust="spacingAndGlyphs" textLength="29" x="273.579" y="247.8866">data</text><!--MD5=[18bc6872c8882837e2f0d9631b4ffdba]
reverse link DatabaseController to GameState--><path d="M290.14,180.09 C296.9,181.87 303.66,184.12 310.41,186.83 " fill="none" id="DatabaseController&lt;-GameState" style="stroke: #A80036; stroke-width: 1.0;"/><ellipse cx="283.1741" cy="178.6084" fill="#FFFFFF" rx="8" ry="8" style="stroke: #A80036; stroke-width: 1.0;"/><line style="stroke: #A80036; stroke-width: 1.0;" x1="290.9982" x2="275.35" y1="180.2769" y2="176.94"/><line style="stroke: #A80036; stroke-width: 1.0;" x1="281.5057" x2="284.8425" y1="186.4325" y2="170.7843"/><!--MD5=[530d2cf5f439402d00589862d248e5c2]
@startuml
class DatabaseController {
    + Start() : void
    + sendData(t_cells:List<Vector3>) : void
    + postAfterGame() : void
    + PostMethod(jsonData:string) : IEnumerator
    GetIP() : string
}
class GameState {
    + ip : string
    + pathNr : int
    + cell1 : string
    + cell2 : string
    + cell3 : string
    + cell4 : string
    + cell5 : string
    + cell6 : string
    + cell7 : string
    + cell8 : string
    + cell9 : string
    + cell10 : string
}
MonoBehaviour <|- - DatabaseController
DatabaseController o-> "data" GameState
DatabaseController +- - GameState
@enduml

PlantUML version 1.2020.02(Sun Mar 01 10:22:07 GMT 2020)
(GPL source distribution)
Java Runtime: OpenJDK Runtime Environment
JVM: OpenJDK 64-Bit Server VM
Java Version: 11.0.9+11-Ubuntu-0ubuntu1
Operating System: Linux
Default Encoding: ANSI_X3.4-1968
Language: en
Country: US
--></g></svg>