<?xml version="1.0" encoding="UTF-8" standalone="no"?><svg xmlns="http://www.w3.org/2000/svg" xmlns:xlink="http://www.w3.org/1999/xlink" contentScriptType="application/ecmascript" contentStyleType="text/css" height="385px" preserveAspectRatio="none" style="width:375px;height:385px;" version="1.1" viewBox="0 0 375 385" width="375px" zoomAndPan="magnify"><defs><filter height="300%" id="ftxjomk9zp9h2" width="300%" x="-1" y="-1"><feGaussianBlur result="blurOut" stdDeviation="2.0"/><feColorMatrix in="blurOut" result="blurOut2" type="matrix" values="0 0 0 0 0 0 0 0 0 0 0 0 0 0 0 0 0 0 .4 0"/><feOffset dx="4.0" dy="4.0" in="blurOut2" result="blurOut3"/><feBlend in="SourceGraphic" in2="blurOut3" mode="normal"/></filter></defs><g><!--MD5=[f1c4a9b2655093cb52415d758d41b054]
class PlantState--><rect fill="#FEFECE" filter="url(#ftxjomk9zp9h2)" height="112.0234" id="PlantState" style="stroke: #A80036; stroke-width: 1.5;" width="98" x="6" y="262"/><ellipse cx="21" cy="278" fill="#EB937F" rx="11" ry="11" style="stroke: #A80036; stroke-width: 1.0;"/><path d="M25.1094,284 L17.3906,284 L17.3906,271.6094 L25.1094,271.6094 L25.1094,273.7656 L19.8438,273.7656 L19.8438,276.4375 L24.6094,276.4375 L24.6094,278.5938 L19.8438,278.5938 L19.8438,281.8438 L25.1094,281.8438 L25.1094,284 Z "/><text fill="#000000" font-family="sans-serif" font-size="12" lengthAdjust="spacingAndGlyphs" textLength="66" x="35" y="282.1543">PlantState</text><line style="stroke: #A80036; stroke-width: 1.5;" x1="7" x2="103" y1="294" y2="294"/><text fill="#000000" font-family="sans-serif" font-size="11" lengthAdjust="spacingAndGlyphs" textLength="51" x="12" y="308.2104">Bare= 0,</text><text fill="#000000" font-family="sans-serif" font-size="11" lengthAdjust="spacingAndGlyphs" textLength="53" x="12" y="321.0151">Seed= 1,</text><text fill="#000000" font-family="sans-serif" font-size="11" lengthAdjust="spacingAndGlyphs" textLength="71" x="12" y="333.8198">Growing= 2,</text><text fill="#000000" font-family="sans-serif" font-size="11" lengthAdjust="spacingAndGlyphs" textLength="61" x="12" y="346.6245">Grown= 3,</text><text fill="#000000" font-family="sans-serif" font-size="11" lengthAdjust="spacingAndGlyphs" textLength="49" x="12" y="359.4292">Fruit= 4,</text><line style="stroke: #A80036; stroke-width: 1.5;" x1="7" x2="103" y1="366.0234" y2="366.0234"/><!--MD5=[a320a48ad0710d284b277fdd5e5f3178]
class FarmScript--><rect fill="#FEFECE" filter="url(#ftxjomk9zp9h2)" height="86.4141" id="FarmScript" style="stroke: #A80036; stroke-width: 1.5;" width="251" x="67.5" y="116"/><ellipse cx="155.25" cy="132" fill="#ADD1B2" rx="11" ry="11" style="stroke: #A80036; stroke-width: 1.0;"/><path d="M158.2188,137.6406 Q157.6406,137.9375 157,138.0781 Q156.3594,138.2344 155.6563,138.2344 Q153.1563,138.2344 151.8281,136.5938 Q150.5156,134.9375 150.5156,131.8125 Q150.5156,128.6875 151.8281,127.0313 Q153.1563,125.375 155.6563,125.375 Q156.3594,125.375 157,125.5313 Q157.6563,125.6875 158.2188,125.9844 L158.2188,128.7031 Q157.5938,128.125 157,127.8594 Q156.4063,127.5781 155.7813,127.5781 Q154.4375,127.5781 153.75,128.6563 Q153.0625,129.7188 153.0625,131.8125 Q153.0625,133.9063 153.75,134.9844 Q154.4375,136.0469 155.7813,136.0469 Q156.4063,136.0469 157,135.7813 Q157.5938,135.5 158.2188,134.9219 L158.2188,137.6406 Z "/><text fill="#000000" font-family="sans-serif" font-size="12" lengthAdjust="spacingAndGlyphs" textLength="67" x="175.75" y="136.1543">FarmScript</text><line style="stroke: #A80036; stroke-width: 1.5;" x1="68.5" x2="317.5" y1="148" y2="148"/><line style="stroke: #A80036; stroke-width: 1.5;" x1="68.5" x2="317.5" y1="156" y2="156"/><ellipse cx="78.5" cy="167" fill="#84BE84" rx="3" ry="3" style="stroke: #038048; stroke-width: 1.0;"/><text fill="#000000" font-family="sans-serif" font-size="11" lengthAdjust="spacingAndGlyphs" textLength="219" x="87.5" y="170.2104">plantSeeds(t_plant:GameObject) : void</text><ellipse cx="78.5" cy="179.8047" fill="#84BE84" rx="3" ry="3" style="stroke: #038048; stroke-width: 1.0;"/><text fill="#000000" font-family="sans-serif" font-size="11" lengthAdjust="spacingAndGlyphs" textLength="225" x="87.5" y="183.0151">setFruitType(t_plant:GameObject) : void</text><ellipse cx="78.5" cy="192.6094" fill="#84BE84" rx="3" ry="3" style="stroke: #038048; stroke-width: 1.0;"/><text fill="#000000" font-family="sans-serif" font-size="11" lengthAdjust="spacingAndGlyphs" textLength="120" x="87.5" y="195.8198">makeWatered() : void</text><!--MD5=[83b3cf3d23d77c6f1e1b5291a241bc2a]
class MonoBehaviour--><rect fill="#FEFECE" filter="url(#ftxjomk9zp9h2)" height="48" id="MonoBehaviour" style="stroke: #A80036; stroke-width: 1.5;" width="128" x="129" y="8"/><ellipse cx="144" cy="24" fill="#ADD1B2" rx="11" ry="11" style="stroke: #A80036; stroke-width: 1.0;"/><path d="M146.9688,29.6406 Q146.3906,29.9375 145.75,30.0781 Q145.1094,30.2344 144.4063,30.2344 Q141.9063,30.2344 140.5781,28.5938 Q139.2656,26.9375 139.2656,23.8125 Q139.2656,20.6875 140.5781,19.0313 Q141.9063,17.375 144.4063,17.375 Q145.1094,17.375 145.75,17.5313 Q146.4063,17.6875 146.9688,17.9844 L146.9688,20.7031 Q146.3438,20.125 145.75,19.8594 Q145.1563,19.5781 144.5313,19.5781 Q143.1875,19.5781 142.5,20.6563 Q141.8125,21.7188 141.8125,23.8125 Q141.8125,25.9063 142.5,26.9844 Q143.1875,28.0469 144.5313,28.0469 Q145.1563,28.0469 145.75,27.7813 Q146.3438,27.5 146.9688,26.9219 L146.9688,29.6406 Z "/><text fill="#000000" font-family="sans-serif" font-size="12" lengthAdjust="spacingAndGlyphs" textLength="96" x="158" y="28.1543">MonoBehaviour</text><line style="stroke: #A80036; stroke-width: 1.5;" x1="130" x2="256" y1="40" y2="40"/><line style="stroke: #A80036; stroke-width: 1.5;" x1="130" x2="256" y1="48" y2="48"/><!--MD5=[064f7a74fee85463ec1a30143664ee17]
class GameObject--><rect fill="#FEFECE" filter="url(#ftxjomk9zp9h2)" height="48" id="GameObject" style="stroke: #A80036; stroke-width: 1.5;" width="108" x="139" y="294"/><ellipse cx="154" cy="310" fill="#ADD1B2" rx="11" ry="11" style="stroke: #A80036; stroke-width: 1.0;"/><path d="M156.9688,315.6406 Q156.3906,315.9375 155.75,316.0781 Q155.1094,316.2344 154.4063,316.2344 Q151.9063,316.2344 150.5781,314.5938 Q149.2656,312.9375 149.2656,309.8125 Q149.2656,306.6875 150.5781,305.0313 Q151.9063,303.375 154.4063,303.375 Q155.1094,303.375 155.75,303.5313 Q156.4063,303.6875 156.9688,303.9844 L156.9688,306.7031 Q156.3438,306.125 155.75,305.8594 Q155.1563,305.5781 154.5313,305.5781 Q153.1875,305.5781 152.5,306.6563 Q151.8125,307.7188 151.8125,309.8125 Q151.8125,311.9063 152.5,312.9844 Q153.1875,314.0469 154.5313,314.0469 Q155.1563,314.0469 155.75,313.7813 Q156.3438,313.5 156.9688,312.9219 L156.9688,315.6406 Z "/><text fill="#000000" font-family="sans-serif" font-size="12" lengthAdjust="spacingAndGlyphs" textLength="76" x="168" y="314.1543">GameObject</text><line style="stroke: #A80036; stroke-width: 1.5;" x1="140" x2="246" y1="326" y2="326"/><line style="stroke: #A80036; stroke-width: 1.5;" x1="140" x2="246" y1="334" y2="334"/><!--MD5=[90d32ccc189f11441a6ce7cbb63ad387]
class Material--><rect fill="#FEFECE" filter="url(#ftxjomk9zp9h2)" height="48" id="Material" style="stroke: #A80036; stroke-width: 1.5;" width="82" x="282" y="294"/><ellipse cx="297" cy="310" fill="#ADD1B2" rx="11" ry="11" style="stroke: #A80036; stroke-width: 1.0;"/><path d="M299.9688,315.6406 Q299.3906,315.9375 298.75,316.0781 Q298.1094,316.2344 297.4063,316.2344 Q294.9063,316.2344 293.5781,314.5938 Q292.2656,312.9375 292.2656,309.8125 Q292.2656,306.6875 293.5781,305.0313 Q294.9063,303.375 297.4063,303.375 Q298.1094,303.375 298.75,303.5313 Q299.4063,303.6875 299.9688,303.9844 L299.9688,306.7031 Q299.3438,306.125 298.75,305.8594 Q298.1563,305.5781 297.5313,305.5781 Q296.1875,305.5781 295.5,306.6563 Q294.8125,307.7188 294.8125,309.8125 Q294.8125,311.9063 295.5,312.9844 Q296.1875,314.0469 297.5313,314.0469 Q298.1563,314.0469 298.75,313.7813 Q299.3438,313.5 299.9688,312.9219 L299.9688,315.6406 Z "/><text fill="#000000" font-family="sans-serif" font-size="12" lengthAdjust="spacingAndGlyphs" textLength="50" x="311" y="314.1543">Material</text><line style="stroke: #A80036; stroke-width: 1.5;" x1="283" x2="363" y1="326" y2="326"/><line style="stroke: #A80036; stroke-width: 1.5;" x1="283" x2="363" y1="334" y2="334"/><!--MD5=[7eaf8e1f18b36a755c658c9a61e6ee43]
reverse link MonoBehaviour to FarmScript--><path d="M193,76.27 C193,89.12 193,103.17 193,115.94 " fill="none" id="MonoBehaviour&lt;-FarmScript" style="stroke: #A80036; stroke-width: 1.0;"/><polygon fill="none" points="186,76.22,193,56.22,200,76.22,186,76.22" style="stroke: #A80036; stroke-width: 1.0;"/><!--MD5=[1323ecf7ef8c6d6ad4f239b80dbaaa01]
link FarmScript to GameObject--><path d="M181.56,202.07 C179.43,229.55 179.9,264.67 182.94,288.82 " fill="none" id="FarmScript-&gt;GameObject" style="stroke: #A80036; stroke-width: 1.0;"/><polygon fill="#A80036" points="183.63,293.8,186.3591,284.3368,182.9449,288.8472,178.4345,285.433,183.63,293.8" style="stroke: #A80036; stroke-width: 1.0;"/><text fill="#000000" font-family="sans-serif" font-size="13" lengthAdjust="spacingAndGlyphs" textLength="38" x="138.3602" y="282.7608">seeds</text><!--MD5=[1323ecf7ef8c6d6ad4f239b80dbaaa01]
link FarmScript to GameObject--><path d="M205.11,202.07 C207.36,229.55 206.87,264.67 203.65,288.82 " fill="none" id="FarmScript-&gt;GameObject-1" style="stroke: #A80036; stroke-width: 1.0;"/><polygon fill="#A80036" points="202.92,293.8,208.1661,285.4646,203.6351,288.8514,200.2483,284.3204,202.92,293.8" style="stroke: #A80036; stroke-width: 1.0;"/><text fill="#000000" font-family="sans-serif" font-size="13" lengthAdjust="spacingAndGlyphs" textLength="81" x="215.8401" y="282.7608">growingPlant</text><!--MD5=[ded6237c1648ddec2e0b4f885efefc63]
link FarmScript to Material--><path d="M216.4,202.07 C237.37,230.01 267.56,265.85 290.76,290.02 " fill="none" id="FarmScript-&gt;Material" style="stroke: #A80036; stroke-width: 1.0;"/><polygon fill="#A80036" points="294.42,293.8,291.0332,284.5518,290.9419,290.2079,285.2858,290.1167,294.42,293.8" style="stroke: #A80036; stroke-width: 1.0;"/><text fill="#000000" font-family="sans-serif" font-size="13" lengthAdjust="spacingAndGlyphs" textLength="44" x="292.7339" y="282.7608">dryMat</text><!--MD5=[ded6237c1648ddec2e0b4f885efefc63]
link FarmScript to Material--><path d="M239.95,202.07 C265.16,229.78 294.02,265.26 310.73,289.42 " fill="none" id="FarmScript-&gt;Material-1" style="stroke: #A80036; stroke-width: 1.0;"/><polygon fill="#A80036" points="313.7,293.8,311.9359,284.1104,310.8838,289.6686,305.3256,288.6164,313.7,293.8" style="stroke: #A80036; stroke-width: 1.0;"/><text fill="#000000" font-family="sans-serif" font-size="13" lengthAdjust="spacingAndGlyphs" textLength="46" x="317.2106" y="282.7608">wetMat</text><!--MD5=[d3af6a60dae51c0fce40c4e37e939ab0]
link FarmScript to PlantState--><path d="M156.02,202.07 C141.03,219.13 123.44,239.14 107.18,257.63 " fill="none" id="FarmScript-&gt;PlantState" style="stroke: #A80036; stroke-width: 1.0;"/><polygon fill="#A80036" points="103.52,261.8,112.4646,257.6776,106.8196,258.0433,106.4539,252.3983,103.52,261.8" style="stroke: #A80036; stroke-width: 1.0;"/><text fill="#000000" font-family="sans-serif" font-size="13" lengthAdjust="spacingAndGlyphs" textLength="67" x="38.3506" y="251.1101">plantState</text><!--MD5=[ebfbb36adca69df8fa74bae4ac26a18b]
@startuml
enum PlantState {
    Bare= 0,
    Seed= 1,
    Growing= 2,
    Grown= 3,
    Fruit= 4,
}
class FarmScript {
    + plantSeeds(t_plant:GameObject) : void
    + setFruitType(t_plant:GameObject) : void
    + makeWatered() : void
}
MonoBehaviour <|- - FarmScript
FarmScript - -> "seeds" GameObject
FarmScript - -> "growingPlant" GameObject
FarmScript - -> "dryMat" Material
FarmScript - -> "wetMat" Material
FarmScript - -> "plantState" PlantState
@enduml

PlantUML version 1.2020.02(Sun Mar 01 10:22:07 GMT 2020)
(GPL source distribution)
Java Runtime: OpenJDK Runtime Environment
JVM: OpenJDK 64-Bit Server VM
Java Version: 11.0.9+11-Ubuntu-0ubuntu1
Operating System: Linux
Default Encoding: ANSI_X3.4-1968
Language: en
Country: US
--></g></svg>