<?xml version="1.0" encoding="UTF-8" standalone="no"?><svg xmlns="http://www.w3.org/2000/svg" xmlns:xlink="http://www.w3.org/1999/xlink" contentScriptType="application/ecmascript" contentStyleType="text/css" height="334px" preserveAspectRatio="none" style="width:263px;height:334px;" version="1.1" viewBox="0 0 263 334" width="263px" zoomAndPan="magnify"><defs><filter height="300%" id="frx7mp2eugd7v" width="300%" x="-1" y="-1"><feGaussianBlur result="blurOut" stdDeviation="2.0"/><feColorMatrix in="blurOut" result="blurOut2" type="matrix" values="0 0 0 0 0 0 0 0 0 0 0 0 0 0 0 0 0 0 .4 0"/><feOffset dx="4.0" dy="4.0" in="blurOut2" result="blurOut3"/><feBlend in="SourceGraphic" in2="blurOut3" mode="normal"/></filter></defs><g><!--MD5=[b798c12f33b60826c34a714cace78870]
class FireBulletOnActivate--><rect fill="#FEFECE" filter="url(#frx7mp2eugd7v)" height="99.2188" id="FireBulletOnActivate" style="stroke: #A80036; stroke-width: 1.5;" width="246" x="6" y="116"/><ellipse cx="62.25" cy="132" fill="#ADD1B2" rx="11" ry="11" style="stroke: #A80036; stroke-width: 1.0;"/><path d="M65.2188,137.6406 Q64.6406,137.9375 64,138.0781 Q63.3594,138.2344 62.6563,138.2344 Q60.1563,138.2344 58.8281,136.5938 Q57.5156,134.9375 57.5156,131.8125 Q57.5156,128.6875 58.8281,127.0313 Q60.1563,125.375 62.6563,125.375 Q63.3594,125.375 64,125.5313 Q64.6563,125.6875 65.2188,125.9844 L65.2188,128.7031 Q64.5938,128.125 64,127.8594 Q63.4063,127.5781 62.7813,127.5781 Q61.4375,127.5781 60.75,128.6563 Q60.0625,129.7188 60.0625,131.8125 Q60.0625,133.9063 60.75,134.9844 Q61.4375,136.0469 62.7813,136.0469 Q63.4063,136.0469 64,135.7813 Q64.5938,135.5 65.2188,134.9219 L65.2188,137.6406 Z "/><text fill="#000000" font-family="sans-serif" font-size="12" lengthAdjust="spacingAndGlyphs" textLength="125" x="82.75" y="136.1543">FireBulletOnActivate</text><line style="stroke: #A80036; stroke-width: 1.5;" x1="7" x2="251" y1="148" y2="148"/><ellipse cx="17" cy="159" fill="none" rx="3" ry="3" style="stroke: #038048; stroke-width: 1.0;"/><text fill="#000000" font-family="sans-serif" font-size="11" lengthAdjust="spacingAndGlyphs" textLength="123" x="26" y="162.2104">fireSpeed : float = 20</text><line style="stroke: #A80036; stroke-width: 1.5;" x1="7" x2="251" y1="168.8047" y2="168.8047"/><text fill="#000000" font-family="sans-serif" font-size="11" lengthAdjust="spacingAndGlyphs" textLength="71" x="26" y="183.0151">Start() : void</text><text fill="#000000" font-family="sans-serif" font-size="11" lengthAdjust="spacingAndGlyphs" textLength="83" x="26" y="195.8198">Update() : void</text><ellipse cx="17" cy="205.4141" fill="#84BE84" rx="3" ry="3" style="stroke: #038048; stroke-width: 1.0;"/><text fill="#000000" font-family="sans-serif" font-size="11" lengthAdjust="spacingAndGlyphs" textLength="220" x="26" y="208.6245">FireBullet(arg:ActivateEventArgs) : void</text><!--MD5=[83b3cf3d23d77c6f1e1b5291a241bc2a]
class MonoBehaviour--><rect fill="#FEFECE" filter="url(#frx7mp2eugd7v)" height="48" id="MonoBehaviour" style="stroke: #A80036; stroke-width: 1.5;" width="128" x="65" y="8"/><ellipse cx="80" cy="24" fill="#ADD1B2" rx="11" ry="11" style="stroke: #A80036; stroke-width: 1.0;"/><path d="M82.9688,29.6406 Q82.3906,29.9375 81.75,30.0781 Q81.1094,30.2344 80.4063,30.2344 Q77.9063,30.2344 76.5781,28.5938 Q75.2656,26.9375 75.2656,23.8125 Q75.2656,20.6875 76.5781,19.0313 Q77.9063,17.375 80.4063,17.375 Q81.1094,17.375 81.75,17.5313 Q82.4063,17.6875 82.9688,17.9844 L82.9688,20.7031 Q82.3438,20.125 81.75,19.8594 Q81.1563,19.5781 80.5313,19.5781 Q79.1875,19.5781 78.5,20.6563 Q77.8125,21.7188 77.8125,23.8125 Q77.8125,25.9063 78.5,26.9844 Q79.1875,28.0469 80.5313,28.0469 Q81.1563,28.0469 81.75,27.7813 Q82.3438,27.5 82.9688,26.9219 L82.9688,29.6406 Z "/><text fill="#000000" font-family="sans-serif" font-size="12" lengthAdjust="spacingAndGlyphs" textLength="96" x="94" y="28.1543">MonoBehaviour</text><line style="stroke: #A80036; stroke-width: 1.5;" x1="66" x2="192" y1="40" y2="40"/><line style="stroke: #A80036; stroke-width: 1.5;" x1="66" x2="192" y1="48" y2="48"/><!--MD5=[064f7a74fee85463ec1a30143664ee17]
class GameObject--><rect fill="#FEFECE" filter="url(#frx7mp2eugd7v)" height="48" id="GameObject" style="stroke: #A80036; stroke-width: 1.5;" width="108" x="7" y="275"/><ellipse cx="22" cy="291" fill="#ADD1B2" rx="11" ry="11" style="stroke: #A80036; stroke-width: 1.0;"/><path d="M24.9688,296.6406 Q24.3906,296.9375 23.75,297.0781 Q23.1094,297.2344 22.4063,297.2344 Q19.9063,297.2344 18.5781,295.5938 Q17.2656,293.9375 17.2656,290.8125 Q17.2656,287.6875 18.5781,286.0313 Q19.9063,284.375 22.4063,284.375 Q23.1094,284.375 23.75,284.5313 Q24.4063,284.6875 24.9688,284.9844 L24.9688,287.7031 Q24.3438,287.125 23.75,286.8594 Q23.1563,286.5781 22.5313,286.5781 Q21.1875,286.5781 20.5,287.6563 Q19.8125,288.7188 19.8125,290.8125 Q19.8125,292.9063 20.5,293.9844 Q21.1875,295.0469 22.5313,295.0469 Q23.1563,295.0469 23.75,294.7813 Q24.3438,294.5 24.9688,293.9219 L24.9688,296.6406 Z "/><text fill="#000000" font-family="sans-serif" font-size="12" lengthAdjust="spacingAndGlyphs" textLength="76" x="36" y="295.1543">GameObject</text><line style="stroke: #A80036; stroke-width: 1.5;" x1="8" x2="114" y1="307" y2="307"/><line style="stroke: #A80036; stroke-width: 1.5;" x1="8" x2="114" y1="315" y2="315"/><!--MD5=[004b1d6c4ca8aad4ba8b586a335ed4f3]
class Transform--><rect fill="#FEFECE" filter="url(#frx7mp2eugd7v)" height="48" id="Transform" style="stroke: #A80036; stroke-width: 1.5;" width="95" x="150.5" y="275"/><ellipse cx="165.5" cy="291" fill="#ADD1B2" rx="11" ry="11" style="stroke: #A80036; stroke-width: 1.0;"/><path d="M168.4688,296.6406 Q167.8906,296.9375 167.25,297.0781 Q166.6094,297.2344 165.9063,297.2344 Q163.4063,297.2344 162.0781,295.5938 Q160.7656,293.9375 160.7656,290.8125 Q160.7656,287.6875 162.0781,286.0313 Q163.4063,284.375 165.9063,284.375 Q166.6094,284.375 167.25,284.5313 Q167.9063,284.6875 168.4688,284.9844 L168.4688,287.7031 Q167.8438,287.125 167.25,286.8594 Q166.6563,286.5781 166.0313,286.5781 Q164.6875,286.5781 164,287.6563 Q163.3125,288.7188 163.3125,290.8125 Q163.3125,292.9063 164,293.9844 Q164.6875,295.0469 166.0313,295.0469 Q166.6563,295.0469 167.25,294.7813 Q167.8438,294.5 168.4688,293.9219 L168.4688,296.6406 Z "/><text fill="#000000" font-family="sans-serif" font-size="12" lengthAdjust="spacingAndGlyphs" textLength="63" x="179.5" y="295.1543">Transform</text><line style="stroke: #A80036; stroke-width: 1.5;" x1="151.5" x2="244.5" y1="307" y2="307"/><line style="stroke: #A80036; stroke-width: 1.5;" x1="151.5" x2="244.5" y1="315" y2="315"/><!--MD5=[058ac62cbe9fe244bb2ed212d01880d9]
reverse link MonoBehaviour to FireBulletOnActivate--><path d="M129,76.51 C129,89.14 129,103.01 129,115.93 " fill="none" id="MonoBehaviour&lt;-FireBulletOnActivate" style="stroke: #A80036; stroke-width: 1.0;"/><polygon fill="none" points="122,76.21,129,56.21,136,76.21,122,76.21" style="stroke: #A80036; stroke-width: 1.0;"/><!--MD5=[f9ec6365d1f4d286119e96641142a736]
link FireBulletOnActivate to GameObject--><path d="M103.87,215.09 C94.27,233.66 83.66,254.18 75.39,270.17 " fill="none" id="FireBulletOnActivate-&gt;GameObject" style="stroke: #A80036; stroke-width: 1.0;"/><polygon fill="#A80036" points="72.91,274.98,80.5998,268.8264,75.2087,270.5397,73.4954,265.1486,72.91,274.98" style="stroke: #A80036; stroke-width: 1.0;"/><text fill="#000000" font-family="sans-serif" font-size="13" lengthAdjust="spacingAndGlyphs" textLength="35" x="36.4776" y="263.9869">bullet</text><!--MD5=[9df30c3c10f964dacdbcd43ca0631cf2]
link FireBulletOnActivate to Transform--><path d="M154.5,215.09 C164.24,233.66 175.01,254.18 183.4,270.17 " fill="none" id="FireBulletOnActivate-&gt;Transform" style="stroke: #A80036; stroke-width: 1.0;"/><polygon fill="#A80036" points="185.92,274.98,185.2967,265.1509,183.6042,270.5486,178.2065,268.8561,185.92,274.98" style="stroke: #A80036; stroke-width: 1.0;"/><text fill="#000000" font-family="sans-serif" font-size="13" lengthAdjust="spacingAndGlyphs" textLength="72" x="117.6181" y="263.9239">spawnPoint</text><!--MD5=[0dbb9bcdb369e4b02252f7197e1ae621]
@startuml
class FireBulletOnActivate {
    + fireSpeed : float = 20
    Start() : void
    Update() : void
    + FireBullet(arg:ActivateEventArgs) : void
}
MonoBehaviour <|- - FireBulletOnActivate
FireBulletOnActivate - -> "bullet" GameObject
FireBulletOnActivate - -> "spawnPoint" Transform
@enduml

PlantUML version 1.2020.02(Sun Mar 01 10:22:07 GMT 2020)
(GPL source distribution)
Java Runtime: OpenJDK Runtime Environment
JVM: OpenJDK 64-Bit Server VM
Java Version: 11.0.9+11-Ubuntu-0ubuntu1
Operating System: Linux
Default Encoding: ANSI_X3.4-1968
Language: en
Country: US
--></g></svg>