<?xml version="1.0" encoding="UTF-8" standalone="no"?><svg xmlns="http://www.w3.org/2000/svg" xmlns:xlink="http://www.w3.org/1999/xlink" contentScriptType="application/ecmascript" contentStyleType="text/css" height="398px" preserveAspectRatio="none" style="width:239px;height:398px;" version="1.1" viewBox="0 0 239 398" width="239px" zoomAndPan="magnify"><defs><filter height="300%" id="f7o8se19czhh3" width="300%" x="-1" y="-1"><feGaussianBlur result="blurOut" stdDeviation="2.0"/><feColorMatrix in="blurOut" result="blurOut2" type="matrix" values="0 0 0 0 0 0 0 0 0 0 0 0 0 0 0 0 0 0 .4 0"/><feOffset dx="4.0" dy="4.0" in="blurOut2" result="blurOut3"/><feBlend in="SourceGraphic" in2="blurOut3" mode="normal"/></filter></defs><g><!--MD5=[ebecb9917226677787fac7e9a2731304]
class GameManager--><rect fill="#FEFECE" filter="url(#f7o8se19czhh3)" height="163.2422" id="GameManager" style="stroke: #A80036; stroke-width: 1.5;" width="222" x="6" y="116"/><ellipse cx="67.25" cy="132" fill="#ADD1B2" rx="11" ry="11" style="stroke: #A80036; stroke-width: 1.0;"/><path d="M70.2188,137.6406 Q69.6406,137.9375 69,138.0781 Q68.3594,138.2344 67.6563,138.2344 Q65.1563,138.2344 63.8281,136.5938 Q62.5156,134.9375 62.5156,131.8125 Q62.5156,128.6875 63.8281,127.0313 Q65.1563,125.375 67.6563,125.375 Q68.3594,125.375 69,125.5313 Q69.6563,125.6875 70.2188,125.9844 L70.2188,128.7031 Q69.5938,128.125 69,127.8594 Q68.4063,127.5781 67.7813,127.5781 Q66.4375,127.5781 65.75,128.6563 Q65.0625,129.7188 65.0625,131.8125 Q65.0625,133.9063 65.75,134.9844 Q66.4375,136.0469 67.7813,136.0469 Q68.4063,136.0469 69,135.7813 Q69.5938,135.5 70.2188,134.9219 L70.2188,137.6406 Z "/><text fill="#000000" font-family="sans-serif" font-size="12" lengthAdjust="spacingAndGlyphs" textLength="91" x="87.75" y="136.1543">GameManager</text><line style="stroke: #A80036; stroke-width: 1.5;" x1="7" x2="227" y1="148" y2="148"/><ellipse cx="17" cy="159" fill="none" rx="3" ry="3" style="stroke: #038048; stroke-width: 1.0;"/><text fill="#000000" font-family="sans-serif" font-size="11" lengthAdjust="spacingAndGlyphs" textLength="119" x="26" y="162.2104">asleep : bool = false</text><ellipse cx="17" cy="171.8047" fill="none" rx="3" ry="3" style="stroke: #038048; stroke-width: 1.0;"/><text fill="#000000" font-family="sans-serif" font-size="11" lengthAdjust="spacingAndGlyphs" textLength="134" x="26" y="175.0151">shopOpen : bool = true</text><line style="stroke: #A80036; stroke-width: 1.5;" x1="7" x2="227" y1="181.6094" y2="181.6094"/><text fill="#000000" font-family="sans-serif" font-size="11" lengthAdjust="spacingAndGlyphs" textLength="71" x="26" y="195.8198">Start() : void</text><ellipse cx="17" cy="205.4141" fill="#84BE84" rx="3" ry="3" style="stroke: #038048; stroke-width: 1.0;"/><text fill="#000000" font-family="sans-serif" font-size="11" lengthAdjust="spacingAndGlyphs" textLength="196" x="26" y="208.6245">UpdateMoney(newMoney:int) : void</text><ellipse cx="17" cy="218.2188" fill="#84BE84" rx="3" ry="3" style="stroke: #038048; stroke-width: 1.0;"/><text fill="#000000" font-family="sans-serif" font-size="11" lengthAdjust="spacingAndGlyphs" textLength="189" x="26" y="221.4292">MinusMoney(newMoney:int) : void</text><ellipse cx="17" cy="231.0234" fill="#84BE84" rx="3" ry="3" style="stroke: #038048; stroke-width: 1.0;"/><text fill="#000000" font-family="sans-serif" font-size="11" lengthAdjust="spacingAndGlyphs" textLength="90" x="26" y="234.2339">GetMoney() : int</text><ellipse cx="17" cy="243.8281" fill="#84BE84" rx="3" ry="3" style="stroke: #038048; stroke-width: 1.0;"/><text fill="#000000" font-family="sans-serif" font-size="11" lengthAdjust="spacingAndGlyphs" textLength="154" x="26" y="247.0386">EnterMap(enter:bool) : void</text><ellipse cx="17" cy="256.6328" fill="#84BE84" rx="3" ry="3" style="stroke: #038048; stroke-width: 1.0;"/><text fill="#000000" font-family="sans-serif" font-size="11" lengthAdjust="spacingAndGlyphs" textLength="87" x="26" y="259.8433">IsInMap() : bool</text><text fill="#000000" font-family="sans-serif" font-size="11" lengthAdjust="spacingAndGlyphs" textLength="145" x="26" y="272.6479">birdTimer() : IEnumerator</text><!--MD5=[83b3cf3d23d77c6f1e1b5291a241bc2a]
class MonoBehaviour--><rect fill="#FEFECE" filter="url(#f7o8se19czhh3)" height="48" id="MonoBehaviour" style="stroke: #A80036; stroke-width: 1.5;" width="128" x="53" y="8"/><ellipse cx="68" cy="24" fill="#ADD1B2" rx="11" ry="11" style="stroke: #A80036; stroke-width: 1.0;"/><path d="M70.9688,29.6406 Q70.3906,29.9375 69.75,30.0781 Q69.1094,30.2344 68.4063,30.2344 Q65.9063,30.2344 64.5781,28.5938 Q63.2656,26.9375 63.2656,23.8125 Q63.2656,20.6875 64.5781,19.0313 Q65.9063,17.375 68.4063,17.375 Q69.1094,17.375 69.75,17.5313 Q70.4063,17.6875 70.9688,17.9844 L70.9688,20.7031 Q70.3438,20.125 69.75,19.8594 Q69.1563,19.5781 68.5313,19.5781 Q67.1875,19.5781 66.5,20.6563 Q65.8125,21.7188 65.8125,23.8125 Q65.8125,25.9063 66.5,26.9844 Q67.1875,28.0469 68.5313,28.0469 Q69.1563,28.0469 69.75,27.7813 Q70.3438,27.5 70.9688,26.9219 L70.9688,29.6406 Z "/><text fill="#000000" font-family="sans-serif" font-size="12" lengthAdjust="spacingAndGlyphs" textLength="96" x="82" y="28.1543">MonoBehaviour</text><line style="stroke: #A80036; stroke-width: 1.5;" x1="54" x2="180" y1="40" y2="40"/><line style="stroke: #A80036; stroke-width: 1.5;" x1="54" x2="180" y1="48" y2="48"/><!--MD5=[064f7a74fee85463ec1a30143664ee17]
class GameObject--><rect fill="#FEFECE" filter="url(#f7o8se19czhh3)" height="48" id="GameObject" style="stroke: #A80036; stroke-width: 1.5;" width="108" x="63" y="339"/><ellipse cx="78" cy="355" fill="#ADD1B2" rx="11" ry="11" style="stroke: #A80036; stroke-width: 1.0;"/><path d="M80.9688,360.6406 Q80.3906,360.9375 79.75,361.0781 Q79.1094,361.2344 78.4063,361.2344 Q75.9063,361.2344 74.5781,359.5938 Q73.2656,357.9375 73.2656,354.8125 Q73.2656,351.6875 74.5781,350.0313 Q75.9063,348.375 78.4063,348.375 Q79.1094,348.375 79.75,348.5313 Q80.4063,348.6875 80.9688,348.9844 L80.9688,351.7031 Q80.3438,351.125 79.75,350.8594 Q79.1563,350.5781 78.5313,350.5781 Q77.1875,350.5781 76.5,351.6563 Q75.8125,352.7188 75.8125,354.8125 Q75.8125,356.9063 76.5,357.9844 Q77.1875,359.0469 78.5313,359.0469 Q79.1563,359.0469 79.75,358.7813 Q80.3438,358.5 80.9688,357.9219 L80.9688,360.6406 Z "/><text fill="#000000" font-family="sans-serif" font-size="12" lengthAdjust="spacingAndGlyphs" textLength="76" x="92" y="359.1543">GameObject</text><line style="stroke: #A80036; stroke-width: 1.5;" x1="64" x2="170" y1="371" y2="371"/><line style="stroke: #A80036; stroke-width: 1.5;" x1="64" x2="170" y1="379" y2="379"/><!--MD5=[a9a66cb43602841ef5fceda6a294e12b]
reverse link MonoBehaviour to GameManager--><path d="M117,76.19 C117,88.45 117,102.21 117,115.93 " fill="none" id="MonoBehaviour&lt;-GameManager" style="stroke: #A80036; stroke-width: 1.0;"/><polygon fill="none" points="110,76.08,117,56.08,124,76.08,110,76.08" style="stroke: #A80036; stroke-width: 1.0;"/><!--MD5=[ac1cb5df2a4fe12d1626af9e624de5d3]
link GameManager to GameObject--><path d="M117,279.29 C117,298.78 117,318.34 117,333.55 " fill="none" id="GameManager-&gt;GameObject" style="stroke: #A80036; stroke-width: 1.0;"/><polygon fill="#A80036" points="117,338.94,121,329.94,117,333.94,113,329.94,117,338.94" style="stroke: #A80036; stroke-width: 1.0;"/><text fill="#000000" font-family="sans-serif" font-size="13" lengthAdjust="spacingAndGlyphs" textLength="39" x="73.0031" y="327.9367">player</text><!--MD5=[fcea0f7f8c6c33c99e79db7c6e951980]
@startuml
class GameManager {
    + asleep : bool = false
    + shopOpen : bool = true
    Start() : void
    + UpdateMoney(newMoney:int) : void
    + MinusMoney(newMoney:int) : void
    + GetMoney() : int
    + EnterMap(enter:bool) : void
    + IsInMap() : bool
    birdTimer() : IEnumerator
}
MonoBehaviour <|- - GameManager
GameManager - -> "player" GameObject
@enduml

PlantUML version 1.2020.02(Sun Mar 01 10:22:07 GMT 2020)
(GPL source distribution)
Java Runtime: OpenJDK Runtime Environment
JVM: OpenJDK 64-Bit Server VM
Java Version: 11.0.9+11-Ubuntu-0ubuntu1
Operating System: Linux
Default Encoding: ANSI_X3.4-1968
Language: en
Country: US
--></g></svg>