<?xml version="1.0" encoding="UTF-8" standalone="no"?><svg xmlns="http://www.w3.org/2000/svg" xmlns:xlink="http://www.w3.org/1999/xlink" contentScriptType="application/ecmascript" contentStyleType="text/css" height="283px" preserveAspectRatio="none" style="width:284px;height:283px;" version="1.1" viewBox="0 0 284 283" width="284px" zoomAndPan="magnify"><defs><filter height="300%" id="f1lfubgs78rlmf" width="300%" x="-1" y="-1"><feGaussianBlur result="blurOut" stdDeviation="2.0"/><feColorMatrix in="blurOut" result="blurOut2" type="matrix" values="0 0 0 0 0 0 0 0 0 0 0 0 0 0 0 0 0 0 .4 0"/><feOffset dx="4.0" dy="4.0" in="blurOut2" result="blurOut3"/><feBlend in="SourceGraphic" in2="blurOut3" mode="normal"/></filter></defs><g><!--MD5=[d050873beb27f98123bbf629592f51ae]
class HoeScript--><rect fill="#FEFECE" filter="url(#f1lfubgs78rlmf)" height="48" id="HoeScript" style="stroke: #A80036; stroke-width: 1.5;" width="93" x="42.27" y="116"/><ellipse cx="57.27" cy="132" fill="#ADD1B2" rx="11" ry="11" style="stroke: #A80036; stroke-width: 1.0;"/><path d="M60.2387,137.6406 Q59.6606,137.9375 59.02,138.0781 Q58.3794,138.2344 57.6762,138.2344 Q55.1762,138.2344 53.8481,136.5938 Q52.5356,134.9375 52.5356,131.8125 Q52.5356,128.6875 53.8481,127.0313 Q55.1762,125.375 57.6762,125.375 Q58.3794,125.375 59.02,125.5313 Q59.6762,125.6875 60.2387,125.9844 L60.2387,128.7031 Q59.6137,128.125 59.02,127.8594 Q58.4262,127.5781 57.8012,127.5781 Q56.4575,127.5781 55.77,128.6563 Q55.0825,129.7188 55.0825,131.8125 Q55.0825,133.9063 55.77,134.9844 Q56.4575,136.0469 57.8012,136.0469 Q58.4262,136.0469 59.02,135.7813 Q59.6137,135.5 60.2387,134.9219 L60.2387,137.6406 Z "/><text fill="#000000" font-family="sans-serif" font-size="12" lengthAdjust="spacingAndGlyphs" textLength="61" x="71.27" y="136.1543">HoeScript</text><line style="stroke: #A80036; stroke-width: 1.5;" x1="43.27" x2="134.27" y1="148" y2="148"/><line style="stroke: #A80036; stroke-width: 1.5;" x1="43.27" x2="134.27" y1="156" y2="156"/><!--MD5=[83b3cf3d23d77c6f1e1b5291a241bc2a]
class MonoBehaviour--><rect fill="#FEFECE" filter="url(#f1lfubgs78rlmf)" height="48" id="MonoBehaviour" style="stroke: #A80036; stroke-width: 1.5;" width="128" x="24.77" y="8"/><ellipse cx="39.77" cy="24" fill="#ADD1B2" rx="11" ry="11" style="stroke: #A80036; stroke-width: 1.0;"/><path d="M42.7387,29.6406 Q42.1606,29.9375 41.52,30.0781 Q40.8794,30.2344 40.1762,30.2344 Q37.6762,30.2344 36.3481,28.5938 Q35.0356,26.9375 35.0356,23.8125 Q35.0356,20.6875 36.3481,19.0313 Q37.6762,17.375 40.1762,17.375 Q40.8794,17.375 41.52,17.5313 Q42.1762,17.6875 42.7387,17.9844 L42.7387,20.7031 Q42.1137,20.125 41.52,19.8594 Q40.9262,19.5781 40.3012,19.5781 Q38.9575,19.5781 38.27,20.6563 Q37.5825,21.7188 37.5825,23.8125 Q37.5825,25.9063 38.27,26.9844 Q38.9575,28.0469 40.3012,28.0469 Q40.9262,28.0469 41.52,27.7813 Q42.1137,27.5 42.7387,26.9219 L42.7387,29.6406 Z "/><text fill="#000000" font-family="sans-serif" font-size="12" lengthAdjust="spacingAndGlyphs" textLength="96" x="53.77" y="28.1543">MonoBehaviour</text><line style="stroke: #A80036; stroke-width: 1.5;" x1="25.77" x2="151.77" y1="40" y2="40"/><line style="stroke: #A80036; stroke-width: 1.5;" x1="25.77" x2="151.77" y1="48" y2="48"/><!--MD5=[064f7a74fee85463ec1a30143664ee17]
class GameObject--><rect fill="#FEFECE" filter="url(#f1lfubgs78rlmf)" height="48" id="GameObject" style="stroke: #A80036; stroke-width: 1.5;" width="108" x="34.77" y="224"/><ellipse cx="49.77" cy="240" fill="#ADD1B2" rx="11" ry="11" style="stroke: #A80036; stroke-width: 1.0;"/><path d="M52.7387,245.6406 Q52.1606,245.9375 51.52,246.0781 Q50.8794,246.2344 50.1762,246.2344 Q47.6762,246.2344 46.3481,244.5938 Q45.0356,242.9375 45.0356,239.8125 Q45.0356,236.6875 46.3481,235.0313 Q47.6762,233.375 50.1762,233.375 Q50.8794,233.375 51.52,233.5313 Q52.1762,233.6875 52.7387,233.9844 L52.7387,236.7031 Q52.1137,236.125 51.52,235.8594 Q50.9262,235.5781 50.3012,235.5781 Q48.9575,235.5781 48.27,236.6563 Q47.5825,237.7188 47.5825,239.8125 Q47.5825,241.9063 48.27,242.9844 Q48.9575,244.0469 50.3012,244.0469 Q50.9262,244.0469 51.52,243.7813 Q52.1137,243.5 52.7387,242.9219 L52.7387,245.6406 Z "/><text fill="#000000" font-family="sans-serif" font-size="12" lengthAdjust="spacingAndGlyphs" textLength="76" x="63.77" y="244.1543">GameObject</text><line style="stroke: #A80036; stroke-width: 1.5;" x1="35.77" x2="141.77" y1="256" y2="256"/><line style="stroke: #A80036; stroke-width: 1.5;" x1="35.77" x2="141.77" y1="264" y2="264"/><!--MD5=[004b1d6c4ca8aad4ba8b586a335ed4f3]
class Transform--><rect fill="#FEFECE" filter="url(#f1lfubgs78rlmf)" height="48" id="Transform" style="stroke: #A80036; stroke-width: 1.5;" width="95" x="178.27" y="224"/><ellipse cx="193.27" cy="240" fill="#ADD1B2" rx="11" ry="11" style="stroke: #A80036; stroke-width: 1.0;"/><path d="M196.2388,245.6406 Q195.6606,245.9375 195.02,246.0781 Q194.3794,246.2344 193.6763,246.2344 Q191.1763,246.2344 189.8481,244.5938 Q188.5356,242.9375 188.5356,239.8125 Q188.5356,236.6875 189.8481,235.0313 Q191.1763,233.375 193.6763,233.375 Q194.3794,233.375 195.02,233.5313 Q195.6763,233.6875 196.2388,233.9844 L196.2388,236.7031 Q195.6138,236.125 195.02,235.8594 Q194.4263,235.5781 193.8013,235.5781 Q192.4575,235.5781 191.77,236.6563 Q191.0825,237.7188 191.0825,239.8125 Q191.0825,241.9063 191.77,242.9844 Q192.4575,244.0469 193.8013,244.0469 Q194.4263,244.0469 195.02,243.7813 Q195.6138,243.5 196.2388,242.9219 L196.2388,245.6406 Z "/><text fill="#000000" font-family="sans-serif" font-size="12" lengthAdjust="spacingAndGlyphs" textLength="63" x="207.27" y="244.1543">Transform</text><line style="stroke: #A80036; stroke-width: 1.5;" x1="179.27" x2="272.27" y1="256" y2="256"/><line style="stroke: #A80036; stroke-width: 1.5;" x1="179.27" x2="272.27" y1="264" y2="264"/><!--MD5=[ac233aa84ae1c8e147ef07229e502f7e]
reverse link MonoBehaviour to HoeScript--><path d="M88.77,76.02 C88.77,89.58 88.77,104.04 88.77,115.68 " fill="none" id="MonoBehaviour&lt;-HoeScript" style="stroke: #A80036; stroke-width: 1.0;"/><polygon fill="none" points="81.77,76,88.77,56,95.77,76,81.77,76" style="stroke: #A80036; stroke-width: 1.0;"/><!--MD5=[52e258fcc0c0f3a54364639949cc4cdf]
link HoeScript to GameObject--><path d="M78.05,164 C75.62,180 75.38,201.45 77.32,218.53 " fill="none" id="HoeScript-&gt;GameObject" style="stroke: #A80036; stroke-width: 1.0;"/><polygon fill="#A80036" points="78,223.68,80.7861,214.2334,77.3448,218.7231,72.8551,215.2818,78,223.68" style="stroke: #A80036; stroke-width: 1.0;"/><text fill="#000000" font-family="sans-serif" font-size="13" lengthAdjust="spacingAndGlyphs" textLength="57" x="11.4279" y="213.007">dirtPatch</text><!--MD5=[52e258fcc0c0f3a54364639949cc4cdf]
link HoeScript to GameObject--><path d="M100.13,164 C102.71,180 102.96,201.45 100.9,218.53 " fill="none" id="HoeScript-&gt;GameObject-1" style="stroke: #A80036; stroke-width: 1.0;"/><polygon fill="#A80036" points="100.18,223.68,105.3788,215.315,100.8671,218.7274,97.4547,214.2157,100.18,223.68" style="stroke: #A80036; stroke-width: 1.0;"/><text fill="#000000" font-family="sans-serif" font-size="13" lengthAdjust="spacingAndGlyphs" textLength="30" x="106.6174" y="213.007">farm</text><!--MD5=[7b23bc8e8b3a5bc8cc8c18dfc769fb7f]
link HoeScript to Transform--><path d="M118.5,164 C139.99,180.62 169.06,203.12 191.52,220.5 " fill="none" id="HoeScript-&gt;Transform" style="stroke: #A80036; stroke-width: 1.0;"/><polygon fill="#A80036" points="195.63,223.68,190.9533,215.0123,191.6733,220.6232,186.0624,221.3431,195.63,223.68" style="stroke: #A80036; stroke-width: 1.0;"/><text fill="#000000" font-family="sans-serif" font-size="13" lengthAdjust="spacingAndGlyphs" textLength="16" x="170.3334" y="213.007">tip</text><!--MD5=[60aeb1cec278572d4cc9b226f6628daa]
@startuml
class HoeScript {
}
MonoBehaviour <|- - HoeScript
HoeScript - -> "dirtPatch" GameObject
HoeScript - -> "tip" Transform
HoeScript - -> "farm" GameObject
@enduml

PlantUML version 1.2020.02(Sun Mar 01 10:22:07 GMT 2020)
(GPL source distribution)
Java Runtime: OpenJDK Runtime Environment
JVM: OpenJDK 64-Bit Server VM
Java Version: 11.0.9+11-Ubuntu-0ubuntu1
Operating System: Linux
Default Encoding: ANSI_X3.4-1968
Language: en
Country: US
--></g></svg>