<?xml version="1.0" encoding="UTF-8" standalone="no"?><svg xmlns="http://www.w3.org/2000/svg" xmlns:xlink="http://www.w3.org/1999/xlink" contentScriptType="application/ecmascript" contentStyleType="text/css" height="296px" preserveAspectRatio="none" style="width:327px;height:296px;" version="1.1" viewBox="0 0 327 296" width="327px" zoomAndPan="magnify"><defs><filter height="300%" id="f1qgztnu8017f5" width="300%" x="-1" y="-1"><feGaussianBlur result="blurOut" stdDeviation="2.0"/><feColorMatrix in="blurOut" result="blurOut2" type="matrix" values="0 0 0 0 0 0 0 0 0 0 0 0 0 0 0 0 0 0 .4 0"/><feOffset dx="4.0" dy="4.0" in="blurOut2" result="blurOut3"/><feBlend in="SourceGraphic" in2="blurOut3" mode="normal"/></filter></defs><g><!--MD5=[0afc44e94b2362122eca9a3af9551266]
class InventoryVR--><rect fill="#FEFECE" filter="url(#f1qgztnu8017f5)" height="60.8047" id="InventoryVR" style="stroke: #A80036; stroke-width: 1.5;" width="105" x="198.5" y="116"/><ellipse cx="213.5" cy="132" fill="#ADD1B2" rx="11" ry="11" style="stroke: #A80036; stroke-width: 1.0;"/><path d="M216.4688,137.6406 Q215.8906,137.9375 215.25,138.0781 Q214.6094,138.2344 213.9063,138.2344 Q211.4063,138.2344 210.0781,136.5938 Q208.7656,134.9375 208.7656,131.8125 Q208.7656,128.6875 210.0781,127.0313 Q211.4063,125.375 213.9063,125.375 Q214.6094,125.375 215.25,125.5313 Q215.9063,125.6875 216.4688,125.9844 L216.4688,128.7031 Q215.8438,128.125 215.25,127.8594 Q214.6563,127.5781 214.0313,127.5781 Q212.6875,127.5781 212,128.6563 Q211.3125,129.7188 211.3125,131.8125 Q211.3125,133.9063 212,134.9844 Q212.6875,136.0469 214.0313,136.0469 Q214.6563,136.0469 215.25,135.7813 Q215.8438,135.5 216.4688,134.9219 L216.4688,137.6406 Z "/><text fill="#000000" font-family="sans-serif" font-size="12" lengthAdjust="spacingAndGlyphs" textLength="73" x="227.5" y="136.1543">InventoryVR</text><line style="stroke: #A80036; stroke-width: 1.5;" x1="199.5" x2="302.5" y1="148" y2="148"/><text fill="#000000" font-family="sans-serif" font-size="11" lengthAdjust="spacingAndGlyphs" textLength="80" x="204.5" y="162.2104">UIActive : bool</text><line style="stroke: #A80036; stroke-width: 1.5;" x1="199.5" x2="302.5" y1="168.8047" y2="168.8047"/><!--MD5=[83b3cf3d23d77c6f1e1b5291a241bc2a]
class MonoBehaviour--><rect fill="#FEFECE" filter="url(#f1qgztnu8017f5)" height="48" id="MonoBehaviour" style="stroke: #A80036; stroke-width: 1.5;" width="128" x="187" y="8"/><ellipse cx="202" cy="24" fill="#ADD1B2" rx="11" ry="11" style="stroke: #A80036; stroke-width: 1.0;"/><path d="M204.9688,29.6406 Q204.3906,29.9375 203.75,30.0781 Q203.1094,30.2344 202.4063,30.2344 Q199.9063,30.2344 198.5781,28.5938 Q197.2656,26.9375 197.2656,23.8125 Q197.2656,20.6875 198.5781,19.0313 Q199.9063,17.375 202.4063,17.375 Q203.1094,17.375 203.75,17.5313 Q204.4063,17.6875 204.9688,17.9844 L204.9688,20.7031 Q204.3438,20.125 203.75,19.8594 Q203.1563,19.5781 202.5313,19.5781 Q201.1875,19.5781 200.5,20.6563 Q199.8125,21.7188 199.8125,23.8125 Q199.8125,25.9063 200.5,26.9844 Q201.1875,28.0469 202.5313,28.0469 Q203.1563,28.0469 203.75,27.7813 Q204.3438,27.5 204.9688,26.9219 L204.9688,29.6406 Z "/><text fill="#000000" font-family="sans-serif" font-size="12" lengthAdjust="spacingAndGlyphs" textLength="96" x="216" y="28.1543">MonoBehaviour</text><line style="stroke: #A80036; stroke-width: 1.5;" x1="188" x2="314" y1="40" y2="40"/><line style="stroke: #A80036; stroke-width: 1.5;" x1="188" x2="314" y1="48" y2="48"/><!--MD5=[bd622505b4ad2c89ad2f9c7a1fb5e1ce]
class InputActionProperty--><rect fill="#FEFECE" filter="url(#f1qgztnu8017f5)" height="48" id="InputActionProperty" style="stroke: #A80036; stroke-width: 1.5;" width="156" x="6" y="237"/><ellipse cx="21" cy="253" fill="#ADD1B2" rx="11" ry="11" style="stroke: #A80036; stroke-width: 1.0;"/><path d="M23.9688,258.6406 Q23.3906,258.9375 22.75,259.0781 Q22.1094,259.2344 21.4063,259.2344 Q18.9063,259.2344 17.5781,257.5938 Q16.2656,255.9375 16.2656,252.8125 Q16.2656,249.6875 17.5781,248.0313 Q18.9063,246.375 21.4063,246.375 Q22.1094,246.375 22.75,246.5313 Q23.4063,246.6875 23.9688,246.9844 L23.9688,249.7031 Q23.3438,249.125 22.75,248.8594 Q22.1563,248.5781 21.5313,248.5781 Q20.1875,248.5781 19.5,249.6563 Q18.8125,250.7188 18.8125,252.8125 Q18.8125,254.9063 19.5,255.9844 Q20.1875,257.0469 21.5313,257.0469 Q22.1563,257.0469 22.75,256.7813 Q23.3438,256.5 23.9688,255.9219 L23.9688,258.6406 Z "/><text fill="#000000" font-family="sans-serif" font-size="12" lengthAdjust="spacingAndGlyphs" textLength="124" x="35" y="257.1543">InputActionProperty</text><line style="stroke: #A80036; stroke-width: 1.5;" x1="7" x2="161" y1="269" y2="269"/><line style="stroke: #A80036; stroke-width: 1.5;" x1="7" x2="161" y1="277" y2="277"/><!--MD5=[064f7a74fee85463ec1a30143664ee17]
class GameObject--><rect fill="#FEFECE" filter="url(#f1qgztnu8017f5)" height="48" id="GameObject" style="stroke: #A80036; stroke-width: 1.5;" width="108" x="197" y="237"/><ellipse cx="212" cy="253" fill="#ADD1B2" rx="11" ry="11" style="stroke: #A80036; stroke-width: 1.0;"/><path d="M214.9688,258.6406 Q214.3906,258.9375 213.75,259.0781 Q213.1094,259.2344 212.4063,259.2344 Q209.9063,259.2344 208.5781,257.5938 Q207.2656,255.9375 207.2656,252.8125 Q207.2656,249.6875 208.5781,248.0313 Q209.9063,246.375 212.4063,246.375 Q213.1094,246.375 213.75,246.5313 Q214.4063,246.6875 214.9688,246.9844 L214.9688,249.7031 Q214.3438,249.125 213.75,248.8594 Q213.1563,248.5781 212.5313,248.5781 Q211.1875,248.5781 210.5,249.6563 Q209.8125,250.7188 209.8125,252.8125 Q209.8125,254.9063 210.5,255.9844 Q211.1875,257.0469 212.5313,257.0469 Q213.1563,257.0469 213.75,256.7813 Q214.3438,256.5 214.9688,255.9219 L214.9688,258.6406 Z "/><text fill="#000000" font-family="sans-serif" font-size="12" lengthAdjust="spacingAndGlyphs" textLength="76" x="226" y="257.1543">GameObject</text><line style="stroke: #A80036; stroke-width: 1.5;" x1="198" x2="304" y1="269" y2="269"/><line style="stroke: #A80036; stroke-width: 1.5;" x1="198" x2="304" y1="277" y2="277"/><!--MD5=[a7e25cc42fa2852b41bf9c07eb892133]
reverse link MonoBehaviour to InventoryVR--><path d="M251,76.11 C251,89.31 251,103.54 251,115.65 " fill="none" id="MonoBehaviour&lt;-InventoryVR" style="stroke: #A80036; stroke-width: 1.0;"/><polygon fill="none" points="244,76.04,251,56.04,258,76.04,244,76.04" style="stroke: #A80036; stroke-width: 1.0;"/><!--MD5=[ac3b0c7a9fd61c4615ce08300b2a8a6b]
link InventoryVR to InputActionProperty--><path d="M207.12,177.06 C180.9,194.72 147.9,216.95 122.66,233.95 " fill="none" id="InventoryVR-&gt;InputActionProperty" style="stroke: #A80036; stroke-width: 1.0;"/><polygon fill="#A80036" points="118.37,236.85,128.0693,235.1399,122.517,234.0568,123.6001,228.5046,118.37,236.85" style="stroke: #A80036; stroke-width: 1.0;"/><text fill="#000000" font-family="sans-serif" font-size="13" lengthAdjust="spacingAndGlyphs" textLength="72" x="45.9523" y="225.8236">leftActivate</text><!--MD5=[87461fb868d47af36b6ea6d555faa764]
link InventoryVR to GameObject--><path d="M239.62,177.06 C237.75,193.93 237.79,214.98 239.76,231.65 " fill="none" id="InventoryVR-&gt;GameObject" style="stroke: #A80036; stroke-width: 1.0;"/><polygon fill="#A80036" points="240.43,236.67,243.2126,227.2224,239.7729,231.7134,235.282,228.2737,240.43,236.67" style="stroke: #A80036; stroke-width: 1.0;"/><text fill="#000000" font-family="sans-serif" font-size="13" lengthAdjust="spacingAndGlyphs" textLength="59" x="171.6629" y="225.9945">Inventory</text><!--MD5=[87461fb868d47af36b6ea6d555faa764]
link InventoryVR to GameObject--><path d="M263.05,177.06 C265.03,193.93 264.98,214.98 262.9,231.65 " fill="none" id="InventoryVR-&gt;GameObject-1" style="stroke: #A80036; stroke-width: 1.0;"/><polygon fill="#A80036" points="262.19,236.67,267.4125,228.3198,262.8911,231.7194,259.4915,227.198,262.19,236.67" style="stroke: #A80036; stroke-width: 1.0;"/><text fill="#000000" font-family="sans-serif" font-size="13" lengthAdjust="spacingAndGlyphs" textLength="45" x="270.4019" y="225.9945">Anchor</text><!--MD5=[9c2ccc9e5450e076d21fd33142010af5]
@startuml
class InventoryVR {
    UIActive : bool
}
MonoBehaviour <|- - InventoryVR
InventoryVR - -> "leftActivate" InputActionProperty
InventoryVR - -> "Inventory" GameObject
InventoryVR - -> "Anchor" GameObject
@enduml

PlantUML version 1.2020.02(Sun Mar 01 10:22:07 GMT 2020)
(GPL source distribution)
Java Runtime: OpenJDK Runtime Environment
JVM: OpenJDK 64-Bit Server VM
Java Version: 11.0.9+11-Ubuntu-0ubuntu1
Operating System: Linux
Default Encoding: ANSI_X3.4-1968
Language: en
Country: US
--></g></svg>