<?xml version="1.0" encoding="UTF-8" standalone="no"?><svg xmlns="http://www.w3.org/2000/svg" xmlns:xlink="http://www.w3.org/1999/xlink" contentScriptType="application/ecmascript" contentStyleType="text/css" height="321px" preserveAspectRatio="none" style="width:454px;height:321px;" version="1.1" viewBox="0 0 454 321" width="454px" zoomAndPan="magnify"><defs><filter height="300%" id="f2k0sy8vutvvm" width="300%" x="-1" y="-1"><feGaussianBlur result="blurOut" stdDeviation="2.0"/><feColorMatrix in="blurOut" result="blurOut2" type="matrix" values="0 0 0 0 0 0 0 0 0 0 0 0 0 0 0 0 0 0 .4 0"/><feOffset dx="4.0" dy="4.0" in="blurOut2" result="blurOut3"/><feBlend in="SourceGraphic" in2="blurOut3" mode="normal"/></filter></defs><g><!--MD5=[e99db8583a69d6de74fe7e09e6f6780b]
class LargeItem--><rect fill="#FEFECE" filter="url(#f2k0sy8vutvvm)" height="86.4141" id="LargeItem" style="stroke: #A80036; stroke-width: 1.5;" width="164" x="140.26" y="116"/><ellipse cx="187.01" cy="132" fill="#ADD1B2" rx="11" ry="11" style="stroke: #A80036; stroke-width: 1.0;"/><path d="M189.9788,137.6406 Q189.4006,137.9375 188.76,138.0781 Q188.1194,138.2344 187.4163,138.2344 Q184.9163,138.2344 183.5881,136.5938 Q182.2756,134.9375 182.2756,131.8125 Q182.2756,128.6875 183.5881,127.0313 Q184.9163,125.375 187.4163,125.375 Q188.1194,125.375 188.76,125.5313 Q189.4163,125.6875 189.9788,125.9844 L189.9788,128.7031 Q189.3538,128.125 188.76,127.8594 Q188.1663,127.5781 187.5413,127.5781 Q186.1975,127.5781 185.51,128.6563 Q184.8225,129.7188 184.8225,131.8125 Q184.8225,133.9063 185.51,134.9844 Q186.1975,136.0469 187.5413,136.0469 Q188.1663,136.0469 188.76,135.7813 Q189.3538,135.5 189.9788,134.9219 L189.9788,137.6406 Z "/><text fill="#000000" font-family="sans-serif" font-size="12" lengthAdjust="spacingAndGlyphs" textLength="62" x="207.51" y="136.1543">LargeItem</text><line style="stroke: #A80036; stroke-width: 1.5;" x1="141.26" x2="303.26" y1="148" y2="148"/><ellipse cx="151.26" cy="159" fill="none" rx="3" ry="3" style="stroke: #038048; stroke-width: 1.0;"/><text fill="#000000" font-family="sans-serif" font-size="11" lengthAdjust="spacingAndGlyphs" textLength="113" x="160.26" y="162.2104">inSlot : bool = false</text><ellipse cx="151.26" cy="171.8047" fill="none" rx="3" ry="3" style="stroke: #038048; stroke-width: 1.0;"/><text fill="#000000" font-family="sans-serif" font-size="11" lengthAdjust="spacingAndGlyphs" textLength="116" x="160.26" y="175.0151">isHeld : bool = false</text><ellipse cx="151.26" cy="184.6094" fill="none" rx="3" ry="3" style="stroke: #038048; stroke-width: 1.0;"/><text fill="#000000" font-family="sans-serif" font-size="11" lengthAdjust="spacingAndGlyphs" textLength="138" x="160.26" y="187.8198">targetTime : float = 1.0f</text><line style="stroke: #A80036; stroke-width: 1.5;" x1="141.26" x2="303.26" y1="194.4141" y2="194.4141"/><!--MD5=[83b3cf3d23d77c6f1e1b5291a241bc2a]
class MonoBehaviour--><rect fill="#FEFECE" filter="url(#f2k0sy8vutvvm)" height="48" id="MonoBehaviour" style="stroke: #A80036; stroke-width: 1.5;" width="128" x="158.26" y="8"/><ellipse cx="173.26" cy="24" fill="#ADD1B2" rx="11" ry="11" style="stroke: #A80036; stroke-width: 1.0;"/><path d="M176.2288,29.6406 Q175.6506,29.9375 175.01,30.0781 Q174.3694,30.2344 173.6663,30.2344 Q171.1663,30.2344 169.8381,28.5938 Q168.5256,26.9375 168.5256,23.8125 Q168.5256,20.6875 169.8381,19.0313 Q171.1663,17.375 173.6663,17.375 Q174.3694,17.375 175.01,17.5313 Q175.6663,17.6875 176.2288,17.9844 L176.2288,20.7031 Q175.6038,20.125 175.01,19.8594 Q174.4163,19.5781 173.7913,19.5781 Q172.4475,19.5781 171.76,20.6563 Q171.0725,21.7188 171.0725,23.8125 Q171.0725,25.9063 171.76,26.9844 Q172.4475,28.0469 173.7913,28.0469 Q174.4163,28.0469 175.01,27.7813 Q175.6038,27.5 176.2288,26.9219 L176.2288,29.6406 Z "/><text fill="#000000" font-family="sans-serif" font-size="12" lengthAdjust="spacingAndGlyphs" textLength="96" x="187.26" y="28.1543">MonoBehaviour</text><line style="stroke: #A80036; stroke-width: 1.5;" x1="159.26" x2="285.26" y1="40" y2="40"/><line style="stroke: #A80036; stroke-width: 1.5;" x1="159.26" x2="285.26" y1="48" y2="48"/><!--MD5=[65d619c042c23702cef2ca07d67b1cf6]
class Vector3--><rect fill="#FEFECE" filter="url(#f2k0sy8vutvvm)" height="48" id="Vector3" style="stroke: #A80036; stroke-width: 1.5;" width="81" x="27.76" y="262"/><ellipse cx="42.76" cy="278" fill="#ADD1B2" rx="11" ry="11" style="stroke: #A80036; stroke-width: 1.0;"/><path d="M45.7288,283.6406 Q45.1506,283.9375 44.51,284.0781 Q43.8694,284.2344 43.1663,284.2344 Q40.6663,284.2344 39.3381,282.5938 Q38.0256,280.9375 38.0256,277.8125 Q38.0256,274.6875 39.3381,273.0313 Q40.6663,271.375 43.1663,271.375 Q43.8694,271.375 44.51,271.5313 Q45.1663,271.6875 45.7288,271.9844 L45.7288,274.7031 Q45.1038,274.125 44.51,273.8594 Q43.9163,273.5781 43.2913,273.5781 Q41.9475,273.5781 41.26,274.6563 Q40.5725,275.7188 40.5725,277.8125 Q40.5725,279.9063 41.26,280.9844 Q41.9475,282.0469 43.2913,282.0469 Q43.9163,282.0469 44.51,281.7813 Q45.1038,281.5 45.7288,280.9219 L45.7288,283.6406 Z "/><text fill="#000000" font-family="sans-serif" font-size="12" lengthAdjust="spacingAndGlyphs" textLength="49" x="56.76" y="282.1543">Vector3</text><line style="stroke: #A80036; stroke-width: 1.5;" x1="28.76" x2="107.76" y1="294" y2="294"/><line style="stroke: #A80036; stroke-width: 1.5;" x1="28.76" x2="107.76" y1="302" y2="302"/><!--MD5=[45c6380d22fb72521f5065026b277fb9]
class Slot--><rect fill="#FEFECE" filter="url(#f2k0sy8vutvvm)" height="48" id="Slot" style="stroke: #A80036; stroke-width: 1.5;" width="56" x="339.26" y="135"/><ellipse cx="354.26" cy="151" fill="#ADD1B2" rx="11" ry="11" style="stroke: #A80036; stroke-width: 1.0;"/><path d="M357.2288,156.6406 Q356.6506,156.9375 356.01,157.0781 Q355.3694,157.2344 354.6663,157.2344 Q352.1663,157.2344 350.8381,155.5938 Q349.5256,153.9375 349.5256,150.8125 Q349.5256,147.6875 350.8381,146.0313 Q352.1663,144.375 354.6663,144.375 Q355.3694,144.375 356.01,144.5313 Q356.6663,144.6875 357.2288,144.9844 L357.2288,147.7031 Q356.6038,147.125 356.01,146.8594 Q355.4163,146.5781 354.7913,146.5781 Q353.4475,146.5781 352.76,147.6563 Q352.0725,148.7188 352.0725,150.8125 Q352.0725,152.9063 352.76,153.9844 Q353.4475,155.0469 354.7913,155.0469 Q355.4163,155.0469 356.01,154.7813 Q356.6038,154.5 357.2288,153.9219 L357.2288,156.6406 Z "/><text fill="#000000" font-family="sans-serif" font-size="12" lengthAdjust="spacingAndGlyphs" textLength="24" x="368.26" y="155.1543">Slot</text><line style="stroke: #A80036; stroke-width: 1.5;" x1="340.26" x2="394.26" y1="167" y2="167"/><line style="stroke: #A80036; stroke-width: 1.5;" x1="340.26" x2="394.26" y1="175" y2="175"/><!--MD5=[bd622505b4ad2c89ad2f9c7a1fb5e1ce]
class InputActionProperty--><rect fill="#FEFECE" filter="url(#f2k0sy8vutvvm)" height="48" id="InputActionProperty" style="stroke: #A80036; stroke-width: 1.5;" width="156" x="144.26" y="262"/><ellipse cx="159.26" cy="278" fill="#ADD1B2" rx="11" ry="11" style="stroke: #A80036; stroke-width: 1.0;"/><path d="M162.2288,283.6406 Q161.6506,283.9375 161.01,284.0781 Q160.3694,284.2344 159.6663,284.2344 Q157.1663,284.2344 155.8381,282.5938 Q154.5256,280.9375 154.5256,277.8125 Q154.5256,274.6875 155.8381,273.0313 Q157.1663,271.375 159.6663,271.375 Q160.3694,271.375 161.01,271.5313 Q161.6663,271.6875 162.2288,271.9844 L162.2288,274.7031 Q161.6038,274.125 161.01,273.8594 Q160.4163,273.5781 159.7913,273.5781 Q158.4475,273.5781 157.76,274.6563 Q157.0725,275.7188 157.0725,277.8125 Q157.0725,279.9063 157.76,280.9844 Q158.4475,282.0469 159.7913,282.0469 Q160.4163,282.0469 161.01,281.7813 Q161.6038,281.5 162.2288,280.9219 L162.2288,283.6406 Z "/><text fill="#000000" font-family="sans-serif" font-size="12" lengthAdjust="spacingAndGlyphs" textLength="124" x="173.26" y="282.1543">InputActionProperty</text><line style="stroke: #A80036; stroke-width: 1.5;" x1="145.26" x2="299.26" y1="294" y2="294"/><line style="stroke: #A80036; stroke-width: 1.5;" x1="145.26" x2="299.26" y1="302" y2="302"/><!--MD5=[064f7a74fee85463ec1a30143664ee17]
class GameObject--><rect fill="#FEFECE" filter="url(#f2k0sy8vutvvm)" height="48" id="GameObject" style="stroke: #A80036; stroke-width: 1.5;" width="108" x="335.26" y="262"/><ellipse cx="350.26" cy="278" fill="#ADD1B2" rx="11" ry="11" style="stroke: #A80036; stroke-width: 1.0;"/><path d="M353.2288,283.6406 Q352.6506,283.9375 352.01,284.0781 Q351.3694,284.2344 350.6663,284.2344 Q348.1663,284.2344 346.8381,282.5938 Q345.5256,280.9375 345.5256,277.8125 Q345.5256,274.6875 346.8381,273.0313 Q348.1663,271.375 350.6663,271.375 Q351.3694,271.375 352.01,271.5313 Q352.6663,271.6875 353.2288,271.9844 L353.2288,274.7031 Q352.6038,274.125 352.01,273.8594 Q351.4163,273.5781 350.7913,273.5781 Q349.4475,273.5781 348.76,274.6563 Q348.0725,275.7188 348.0725,277.8125 Q348.0725,279.9063 348.76,280.9844 Q349.4475,282.0469 350.7913,282.0469 Q351.4163,282.0469 352.01,281.7813 Q352.6038,281.5 353.2288,280.9219 L353.2288,283.6406 Z "/><text fill="#000000" font-family="sans-serif" font-size="12" lengthAdjust="spacingAndGlyphs" textLength="76" x="364.26" y="282.1543">GameObject</text><line style="stroke: #A80036; stroke-width: 1.5;" x1="336.26" x2="442.26" y1="294" y2="294"/><line style="stroke: #A80036; stroke-width: 1.5;" x1="336.26" x2="442.26" y1="302" y2="302"/><!--MD5=[6cbd64c62c0626eea8fffabc90cf786e]
reverse link MonoBehaviour to LargeItem--><path d="M222.26,76.27 C222.26,89.12 222.26,103.17 222.26,115.94 " fill="none" id="MonoBehaviour&lt;-LargeItem" style="stroke: #A80036; stroke-width: 1.0;"/><polygon fill="none" points="215.26,76.22,222.26,56.22,229.26,76.22,215.26,76.22" style="stroke: #A80036; stroke-width: 1.0;"/><!--MD5=[eb0acdfeb4e18c7e1129e0cff7f8e76c]
link LargeItem to Vector3--><path d="M170.12,202.32 C147.22,220.91 121.02,242.17 100.93,258.48 " fill="none" id="LargeItem-&gt;Vector3" style="stroke: #A80036; stroke-width: 1.0;"/><polygon fill="#A80036" points="97,261.67,106.5074,259.0991,100.8806,258.517,101.4627,252.8902,97,261.67" style="stroke: #A80036; stroke-width: 1.0;"/><text fill="#000000" font-family="sans-serif" font-size="13" lengthAdjust="spacingAndGlyphs" textLength="76" x="18.7429" y="250.9945">slotRotation</text><!--MD5=[e62fcb037fda0751a3d6138f475ded0d]
link LargeItem to Slot--><path d="M316.39,159 C316.39,159 322.86,159 325.51,159 " fill="none" id="LargeItem-Slot" style="stroke: #A80036; stroke-width: 1.0;"/><polygon fill="#A80036" points="338.77,159,329.77,155,333.77,159,329.77,163,338.77,159" style="stroke: #A80036; stroke-width: 1.0;"/><line style="stroke: #A80036; stroke-width: 1.0;" x1="333.77" x2="325.77" y1="159" y2="159"/><polygon fill="#FFFFFF" points="304.39,159,310.39,163,316.39,159,310.39,155,304.39,159" style="stroke: #A80036; stroke-width: 1.0;"/><text fill="#000000" font-family="sans-serif" font-size="13" lengthAdjust="spacingAndGlyphs" textLength="71" x="261.2174" y="123.686">currentSlot</text><!--MD5=[6d1846835dd091ff28ddcad4b48031c4]
link LargeItem to InputActionProperty--><path d="M222.26,202.32 C222.26,220.14 222.26,240.41 222.26,256.42 " fill="none" id="LargeItem-&gt;InputActionProperty" style="stroke: #A80036; stroke-width: 1.0;"/><polygon fill="#A80036" points="222.26,261.67,226.26,252.67,222.26,256.67,218.26,252.67,222.26,261.67" style="stroke: #A80036; stroke-width: 1.0;"/><text fill="#000000" font-family="sans-serif" font-size="13" lengthAdjust="spacingAndGlyphs" textLength="69" x="144.8506" y="250.9945">rightSelect</text><!--MD5=[003d29c52c01414517e71e32793047d9]
link LargeItem to GameObject--><path d="M278.8,202.32 C303.64,220.91 332.04,242.17 353.83,258.48 " fill="none" id="LargeItem-&gt;GameObject" style="stroke: #A80036; stroke-width: 1.0;"/><polygon fill="#A80036" points="358.09,261.67,353.2753,253.0782,354.0849,258.6768,348.4863,259.4864,358.09,261.67" style="stroke: #A80036; stroke-width: 1.0;"/><text fill="#000000" font-family="sans-serif" font-size="13" lengthAdjust="spacingAndGlyphs" textLength="42" x="303.3736" y="250.9945">parent</text><!--MD5=[7b5338869eecdca7278438b1ddaa79dc]
@startuml
class LargeItem {
    + inSlot : bool = false
    + isHeld : bool = false
    + targetTime : float = 1.0f
}
MonoBehaviour <|- - LargeItem
LargeItem - -> "slotRotation" Vector3
LargeItem o-> "currentSlot" Slot
LargeItem - -> "rightSelect" InputActionProperty
LargeItem - -> "parent" GameObject
@enduml

PlantUML version 1.2020.02(Sun Mar 01 10:22:07 GMT 2020)
(GPL source distribution)
Java Runtime: OpenJDK Runtime Environment
JVM: OpenJDK 64-Bit Server VM
Java Version: 11.0.9+11-Ubuntu-0ubuntu1
Operating System: Linux
Default Encoding: ANSI_X3.4-1968
Language: en
Country: US
--></g></svg>