<?xml version="1.0" encoding="UTF-8" standalone="no"?><svg xmlns="http://www.w3.org/2000/svg" xmlns:xlink="http://www.w3.org/1999/xlink" contentScriptType="application/ecmascript" contentStyleType="text/css" height="334px" preserveAspectRatio="none" style="width:759px;height:334px;" version="1.1" viewBox="0 0 759 334" width="759px" zoomAndPan="magnify"><defs><filter height="300%" id="fhpzcsrhulanc" width="300%" x="-1" y="-1"><feGaussianBlur result="blurOut" stdDeviation="2.0"/><feColorMatrix in="blurOut" result="blurOut2" type="matrix" values="0 0 0 0 0 0 0 0 0 0 0 0 0 0 0 0 0 0 .4 0"/><feOffset dx="4.0" dy="4.0" in="blurOut2" result="blurOut3"/><feBlend in="SourceGraphic" in2="blurOut3" mode="normal"/></filter></defs><g><!--MD5=[462e8a17646bc1bfacebaee0ffbf332e]
class MapEditor--><rect fill="#FEFECE" filter="url(#fhpzcsrhulanc)" height="99.2188" id="MapEditor" style="stroke: #A80036; stroke-width: 1.5;" width="404" x="178.5" y="116"/><ellipse cx="344.75" cy="132" fill="#ADD1B2" rx="11" ry="11" style="stroke: #A80036; stroke-width: 1.0;"/><path d="M347.7188,137.6406 Q347.1406,137.9375 346.5,138.0781 Q345.8594,138.2344 345.1563,138.2344 Q342.6563,138.2344 341.3281,136.5938 Q340.0156,134.9375 340.0156,131.8125 Q340.0156,128.6875 341.3281,127.0313 Q342.6563,125.375 345.1563,125.375 Q345.8594,125.375 346.5,125.5313 Q347.1563,125.6875 347.7188,125.9844 L347.7188,128.7031 Q347.0938,128.125 346.5,127.8594 Q345.9063,127.5781 345.2813,127.5781 Q343.9375,127.5781 343.25,128.6563 Q342.5625,129.7188 342.5625,131.8125 Q342.5625,133.9063 343.25,134.9844 Q343.9375,136.0469 345.2813,136.0469 Q345.9063,136.0469 346.5,135.7813 Q347.0938,135.5 347.7188,134.9219 L347.7188,137.6406 Z "/><text fill="#000000" font-family="sans-serif" font-size="12" lengthAdjust="spacingAndGlyphs" textLength="63" x="365.25" y="136.1543">MapEditor</text><line style="stroke: #A80036; stroke-width: 1.5;" x1="179.5" x2="581.5" y1="148" y2="148"/><line style="stroke: #A80036; stroke-width: 1.5;" x1="179.5" x2="581.5" y1="156" y2="156"/><text fill="#000000" font-family="sans-serif" font-size="11" lengthAdjust="spacingAndGlyphs" textLength="117" x="198.5" y="170.2104">resetColours() : void</text><ellipse cx="189.5" cy="179.8047" fill="#84BE84" rx="3" ry="3" style="stroke: #038048; stroke-width: 1.0;"/><text fill="#000000" font-family="sans-serif" font-size="11" lengthAdjust="spacingAndGlyphs" textLength="151" x="198.5" y="183.0151">Unlock(customID:int) : void</text><ellipse cx="189.5" cy="192.6094" fill="#84BE84" rx="3" ry="3" style="stroke: #038048; stroke-width: 1.0;"/><text fill="#000000" font-family="sans-serif" font-size="11" lengthAdjust="spacingAndGlyphs" textLength="139" x="198.5" y="195.8198">Lock(customID:int) : void</text><ellipse cx="189.5" cy="205.4141" fill="#84BE84" rx="3" ry="3" style="stroke: #038048; stroke-width: 1.0;"/><text fill="#000000" font-family="sans-serif" font-size="11" lengthAdjust="spacingAndGlyphs" textLength="378" x="198.5" y="208.6245">ChooseOption(res:RaycastHit, hitPoint:Vector3, pos:Vector3) : void</text><!--MD5=[83b3cf3d23d77c6f1e1b5291a241bc2a]
class MonoBehaviour--><rect fill="#FEFECE" filter="url(#fhpzcsrhulanc)" height="48" id="MonoBehaviour" style="stroke: #A80036; stroke-width: 1.5;" width="128" x="316.5" y="8"/><ellipse cx="331.5" cy="24" fill="#ADD1B2" rx="11" ry="11" style="stroke: #A80036; stroke-width: 1.0;"/><path d="M334.4688,29.6406 Q333.8906,29.9375 333.25,30.0781 Q332.6094,30.2344 331.9063,30.2344 Q329.4063,30.2344 328.0781,28.5938 Q326.7656,26.9375 326.7656,23.8125 Q326.7656,20.6875 328.0781,19.0313 Q329.4063,17.375 331.9063,17.375 Q332.6094,17.375 333.25,17.5313 Q333.9063,17.6875 334.4688,17.9844 L334.4688,20.7031 Q333.8438,20.125 333.25,19.8594 Q332.6563,19.5781 332.0313,19.5781 Q330.6875,19.5781 330,20.6563 Q329.3125,21.7188 329.3125,23.8125 Q329.3125,25.9063 330,26.9844 Q330.6875,28.0469 332.0313,28.0469 Q332.6563,28.0469 333.25,27.7813 Q333.8438,27.5 334.4688,26.9219 L334.4688,29.6406 Z "/><text fill="#000000" font-family="sans-serif" font-size="12" lengthAdjust="spacingAndGlyphs" textLength="96" x="345.5" y="28.1543">MonoBehaviour</text><line style="stroke: #A80036; stroke-width: 1.5;" x1="317.5" x2="443.5" y1="40" y2="40"/><line style="stroke: #A80036; stroke-width: 1.5;" x1="317.5" x2="443.5" y1="48" y2="48"/><!--MD5=[f16c27fa5b171127a45489b8b1b8e41c]
class XRRayInteractor--><rect fill="#FEFECE" filter="url(#fhpzcsrhulanc)" height="48" id="XRRayInteractor" style="stroke: #A80036; stroke-width: 1.5;" width="131" x="6" y="275"/><ellipse cx="21" cy="291" fill="#ADD1B2" rx="11" ry="11" style="stroke: #A80036; stroke-width: 1.0;"/><path d="M23.9688,296.6406 Q23.3906,296.9375 22.75,297.0781 Q22.1094,297.2344 21.4063,297.2344 Q18.9063,297.2344 17.5781,295.5938 Q16.2656,293.9375 16.2656,290.8125 Q16.2656,287.6875 17.5781,286.0313 Q18.9063,284.375 21.4063,284.375 Q22.1094,284.375 22.75,284.5313 Q23.4063,284.6875 23.9688,284.9844 L23.9688,287.7031 Q23.3438,287.125 22.75,286.8594 Q22.1563,286.5781 21.5313,286.5781 Q20.1875,286.5781 19.5,287.6563 Q18.8125,288.7188 18.8125,290.8125 Q18.8125,292.9063 19.5,293.9844 Q20.1875,295.0469 21.5313,295.0469 Q22.1563,295.0469 22.75,294.7813 Q23.3438,294.5 23.9688,293.9219 L23.9688,296.6406 Z "/><text fill="#000000" font-family="sans-serif" font-size="12" lengthAdjust="spacingAndGlyphs" textLength="99" x="35" y="295.1543">XRRayInteractor</text><line style="stroke: #A80036; stroke-width: 1.5;" x1="7" x2="136" y1="307" y2="307"/><line style="stroke: #A80036; stroke-width: 1.5;" x1="7" x2="136" y1="315" y2="315"/><!--MD5=[004b1d6c4ca8aad4ba8b586a335ed4f3]
class Transform--><rect fill="#FEFECE" filter="url(#fhpzcsrhulanc)" height="48" id="Transform" style="stroke: #A80036; stroke-width: 1.5;" width="95" x="172" y="275"/><ellipse cx="187" cy="291" fill="#ADD1B2" rx="11" ry="11" style="stroke: #A80036; stroke-width: 1.0;"/><path d="M189.9688,296.6406 Q189.3906,296.9375 188.75,297.0781 Q188.1094,297.2344 187.4063,297.2344 Q184.9063,297.2344 183.5781,295.5938 Q182.2656,293.9375 182.2656,290.8125 Q182.2656,287.6875 183.5781,286.0313 Q184.9063,284.375 187.4063,284.375 Q188.1094,284.375 188.75,284.5313 Q189.4063,284.6875 189.9688,284.9844 L189.9688,287.7031 Q189.3438,287.125 188.75,286.8594 Q188.1563,286.5781 187.5313,286.5781 Q186.1875,286.5781 185.5,287.6563 Q184.8125,288.7188 184.8125,290.8125 Q184.8125,292.9063 185.5,293.9844 Q186.1875,295.0469 187.5313,295.0469 Q188.1563,295.0469 188.75,294.7813 Q189.3438,294.5 189.9688,293.9219 L189.9688,296.6406 Z "/><text fill="#000000" font-family="sans-serif" font-size="12" lengthAdjust="spacingAndGlyphs" textLength="63" x="201" y="295.1543">Transform</text><line style="stroke: #A80036; stroke-width: 1.5;" x1="173" x2="266" y1="307" y2="307"/><line style="stroke: #A80036; stroke-width: 1.5;" x1="173" x2="266" y1="315" y2="315"/><!--MD5=[bd622505b4ad2c89ad2f9c7a1fb5e1ce]
class InputActionProperty--><rect fill="#FEFECE" filter="url(#fhpzcsrhulanc)" height="48" id="InputActionProperty" style="stroke: #A80036; stroke-width: 1.5;" width="156" x="302.5" y="275"/><ellipse cx="317.5" cy="291" fill="#ADD1B2" rx="11" ry="11" style="stroke: #A80036; stroke-width: 1.0;"/><path d="M320.4688,296.6406 Q319.8906,296.9375 319.25,297.0781 Q318.6094,297.2344 317.9063,297.2344 Q315.4063,297.2344 314.0781,295.5938 Q312.7656,293.9375 312.7656,290.8125 Q312.7656,287.6875 314.0781,286.0313 Q315.4063,284.375 317.9063,284.375 Q318.6094,284.375 319.25,284.5313 Q319.9063,284.6875 320.4688,284.9844 L320.4688,287.7031 Q319.8438,287.125 319.25,286.8594 Q318.6563,286.5781 318.0313,286.5781 Q316.6875,286.5781 316,287.6563 Q315.3125,288.7188 315.3125,290.8125 Q315.3125,292.9063 316,293.9844 Q316.6875,295.0469 318.0313,295.0469 Q318.6563,295.0469 319.25,294.7813 Q319.8438,294.5 320.4688,293.9219 L320.4688,296.6406 Z "/><text fill="#000000" font-family="sans-serif" font-size="12" lengthAdjust="spacingAndGlyphs" textLength="124" x="331.5" y="295.1543">InputActionProperty</text><line style="stroke: #A80036; stroke-width: 1.5;" x1="303.5" x2="457.5" y1="307" y2="307"/><line style="stroke: #A80036; stroke-width: 1.5;" x1="303.5" x2="457.5" y1="315" y2="315"/><!--MD5=[064f7a74fee85463ec1a30143664ee17]
class GameObject--><rect fill="#FEFECE" filter="url(#fhpzcsrhulanc)" height="48" id="GameObject" style="stroke: #A80036; stroke-width: 1.5;" width="108" x="493.5" y="275"/><ellipse cx="508.5" cy="291" fill="#ADD1B2" rx="11" ry="11" style="stroke: #A80036; stroke-width: 1.0;"/><path d="M511.4688,296.6406 Q510.8906,296.9375 510.25,297.0781 Q509.6094,297.2344 508.9063,297.2344 Q506.4063,297.2344 505.0781,295.5938 Q503.7656,293.9375 503.7656,290.8125 Q503.7656,287.6875 505.0781,286.0313 Q506.4063,284.375 508.9063,284.375 Q509.6094,284.375 510.25,284.5313 Q510.9063,284.6875 511.4688,284.9844 L511.4688,287.7031 Q510.8438,287.125 510.25,286.8594 Q509.6563,286.5781 509.0313,286.5781 Q507.6875,286.5781 507,287.6563 Q506.3125,288.7188 506.3125,290.8125 Q506.3125,292.9063 507,293.9844 Q507.6875,295.0469 509.0313,295.0469 Q509.6563,295.0469 510.25,294.7813 Q510.8438,294.5 511.4688,293.9219 L511.4688,296.6406 Z "/><text fill="#000000" font-family="sans-serif" font-size="12" lengthAdjust="spacingAndGlyphs" textLength="76" x="522.5" y="295.1543">GameObject</text><line style="stroke: #A80036; stroke-width: 1.5;" x1="494.5" x2="600.5" y1="307" y2="307"/><line style="stroke: #A80036; stroke-width: 1.5;" x1="494.5" x2="600.5" y1="315" y2="315"/><!--MD5=[02f215d6db5b7f34e36b05d8f35ff3a4]
class TextMeshPro--><rect fill="#FEFECE" filter="url(#fhpzcsrhulanc)" height="48" id="TextMeshPro" style="stroke: #A80036; stroke-width: 1.5;" width="112" x="636.5" y="275"/><ellipse cx="651.5" cy="291" fill="#ADD1B2" rx="11" ry="11" style="stroke: #A80036; stroke-width: 1.0;"/><path d="M654.4688,296.6406 Q653.8906,296.9375 653.25,297.0781 Q652.6094,297.2344 651.9063,297.2344 Q649.4063,297.2344 648.0781,295.5938 Q646.7656,293.9375 646.7656,290.8125 Q646.7656,287.6875 648.0781,286.0313 Q649.4063,284.375 651.9063,284.375 Q652.6094,284.375 653.25,284.5313 Q653.9063,284.6875 654.4688,284.9844 L654.4688,287.7031 Q653.8438,287.125 653.25,286.8594 Q652.6563,286.5781 652.0313,286.5781 Q650.6875,286.5781 650,287.6563 Q649.3125,288.7188 649.3125,290.8125 Q649.3125,292.9063 650,293.9844 Q650.6875,295.0469 652.0313,295.0469 Q652.6563,295.0469 653.25,294.7813 Q653.8438,294.5 654.4688,293.9219 L654.4688,296.6406 Z "/><text fill="#000000" font-family="sans-serif" font-size="12" lengthAdjust="spacingAndGlyphs" textLength="80" x="665.5" y="295.1543">TextMeshPro</text><line style="stroke: #A80036; stroke-width: 1.5;" x1="637.5" x2="747.5" y1="307" y2="307"/><line style="stroke: #A80036; stroke-width: 1.5;" x1="637.5" x2="747.5" y1="315" y2="315"/><!--MD5=[8564d4281c03998f8957a160429f1a96]
reverse link MonoBehaviour to MapEditor--><path d="M380.5,76.51 C380.5,89.14 380.5,103.01 380.5,115.93 " fill="none" id="MonoBehaviour&lt;-MapEditor" style="stroke: #A80036; stroke-width: 1.0;"/><polygon fill="none" points="373.5,76.21,380.5,56.21,387.5,76.21,373.5,76.21" style="stroke: #A80036; stroke-width: 1.0;"/><!--MD5=[217dfd4612d15ab8ea187fd541122fcb]
link MapEditor to XRRayInteractor--><path d="M266.32,215.09 C220.06,234.78 168.62,256.67 130.22,273.01 " fill="none" id="MapEditor-&gt;XRRayInteractor" style="stroke: #A80036; stroke-width: 1.0;"/><polygon fill="#A80036" points="125.6,274.98,135.4476,275.1372,130.2009,273.0225,132.3156,267.7758,125.6,274.98" style="stroke: #A80036; stroke-width: 1.0;"/><text fill="#000000" font-family="sans-serif" font-size="13" lengthAdjust="spacingAndGlyphs" textLength="82" x="46.9569" y="263.9869">rayInteractor</text><!--MD5=[608a665ea9eb65d22c265e1066172420]
link MapEditor to Transform--><path d="M283.21,215.09 C257.38,233.98 233.63,254.89 220.35,270.99 " fill="none" id="MapEditor-&gt;Transform" style="stroke: #A80036; stroke-width: 1.0;"/><polygon fill="#A80036" points="217.2,274.98,225.9234,270.408,220.3042,271.0604,219.6519,265.4412,217.2,274.98" style="stroke: #A80036; stroke-width: 1.0;"/><text fill="#000000" font-family="sans-serif" font-size="13" lengthAdjust="spacingAndGlyphs" textLength="41" x="170.3575" y="263.9869">centre</text><!--MD5=[608a665ea9eb65d22c265e1066172420]
link MapEditor to Transform--><path d="M308.65,215.09 C284.44,234.14 259.22,255.25 241.59,271.4 " fill="none" id="MapEditor-&gt;Transform-1" style="stroke: #A80036; stroke-width: 1.0;"/><polygon fill="#A80036" points="237.72,274.98,247.0412,271.7996,241.3885,271.5827,241.6055,265.93,237.72,274.98" style="stroke: #A80036; stroke-width: 1.0;"/><text fill="#000000" font-family="sans-serif" font-size="13" lengthAdjust="spacingAndGlyphs" textLength="20" x="219.8264" y="263.9869">left</text><!--MD5=[608a665ea9eb65d22c265e1066172420]
link MapEditor to Transform--><path d="M334.09,215.09 C311.44,234.38 284.54,255.78 262.33,272.01 " fill="none" id="MapEditor-&gt;Transform-2" style="stroke: #A80036; stroke-width: 1.0;"/><polygon fill="#A80036" points="258.24,274.98,267.8739,272.9335,262.2874,272.0442,263.1767,266.4577,258.24,274.98" style="stroke: #A80036; stroke-width: 1.0;"/><text fill="#000000" font-family="sans-serif" font-size="13" lengthAdjust="spacingAndGlyphs" textLength="71" x="273.9944" y="263.9866">camCentre</text><!--MD5=[608a665ea9eb65d22c265e1066172420]
link MapEditor to Transform--><path d="M359.53,215.09 C335.55,237.34 301.65,262.4 271.55,279.09 " fill="none" id="MapEditor-&gt;Transform-3" style="stroke: #A80036; stroke-width: 1.0;"/><polygon fill="#A80036" points="267.14,281.49,276.9584,280.7165,271.5355,279.1067,273.1452,273.6838,267.14,281.49" style="stroke: #A80036; stroke-width: 1.0;"/><text fill="#000000" font-family="sans-serif" font-size="13" lengthAdjust="spacingAndGlyphs" textLength="52" x="242.4808" y="287.919">camLeft</text><!--MD5=[ea5ee8ef1dc63acadc7287e8003e6d4f]
link MapEditor to InputActionProperty--><path d="M368.14,215.09 C367.28,233.5 367.84,253.83 369.81,269.75 " fill="none" id="MapEditor-&gt;InputActionProperty" style="stroke: #A80036; stroke-width: 1.0;"/><polygon fill="#A80036" points="370.53,274.98,373.2591,265.5168,369.8449,270.0272,365.3345,266.613,370.53,274.98" style="stroke: #A80036; stroke-width: 1.0;"/><text fill="#000000" font-family="sans-serif" font-size="13" lengthAdjust="spacingAndGlyphs" textLength="69" x="376.8158" y="263.9869">rightSelect</text><!--MD5=[ea5ee8ef1dc63acadc7287e8003e6d4f]
link MapEditor to InputActionProperty--><path d="M393.58,215.09 C394.5,233.5 393.91,253.83 391.82,269.75 " fill="none" id="MapEditor-&gt;InputActionProperty-1" style="stroke: #A80036; stroke-width: 1.0;"/><polygon fill="#A80036" points="391.05,274.98,396.2961,266.6446,391.7651,270.0314,388.3783,265.5004,391.05,274.98" style="stroke: #A80036; stroke-width: 1.0;"/><text fill="#000000" font-family="sans-serif" font-size="13" lengthAdjust="spacingAndGlyphs" textLength="39" x="349.7566" y="263.9869">rotate</text><!--MD5=[110f95e75f23d5ca6e1bce01d7cd62a4]
link MapEditor to GameObject--><path d="M404.42,215.09 C427.73,235.79 459.62,258.92 488.66,275.48 " fill="none" id="MapEditor-&gt;GameObject" style="stroke: #A80036; stroke-width: 1.0;"/><polygon fill="#A80036" points="493.29,278.08,487.3958,270.1896,488.9287,275.6348,483.4835,277.1677,493.29,278.08" style="stroke: #A80036; stroke-width: 1.0;"/><text fill="#000000" font-family="sans-serif" font-size="13" lengthAdjust="spacingAndGlyphs" textLength="87" x="489.0729" y="263.9827">CustomPath1</text><!--MD5=[110f95e75f23d5ca6e1bce01d7cd62a4]
link MapEditor to GameObject--><path d="M429.85,215.09 C453.44,234.38 481.27,255.78 504.09,272.01 " fill="none" id="MapEditor-&gt;GameObject-1" style="stroke: #A80036; stroke-width: 1.0;"/><polygon fill="#A80036" points="508.29,274.98,503.2463,266.5206,504.206,272.0955,498.6311,273.0551,508.29,274.98" style="stroke: #A80036; stroke-width: 1.0;"/><text fill="#000000" font-family="sans-serif" font-size="13" lengthAdjust="spacingAndGlyphs" textLength="57" x="461.6534" y="263.8869">BinPath1</text><!--MD5=[110f95e75f23d5ca6e1bce01d7cd62a4]
link MapEditor to GameObject--><path d="M455.29,215.09 C480.43,234.14 506.57,255.25 524.81,271.4 " fill="none" id="MapEditor-&gt;GameObject-2" style="stroke: #A80036; stroke-width: 1.0;"/><polygon fill="#A80036" points="528.81,274.98,524.7599,266.0024,525.0801,271.6502,519.4323,271.9703,528.81,274.98" style="stroke: #A80036; stroke-width: 1.0;"/><text fill="#000000" font-family="sans-serif" font-size="13" lengthAdjust="spacingAndGlyphs" textLength="87" x="535.1676" y="263.9869">CustomPath2</text><!--MD5=[110f95e75f23d5ca6e1bce01d7cd62a4]
link MapEditor to GameObject--><path d="M480.73,215.09 C507.48,233.98 532.14,254.89 546.04,270.99 " fill="none" id="MapEditor-&gt;GameObject-3" style="stroke: #A80036; stroke-width: 1.0;"/><polygon fill="#A80036" points="549.33,274.98,546.6828,265.4936,546.146,271.1249,540.5146,270.588,549.33,274.98" style="stroke: #A80036; stroke-width: 1.0;"/><text fill="#000000" font-family="sans-serif" font-size="13" lengthAdjust="spacingAndGlyphs" textLength="57" x="485.4958" y="263.9869">BinPath2</text><!--MD5=[653816772d1df2124930b40363491653]
link MapEditor to TextMeshPro--><path d="M495.79,215.09 C542.5,234.78 594.44,256.67 633.21,273.01 " fill="none" id="MapEditor-&gt;TextMeshPro" style="stroke: #A80036; stroke-width: 1.0;"/><polygon fill="#A80036" points="637.87,274.98,631.1275,267.8009,633.2618,273.0397,628.0231,275.174,637.87,274.98" style="stroke: #A80036; stroke-width: 1.0;"/><text fill="#000000" font-family="sans-serif" font-size="13" lengthAdjust="spacingAndGlyphs" textLength="59" x="631.4304" y="263.9869">loiterText</text><!--MD5=[edabd67712a2be3e90aab55ffee612d0]
@startuml
class MapEditor {
    resetColours() : void
    + Unlock(customID:int) : void
    + Lock(customID:int) : void
    + ChooseOption(res:RaycastHit, hitPoint:Vector3, pos:Vector3) : void
}
MonoBehaviour <|- - MapEditor
MapEditor - -> "rayInteractor" XRRayInteractor
MapEditor - -> "centre" Transform
MapEditor - -> "left" Transform
MapEditor - -> "camCentre" Transform
MapEditor - -> "camLeft" Transform
MapEditor - -> "rightSelect" InputActionProperty
MapEditor - -> "rotate" InputActionProperty
MapEditor - -> "CustomPath1" GameObject
MapEditor - -> "BinPath1" GameObject
MapEditor - -> "CustomPath2" GameObject
MapEditor - -> "BinPath2" GameObject
MapEditor - -> "loiterText" TextMeshPro
@enduml

PlantUML version 1.2020.02(Sun Mar 01 10:22:07 GMT 2020)
(GPL source distribution)
Java Runtime: OpenJDK Runtime Environment
JVM: OpenJDK 64-Bit Server VM
Java Version: 11.0.9+11-Ubuntu-0ubuntu1
Operating System: Linux
Default Encoding: ANSI_X3.4-1968
Language: en
Country: US
--></g></svg>