<?xml version="1.0" encoding="UTF-8" standalone="no"?><svg xmlns="http://www.w3.org/2000/svg" xmlns:xlink="http://www.w3.org/1999/xlink" contentScriptType="application/ecmascript" contentStyleType="text/css" height="200px" preserveAspectRatio="none" style="width:199px;height:200px;" version="1.1" viewBox="0 0 199 200" width="199px" zoomAndPan="magnify"><defs><filter height="300%" id="f15ci03lqovjk4" width="300%" x="-1" y="-1"><feGaussianBlur result="blurOut" stdDeviation="2.0"/><feColorMatrix in="blurOut" result="blurOut2" type="matrix" values="0 0 0 0 0 0 0 0 0 0 0 0 0 0 0 0 0 0 .4 0"/><feOffset dx="4.0" dy="4.0" in="blurOut2" result="blurOut3"/><feBlend in="SourceGraphic" in2="blurOut3" mode="normal"/></filter></defs><g><!--MD5=[cf9099fe760ec0327dba9c64dcf7a5d1]
class MultiFruitStemController--><rect fill="#FEFECE" filter="url(#f15ci03lqovjk4)" height="73.6094" id="MultiFruitStemController" style="stroke: #A80036; stroke-width: 1.5;" width="182" x="6" y="116"/><ellipse cx="21" cy="132" fill="#ADD1B2" rx="11" ry="11" style="stroke: #A80036; stroke-width: 1.0;"/><path d="M23.9688,137.6406 Q23.3906,137.9375 22.75,138.0781 Q22.1094,138.2344 21.4063,138.2344 Q18.9063,138.2344 17.5781,136.5938 Q16.2656,134.9375 16.2656,131.8125 Q16.2656,128.6875 17.5781,127.0313 Q18.9063,125.375 21.4063,125.375 Q22.1094,125.375 22.75,125.5313 Q23.4063,125.6875 23.9688,125.9844 L23.9688,128.7031 Q23.3438,128.125 22.75,127.8594 Q22.1563,127.5781 21.5313,127.5781 Q20.1875,127.5781 19.5,128.6563 Q18.8125,129.7188 18.8125,131.8125 Q18.8125,133.9063 19.5,134.9844 Q20.1875,136.0469 21.5313,136.0469 Q22.1563,136.0469 22.75,135.7813 Q23.3438,135.5 23.9688,134.9219 L23.9688,137.6406 Z "/><text fill="#000000" font-family="sans-serif" font-size="12" lengthAdjust="spacingAndGlyphs" textLength="150" x="35" y="136.1543">MultiFruitStemController</text><line style="stroke: #A80036; stroke-width: 1.5;" x1="7" x2="187" y1="148" y2="148"/><ellipse cx="17" cy="159" fill="none" rx="3" ry="3" style="stroke: #038048; stroke-width: 1.0;"/><text fill="#000000" font-family="sans-serif" font-size="11" lengthAdjust="spacingAndGlyphs" textLength="85" x="26" y="162.2104">childCount : int</text><line style="stroke: #A80036; stroke-width: 1.5;" x1="7" x2="187" y1="168.8047" y2="168.8047"/><ellipse cx="17" cy="179.8047" fill="#84BE84" rx="3" ry="3" style="stroke: #038048; stroke-width: 1.0;"/><text fill="#000000" font-family="sans-serif" font-size="11" lengthAdjust="spacingAndGlyphs" textLength="104" x="26" y="183.0151">MinusChild() : void</text><!--MD5=[83b3cf3d23d77c6f1e1b5291a241bc2a]
class MonoBehaviour--><rect fill="#FEFECE" filter="url(#f15ci03lqovjk4)" height="48" id="MonoBehaviour" style="stroke: #A80036; stroke-width: 1.5;" width="128" x="33" y="8"/><ellipse cx="48" cy="24" fill="#ADD1B2" rx="11" ry="11" style="stroke: #A80036; stroke-width: 1.0;"/><path d="M50.9688,29.6406 Q50.3906,29.9375 49.75,30.0781 Q49.1094,30.2344 48.4063,30.2344 Q45.9063,30.2344 44.5781,28.5938 Q43.2656,26.9375 43.2656,23.8125 Q43.2656,20.6875 44.5781,19.0313 Q45.9063,17.375 48.4063,17.375 Q49.1094,17.375 49.75,17.5313 Q50.4063,17.6875 50.9688,17.9844 L50.9688,20.7031 Q50.3438,20.125 49.75,19.8594 Q49.1563,19.5781 48.5313,19.5781 Q47.1875,19.5781 46.5,20.6563 Q45.8125,21.7188 45.8125,23.8125 Q45.8125,25.9063 46.5,26.9844 Q47.1875,28.0469 48.5313,28.0469 Q49.1563,28.0469 49.75,27.7813 Q50.3438,27.5 50.9688,26.9219 L50.9688,29.6406 Z "/><text fill="#000000" font-family="sans-serif" font-size="12" lengthAdjust="spacingAndGlyphs" textLength="96" x="62" y="28.1543">MonoBehaviour</text><line style="stroke: #A80036; stroke-width: 1.5;" x1="34" x2="160" y1="40" y2="40"/><line style="stroke: #A80036; stroke-width: 1.5;" x1="34" x2="160" y1="48" y2="48"/><!--MD5=[006e2e3212a38392d2bc13b8230282e9]
reverse link MonoBehaviour to MultiFruitStemController--><path d="M97,76.43 C97,89.33 97,103.32 97,115.71 " fill="none" id="MonoBehaviour&lt;-MultiFruitStemController" style="stroke: #A80036; stroke-width: 1.0;"/><polygon fill="none" points="90,76.23,97,56.23,104,76.23,90,76.23" style="stroke: #A80036; stroke-width: 1.0;"/><!--MD5=[7aa1f0ada7ba069628a3f041f7a498d8]
@startuml
class MultiFruitStemController {
    + childCount : int
    + MinusChild() : void
}
MonoBehaviour <|- - MultiFruitStemController
@enduml

PlantUML version 1.2020.02(Sun Mar 01 10:22:07 GMT 2020)
(GPL source distribution)
Java Runtime: OpenJDK Runtime Environment
JVM: OpenJDK 64-Bit Server VM
Java Version: 11.0.9+11-Ubuntu-0ubuntu1
Operating System: Linux
Default Encoding: ANSI_X3.4-1968
Language: en
Country: US
--></g></svg>