<?xml version="1.0" encoding="UTF-8" standalone="no"?><svg xmlns="http://www.w3.org/2000/svg" xmlns:xlink="http://www.w3.org/1999/xlink" contentScriptType="application/ecmascript" contentStyleType="text/css" height="277px" preserveAspectRatio="none" style="width:212px;height:277px;" version="1.1" viewBox="0 0 212 277" width="212px" zoomAndPan="magnify"><defs><filter height="300%" id="fd02t6lbg074p" width="300%" x="-1" y="-1"><feGaussianBlur result="blurOut" stdDeviation="2.0"/><feColorMatrix in="blurOut" result="blurOut2" type="matrix" values="0 0 0 0 0 0 0 0 0 0 0 0 0 0 0 0 0 0 .4 0"/><feOffset dx="4.0" dy="4.0" in="blurOut2" result="blurOut3"/><feBlend in="SourceGraphic" in2="blurOut3" mode="normal"/></filter></defs><g><!--MD5=[d6d2cfe42d6146256b7d9944c4dbda91]
class NPCContoller--><rect fill="#FEFECE" filter="url(#fd02t6lbg074p)" height="150.4375" id="NPCContoller" style="stroke: #A80036; stroke-width: 1.5;" width="195" x="6" y="116"/><ellipse cx="58.75" cy="132" fill="#ADD1B2" rx="11" ry="11" style="stroke: #A80036; stroke-width: 1.0;"/><path d="M61.7188,137.6406 Q61.1406,137.9375 60.5,138.0781 Q59.8594,138.2344 59.1563,138.2344 Q56.6563,138.2344 55.3281,136.5938 Q54.0156,134.9375 54.0156,131.8125 Q54.0156,128.6875 55.3281,127.0313 Q56.6563,125.375 59.1563,125.375 Q59.8594,125.375 60.5,125.5313 Q61.1563,125.6875 61.7188,125.9844 L61.7188,128.7031 Q61.0938,128.125 60.5,127.8594 Q59.9063,127.5781 59.2813,127.5781 Q57.9375,127.5781 57.25,128.6563 Q56.5625,129.7188 56.5625,131.8125 Q56.5625,133.9063 57.25,134.9844 Q57.9375,136.0469 59.2813,136.0469 Q59.9063,136.0469 60.5,135.7813 Q61.0938,135.5 61.7188,134.9219 L61.7188,137.6406 Z "/><text fill="#000000" font-family="sans-serif" font-size="12" lengthAdjust="spacingAndGlyphs" textLength="81" x="79.25" y="136.1543">NPCContoller</text><line style="stroke: #A80036; stroke-width: 1.5;" x1="7" x2="200" y1="148" y2="148"/><ellipse cx="17" cy="159" fill="none" rx="3" ry="3" style="stroke: #038048; stroke-width: 1.0;"/><text fill="#000000" font-family="sans-serif" font-size="11" lengthAdjust="spacingAndGlyphs" textLength="143" x="26" y="162.2104">circleRadius : float = 100</text><ellipse cx="17" cy="171.8047" fill="none" rx="3" ry="3" style="stroke: #038048; stroke-width: 1.0;"/><text fill="#000000" font-family="sans-serif" font-size="11" lengthAdjust="spacingAndGlyphs" textLength="116" x="26" y="175.0151">distance : float = 40</text><ellipse cx="17" cy="184.6094" fill="none" rx="3" ry="3" style="stroke: #038048; stroke-width: 1.0;"/><text fill="#000000" font-family="sans-serif" font-size="11" lengthAdjust="spacingAndGlyphs" textLength="162" x="26" y="187.8198">wanderWeight : float = 10.0f</text><ellipse cx="17" cy="197.4141" fill="none" rx="3" ry="3" style="stroke: #038048; stroke-width: 1.0;"/><text fill="#000000" font-family="sans-serif" font-size="11" lengthAdjust="spacingAndGlyphs" textLength="121" x="26" y="200.6245">maxSpeed : float = 8</text><ellipse cx="17" cy="210.2188" fill="none" rx="3" ry="3" style="stroke: #038048; stroke-width: 1.0;"/><text fill="#000000" font-family="sans-serif" font-size="11" lengthAdjust="spacingAndGlyphs" textLength="123" x="26" y="213.4292">maxForce : float = 10</text><line style="stroke: #A80036; stroke-width: 1.5;" x1="7" x2="200" y1="220.0234" y2="220.0234"/><ellipse cx="17" cy="231.0234" fill="#84BE84" rx="3" ry="3" style="stroke: #038048; stroke-width: 1.0;"/><text fill="#000000" font-family="sans-serif" font-size="11" lengthAdjust="spacingAndGlyphs" textLength="169" x="26" y="234.2339">Avoid(shouldAvoid:bool) : void</text><ellipse cx="17" cy="243.8281" fill="#84BE84" rx="3" ry="3" style="stroke: #038048; stroke-width: 1.0;"/><text fill="#000000" font-family="sans-serif" font-size="11" lengthAdjust="spacingAndGlyphs" textLength="149" x="26" y="247.0386">Avoid(force:Vector3) : void</text><ellipse cx="17" cy="256.6328" fill="#84BE84" rx="3" ry="3" style="stroke: #038048; stroke-width: 1.0;"/><text fill="#000000" font-family="sans-serif" font-size="11" lengthAdjust="spacingAndGlyphs" textLength="110" x="26" y="259.8433">GetStartTime() : int</text><!--MD5=[83b3cf3d23d77c6f1e1b5291a241bc2a]
class MonoBehaviour--><rect fill="#FEFECE" filter="url(#fd02t6lbg074p)" height="48" id="MonoBehaviour" style="stroke: #A80036; stroke-width: 1.5;" width="128" x="39.5" y="8"/><ellipse cx="54.5" cy="24" fill="#ADD1B2" rx="11" ry="11" style="stroke: #A80036; stroke-width: 1.0;"/><path d="M57.4688,29.6406 Q56.8906,29.9375 56.25,30.0781 Q55.6094,30.2344 54.9063,30.2344 Q52.4063,30.2344 51.0781,28.5938 Q49.7656,26.9375 49.7656,23.8125 Q49.7656,20.6875 51.0781,19.0313 Q52.4063,17.375 54.9063,17.375 Q55.6094,17.375 56.25,17.5313 Q56.9063,17.6875 57.4688,17.9844 L57.4688,20.7031 Q56.8438,20.125 56.25,19.8594 Q55.6563,19.5781 55.0313,19.5781 Q53.6875,19.5781 53,20.6563 Q52.3125,21.7188 52.3125,23.8125 Q52.3125,25.9063 53,26.9844 Q53.6875,28.0469 55.0313,28.0469 Q55.6563,28.0469 56.25,27.7813 Q56.8438,27.5 57.4688,26.9219 L57.4688,29.6406 Z "/><text fill="#000000" font-family="sans-serif" font-size="12" lengthAdjust="spacingAndGlyphs" textLength="96" x="68.5" y="28.1543">MonoBehaviour</text><line style="stroke: #A80036; stroke-width: 1.5;" x1="40.5" x2="166.5" y1="40" y2="40"/><line style="stroke: #A80036; stroke-width: 1.5;" x1="40.5" x2="166.5" y1="48" y2="48"/><!--MD5=[5dda2cdfb3d3952e88d173e5578aaa91]
reverse link MonoBehaviour to NPCContoller--><path d="M103.5,76.38 C103.5,88.67 103.5,102.4 103.5,115.96 " fill="none" id="MonoBehaviour&lt;-NPCContoller" style="stroke: #A80036; stroke-width: 1.0;"/><polygon fill="none" points="96.5,76.17,103.5,56.17,110.5,76.17,96.5,76.17" style="stroke: #A80036; stroke-width: 1.0;"/><!--MD5=[b2fee0c1ed66f60624a90235f866b870]
@startuml
class NPCContoller {
    + circleRadius : float = 100
    + distance : float = 40
    + wanderWeight : float = 10.0f
    + maxSpeed : float = 8
    + maxForce : float = 10
    + Avoid(shouldAvoid:bool) : void
    + Avoid(force:Vector3) : void
    + GetStartTime() : int
}
MonoBehaviour <|- - NPCContoller
@enduml

PlantUML version 1.2020.02(Sun Mar 01 10:22:07 GMT 2020)
(GPL source distribution)
Java Runtime: OpenJDK Runtime Environment
JVM: OpenJDK 64-Bit Server VM
Java Version: 11.0.9+11-Ubuntu-0ubuntu1
Operating System: Linux
Default Encoding: ANSI_X3.4-1968
Language: en
Country: US
--></g></svg>