<?xml version="1.0" encoding="UTF-8" standalone="no"?><svg xmlns="http://www.w3.org/2000/svg" xmlns:xlink="http://www.w3.org/1999/xlink" contentScriptType="application/ecmascript" contentStyleType="text/css" height="200px" preserveAspectRatio="none" style="width:278px;height:200px;" version="1.1" viewBox="0 0 278 200" width="278px" zoomAndPan="magnify"><defs><filter height="300%" id="f1613e6131xis1" width="300%" x="-1" y="-1"><feGaussianBlur result="blurOut" stdDeviation="2.0"/><feColorMatrix in="blurOut" result="blurOut2" type="matrix" values="0 0 0 0 0 0 0 0 0 0 0 0 0 0 0 0 0 0 .4 0"/><feOffset dx="4.0" dy="4.0" in="blurOut2" result="blurOut3"/><feBlend in="SourceGraphic" in2="blurOut3" mode="normal"/></filter></defs><g><!--MD5=[12efd68c92c5433215aad7fc83ade3db]
class ObjectAvoidance--><rect fill="#FEFECE" filter="url(#f1613e6131xis1)" height="73.6094" id="ObjectAvoidance" style="stroke: #A80036; stroke-width: 1.5;" width="261" x="6" y="116"/><ellipse cx="80.25" cy="132" fill="#ADD1B2" rx="11" ry="11" style="stroke: #A80036; stroke-width: 1.0;"/><path d="M83.2188,137.6406 Q82.6406,137.9375 82,138.0781 Q81.3594,138.2344 80.6563,138.2344 Q78.1563,138.2344 76.8281,136.5938 Q75.5156,134.9375 75.5156,131.8125 Q75.5156,128.6875 76.8281,127.0313 Q78.1563,125.375 80.6563,125.375 Q81.3594,125.375 82,125.5313 Q82.6563,125.6875 83.2188,125.9844 L83.2188,128.7031 Q82.5938,128.125 82,127.8594 Q81.4063,127.5781 80.7813,127.5781 Q79.4375,127.5781 78.75,128.6563 Q78.0625,129.7188 78.0625,131.8125 Q78.0625,133.9063 78.75,134.9844 Q79.4375,136.0469 80.7813,136.0469 Q81.4063,136.0469 82,135.7813 Q82.5938,135.5 83.2188,134.9219 L83.2188,137.6406 Z "/><text fill="#000000" font-family="sans-serif" font-size="12" lengthAdjust="spacingAndGlyphs" textLength="104" x="100.75" y="136.1543">ObjectAvoidance</text><line style="stroke: #A80036; stroke-width: 1.5;" x1="7" x2="266" y1="148" y2="148"/><line style="stroke: #A80036; stroke-width: 1.5;" x1="7" x2="266" y1="156" y2="156"/><text fill="#000000" font-family="sans-serif" font-size="11" lengthAdjust="spacingAndGlyphs" textLength="235" x="26" y="170.2104">OnCollisionEnter(collision:Collision) : void</text><ellipse cx="17" cy="179.8047" fill="#84BE84" rx="3" ry="3" style="stroke: #038048; stroke-width: 1.0;"/><text fill="#000000" font-family="sans-serif" font-size="11" lengthAdjust="spacingAndGlyphs" textLength="156" x="26" y="183.0151">AddNPC(name:string) : void</text><!--MD5=[83b3cf3d23d77c6f1e1b5291a241bc2a]
class MonoBehaviour--><rect fill="#FEFECE" filter="url(#f1613e6131xis1)" height="48" id="MonoBehaviour" style="stroke: #A80036; stroke-width: 1.5;" width="128" x="72.5" y="8"/><ellipse cx="87.5" cy="24" fill="#ADD1B2" rx="11" ry="11" style="stroke: #A80036; stroke-width: 1.0;"/><path d="M90.4688,29.6406 Q89.8906,29.9375 89.25,30.0781 Q88.6094,30.2344 87.9063,30.2344 Q85.4063,30.2344 84.0781,28.5938 Q82.7656,26.9375 82.7656,23.8125 Q82.7656,20.6875 84.0781,19.0313 Q85.4063,17.375 87.9063,17.375 Q88.6094,17.375 89.25,17.5313 Q89.9063,17.6875 90.4688,17.9844 L90.4688,20.7031 Q89.8438,20.125 89.25,19.8594 Q88.6563,19.5781 88.0313,19.5781 Q86.6875,19.5781 86,20.6563 Q85.3125,21.7188 85.3125,23.8125 Q85.3125,25.9063 86,26.9844 Q86.6875,28.0469 88.0313,28.0469 Q88.6563,28.0469 89.25,27.7813 Q89.8438,27.5 90.4688,26.9219 L90.4688,29.6406 Z "/><text fill="#000000" font-family="sans-serif" font-size="12" lengthAdjust="spacingAndGlyphs" textLength="96" x="101.5" y="28.1543">MonoBehaviour</text><line style="stroke: #A80036; stroke-width: 1.5;" x1="73.5" x2="199.5" y1="40" y2="40"/><line style="stroke: #A80036; stroke-width: 1.5;" x1="73.5" x2="199.5" y1="48" y2="48"/><!--MD5=[9eb7faf90b741945d6bdac06942bd6fb]
reverse link MonoBehaviour to ObjectAvoidance--><path d="M136.5,76.43 C136.5,89.33 136.5,103.32 136.5,115.71 " fill="none" id="MonoBehaviour&lt;-ObjectAvoidance" style="stroke: #A80036; stroke-width: 1.0;"/><polygon fill="none" points="129.5,76.23,136.5,56.23,143.5,76.23,129.5,76.23" style="stroke: #A80036; stroke-width: 1.0;"/><!--MD5=[4cc57c399efce52dc06c9e4894ac9cc4]
@startuml
class ObjectAvoidance {
    OnCollisionEnter(collision:Collision) : void
    + AddNPC(name:string) : void
}
MonoBehaviour <|- - ObjectAvoidance
@enduml

PlantUML version 1.2020.02(Sun Mar 01 10:22:07 GMT 2020)
(GPL source distribution)
Java Runtime: OpenJDK Runtime Environment
JVM: OpenJDK 64-Bit Server VM
Java Version: 11.0.9+11-Ubuntu-0ubuntu1
Operating System: Linux
Default Encoding: ANSI_X3.4-1968
Language: en
Country: US
--></g></svg>