<?xml version="1.0" encoding="UTF-8" standalone="no"?><svg xmlns="http://www.w3.org/2000/svg" xmlns:xlink="http://www.w3.org/1999/xlink" contentScriptType="application/ecmascript" contentStyleType="text/css" height="449px" preserveAspectRatio="none" style="width:265px;height:449px;" version="1.1" viewBox="0 0 265 449" width="265px" zoomAndPan="magnify"><defs><filter height="300%" id="f1td9a928tg7fd" width="300%" x="-1" y="-1"><feGaussianBlur result="blurOut" stdDeviation="2.0"/><feColorMatrix in="blurOut" result="blurOut2" type="matrix" values="0 0 0 0 0 0 0 0 0 0 0 0 0 0 0 0 0 0 .4 0"/><feOffset dx="4.0" dy="4.0" in="blurOut2" result="blurOut3"/><feBlend in="SourceGraphic" in2="blurOut3" mode="normal"/></filter></defs><g><!--MD5=[a8e4a804dddfa27bd89f76766f330044]
class ParkerPathMover--><rect fill="#FEFECE" filter="url(#f1td9a928tg7fd)" height="214.4609" id="ParkerPathMover" style="stroke: #A80036; stroke-width: 1.5;" width="204" x="50" y="116"/><ellipse cx="94.25" cy="132" fill="#ADD1B2" rx="11" ry="11" style="stroke: #A80036; stroke-width: 1.0;"/><path d="M97.2188,137.6406 Q96.6406,137.9375 96,138.0781 Q95.3594,138.2344 94.6563,138.2344 Q92.1563,138.2344 90.8281,136.5938 Q89.5156,134.9375 89.5156,131.8125 Q89.5156,128.6875 90.8281,127.0313 Q92.1563,125.375 94.6563,125.375 Q95.3594,125.375 96,125.5313 Q96.6563,125.6875 97.2188,125.9844 L97.2188,128.7031 Q96.5938,128.125 96,127.8594 Q95.4063,127.5781 94.7813,127.5781 Q93.4375,127.5781 92.75,128.6563 Q92.0625,129.7188 92.0625,131.8125 Q92.0625,133.9063 92.75,134.9844 Q93.4375,136.0469 94.7813,136.0469 Q95.4063,136.0469 96,135.7813 Q96.5938,135.5 97.2188,134.9219 L97.2188,137.6406 Z "/><text fill="#000000" font-family="sans-serif" font-size="12" lengthAdjust="spacingAndGlyphs" textLength="107" x="114.75" y="136.1543">ParkerPathMover</text><line style="stroke: #A80036; stroke-width: 1.5;" x1="51" x2="253" y1="148" y2="148"/><ellipse cx="61" cy="159" fill="none" rx="3" ry="3" style="stroke: #038048; stroke-width: 1.0;"/><text fill="#000000" font-family="sans-serif" font-size="11" lengthAdjust="spacingAndGlyphs" textLength="111" x="70" y="162.2104">speed : float = 5.0f</text><ellipse cx="61" cy="171.8047" fill="none" rx="3" ry="3" style="stroke: #038048; stroke-width: 1.0;"/><text fill="#000000" font-family="sans-serif" font-size="11" lengthAdjust="spacingAndGlyphs" textLength="108" x="70" y="175.0151">mass : float = 5.0f</text><ellipse cx="61" cy="184.6094" fill="none" rx="3" ry="3" style="stroke: #038048; stroke-width: 1.0;"/><text fill="#000000" font-family="sans-serif" font-size="11" lengthAdjust="spacingAndGlyphs" textLength="138" x="70" y="187.8198">maxSteer : float = 15.0f</text><ellipse cx="61" cy="197.4141" fill="none" rx="3" ry="3" style="stroke: #038048; stroke-width: 1.0;"/><text fill="#000000" font-family="sans-serif" font-size="11" lengthAdjust="spacingAndGlyphs" textLength="139" x="70" y="200.6245">pathRadius : float = 1.0f</text><ellipse cx="61" cy="210.2188" fill="none" rx="3" ry="3" style="stroke: #038048; stroke-width: 1.0;"/><text fill="#000000" font-family="sans-serif" font-size="11" lengthAdjust="spacingAndGlyphs" textLength="171" x="70" y="213.4292">currentWaypointIndex : int = 0</text><ellipse cx="61" cy="223.0234" fill="none" rx="3" ry="3" style="stroke: #038048; stroke-width: 1.0;"/><text fill="#000000" font-family="sans-serif" font-size="11" lengthAdjust="spacingAndGlyphs" textLength="36" x="70" y="226.2339">id : int</text><ellipse cx="61" cy="235.8281" fill="none" rx="3" ry="3" style="stroke: #038048; stroke-width: 1.0;"/><text fill="#000000" font-family="sans-serif" font-size="11" lengthAdjust="spacingAndGlyphs" textLength="134" x="70" y="239.0386">hadLoiter : bool = false</text><ellipse cx="61" cy="248.6328" fill="none" rx="3" ry="3" style="stroke: #038048; stroke-width: 1.0;"/><text fill="#000000" font-family="sans-serif" font-size="11" lengthAdjust="spacingAndGlyphs" textLength="146" x="70" y="251.8433">canChangeY : bool = true</text><ellipse cx="61" cy="261.4375" fill="none" rx="3" ry="3" style="stroke: #038048; stroke-width: 1.0;"/><text fill="#000000" font-family="sans-serif" font-size="11" lengthAdjust="spacingAndGlyphs" textLength="104" x="70" y="264.6479">first : bool = false</text><ellipse cx="61" cy="274.2422" fill="none" rx="3" ry="3" style="stroke: #038048; stroke-width: 1.0;"/><text fill="#000000" font-family="sans-serif" font-size="11" lengthAdjust="spacingAndGlyphs" textLength="115" x="70" y="277.4526">inside : bool = false</text><line style="stroke: #A80036; stroke-width: 1.5;" x1="51" x2="253" y1="284.0469" y2="284.0469"/><text fill="#000000" font-family="sans-serif" font-size="11" lengthAdjust="spacingAndGlyphs" textLength="71" x="70" y="298.2573">Start() : void</text><ellipse cx="61" cy="307.8516" fill="#84BE84" rx="3" ry="3" style="stroke: #038048; stroke-width: 1.0;"/><text fill="#000000" font-family="sans-serif" font-size="11" lengthAdjust="spacingAndGlyphs" textLength="178" x="70" y="311.062">SetDefaultPath(newId:int) : void</text><text fill="#000000" font-family="sans-serif" font-size="11" lengthAdjust="spacingAndGlyphs" textLength="83" x="70" y="323.8667">Update() : void</text><!--MD5=[e644022de7dea015dd09463c37421447]
class List`1--><rect fill="#FEFECE" filter="url(#f1td9a928tg7fd)" height="48" id="List`1" style="stroke: #A80036; stroke-width: 1.5;" width="78" x="113" y="390"/><ellipse cx="128" cy="406" fill="#ADD1B2" rx="11" ry="11" style="stroke: #A80036; stroke-width: 1.0;"/><path d="M130.9688,411.6406 Q130.3906,411.9375 129.75,412.0781 Q129.1094,412.2344 128.4063,412.2344 Q125.9063,412.2344 124.5781,410.5938 Q123.2656,408.9375 123.2656,405.8125 Q123.2656,402.6875 124.5781,401.0313 Q125.9063,399.375 128.4063,399.375 Q129.1094,399.375 129.75,399.5313 Q130.4063,399.6875 130.9688,399.9844 L130.9688,402.7031 Q130.3438,402.125 129.75,401.8594 Q129.1563,401.5781 128.5313,401.5781 Q127.1875,401.5781 126.5,402.6563 Q125.8125,403.7188 125.8125,405.8125 Q125.8125,407.9063 126.5,408.9844 Q127.1875,410.0469 128.5313,410.0469 Q129.1563,410.0469 129.75,409.7813 Q130.3438,409.5 130.9688,408.9219 L130.9688,411.6406 Z "/><text fill="#000000" font-family="sans-serif" font-size="12" lengthAdjust="spacingAndGlyphs" textLength="35" x="142" y="410.1543">List`1</text><rect fill="#FFFFFF" height="15.9688" style="stroke: #000000; stroke-width: 1.0; stroke-dasharray: 2.0,2.0;" width="9" x="185" y="387"/><text fill="#000000" font-family="sans-serif" font-size="12" font-style="italic" lengthAdjust="spacingAndGlyphs" textLength="7" x="186" y="399.1387">T</text><line style="stroke: #A80036; stroke-width: 1.5;" x1="114" x2="190" y1="422" y2="422"/><line style="stroke: #A80036; stroke-width: 1.5;" x1="114" x2="190" y1="430" y2="430"/><!--MD5=[83b3cf3d23d77c6f1e1b5291a241bc2a]
class MonoBehaviour--><rect fill="#FEFECE" filter="url(#f1td9a928tg7fd)" height="48" id="MonoBehaviour" style="stroke: #A80036; stroke-width: 1.5;" width="128" x="88" y="8"/><ellipse cx="103" cy="24" fill="#ADD1B2" rx="11" ry="11" style="stroke: #A80036; stroke-width: 1.0;"/><path d="M105.9688,29.6406 Q105.3906,29.9375 104.75,30.0781 Q104.1094,30.2344 103.4063,30.2344 Q100.9063,30.2344 99.5781,28.5938 Q98.2656,26.9375 98.2656,23.8125 Q98.2656,20.6875 99.5781,19.0313 Q100.9063,17.375 103.4063,17.375 Q104.1094,17.375 104.75,17.5313 Q105.4063,17.6875 105.9688,17.9844 L105.9688,20.7031 Q105.3438,20.125 104.75,19.8594 Q104.1563,19.5781 103.5313,19.5781 Q102.1875,19.5781 101.5,20.6563 Q100.8125,21.7188 100.8125,23.8125 Q100.8125,25.9063 101.5,26.9844 Q102.1875,28.0469 103.5313,28.0469 Q104.1563,28.0469 104.75,27.7813 Q105.3438,27.5 105.9688,26.9219 L105.9688,29.6406 Z "/><text fill="#000000" font-family="sans-serif" font-size="12" lengthAdjust="spacingAndGlyphs" textLength="96" x="117" y="28.1543">MonoBehaviour</text><line style="stroke: #A80036; stroke-width: 1.5;" x1="89" x2="215" y1="40" y2="40"/><line style="stroke: #A80036; stroke-width: 1.5;" x1="89" x2="215" y1="48" y2="48"/><!--MD5=[512cf4ea214f01654ac484c4d3405b0f]
reverse link MonoBehaviour to ParkerPathMover--><path d="M152,76.34 C152,88.3 152,101.83 152,115.71 " fill="none" id="MonoBehaviour&lt;-ParkerPathMover" style="stroke: #A80036; stroke-width: 1.0;"/><polygon fill="none" points="145,76.18,152,56.18,159,76.18,145,76.18" style="stroke: #A80036; stroke-width: 1.0;"/><!--MD5=[a9dad90a0039c71a7c9e1e75304d887b]
link ParkerPathMover to List`1--><path d="M152,330.1 C152,350.19 152,369.56 152,384.52 " fill="none" id="ParkerPathMover-&gt;List`1" style="stroke: #A80036; stroke-width: 1.0;"/><polygon fill="#A80036" points="152,389.83,156,380.83,152,384.83,148,380.83,152,389.83" style="stroke: #A80036; stroke-width: 1.0;"/><text fill="#000000" font-family="sans-serif" font-size="13" lengthAdjust="spacingAndGlyphs" textLength="131" x="4.2156" y="378.7985">path&lt;GameObject&gt;</text><!--MD5=[d4c7e54dbf77f3852258011a68906b93]
@startuml
class ParkerPathMover {
    + speed : float = 5.0f
    + mass : float = 5.0f
    + maxSteer : float = 15.0f
    + pathRadius : float = 1.0f
    + currentWaypointIndex : int = 0
    + id : int
    + hadLoiter : bool = false
    + canChangeY : bool = true
    + first : bool = false
    + inside : bool = false
    Start() : void
    + SetDefaultPath(newId:int) : void
    Update() : void
}
class "List`1"<T> {
}
MonoBehaviour <|- - ParkerPathMover
ParkerPathMover - -> "path<GameObject>" "List`1"
@enduml

PlantUML version 1.2020.02(Sun Mar 01 10:22:07 GMT 2020)
(GPL source distribution)
Java Runtime: OpenJDK Runtime Environment
JVM: OpenJDK 64-Bit Server VM
Java Version: 11.0.9+11-Ubuntu-0ubuntu1
Operating System: Linux
Default Encoding: ANSI_X3.4-1968
Language: en
Country: US
--></g></svg>