<?xml version="1.0" encoding="UTF-8" standalone="no"?><svg xmlns="http://www.w3.org/2000/svg" xmlns:xlink="http://www.w3.org/1999/xlink" contentScriptType="application/ecmascript" contentStyleType="text/css" height="283px" preserveAspectRatio="none" style="width:330px;height:283px;" version="1.1" viewBox="0 0 330 283" width="330px" zoomAndPan="magnify"><defs><filter height="300%" id="f1nhcialrzweer" width="300%" x="-1" y="-1"><feGaussianBlur result="blurOut" stdDeviation="2.0"/><feColorMatrix in="blurOut" result="blurOut2" type="matrix" values="0 0 0 0 0 0 0 0 0 0 0 0 0 0 0 0 0 0 .4 0"/><feOffset dx="4.0" dy="4.0" in="blurOut2" result="blurOut3"/><feBlend in="SourceGraphic" in2="blurOut3" mode="normal"/></filter></defs><g><!--MD5=[9f7267441faddb009319aa39654ba33f]
class PathDecor--><rect fill="#FEFECE" filter="url(#f1nhcialrzweer)" height="48" id="PathDecor" style="stroke: #A80036; stroke-width: 1.5;" width="98" x="122" y="116"/><ellipse cx="137" cy="132" fill="#ADD1B2" rx="11" ry="11" style="stroke: #A80036; stroke-width: 1.0;"/><path d="M139.9688,137.6406 Q139.3906,137.9375 138.75,138.0781 Q138.1094,138.2344 137.4063,138.2344 Q134.9063,138.2344 133.5781,136.5938 Q132.2656,134.9375 132.2656,131.8125 Q132.2656,128.6875 133.5781,127.0313 Q134.9063,125.375 137.4063,125.375 Q138.1094,125.375 138.75,125.5313 Q139.4063,125.6875 139.9688,125.9844 L139.9688,128.7031 Q139.3438,128.125 138.75,127.8594 Q138.1563,127.5781 137.5313,127.5781 Q136.1875,127.5781 135.5,128.6563 Q134.8125,129.7188 134.8125,131.8125 Q134.8125,133.9063 135.5,134.9844 Q136.1875,136.0469 137.5313,136.0469 Q138.1563,136.0469 138.75,135.7813 Q139.3438,135.5 139.9688,134.9219 L139.9688,137.6406 Z "/><text fill="#000000" font-family="sans-serif" font-size="12" lengthAdjust="spacingAndGlyphs" textLength="66" x="151" y="136.1543">PathDecor</text><line style="stroke: #A80036; stroke-width: 1.5;" x1="123" x2="219" y1="148" y2="148"/><line style="stroke: #A80036; stroke-width: 1.5;" x1="123" x2="219" y1="156" y2="156"/><!--MD5=[e644022de7dea015dd09463c37421447]
class List`1--><rect fill="#FEFECE" filter="url(#f1nhcialrzweer)" height="48" id="List`1" style="stroke: #A80036; stroke-width: 1.5;" width="78" x="132" y="224"/><ellipse cx="147" cy="240" fill="#ADD1B2" rx="11" ry="11" style="stroke: #A80036; stroke-width: 1.0;"/><path d="M149.9688,245.6406 Q149.3906,245.9375 148.75,246.0781 Q148.1094,246.2344 147.4063,246.2344 Q144.9063,246.2344 143.5781,244.5938 Q142.2656,242.9375 142.2656,239.8125 Q142.2656,236.6875 143.5781,235.0313 Q144.9063,233.375 147.4063,233.375 Q148.1094,233.375 148.75,233.5313 Q149.4063,233.6875 149.9688,233.9844 L149.9688,236.7031 Q149.3438,236.125 148.75,235.8594 Q148.1563,235.5781 147.5313,235.5781 Q146.1875,235.5781 145.5,236.6563 Q144.8125,237.7188 144.8125,239.8125 Q144.8125,241.9063 145.5,242.9844 Q146.1875,244.0469 147.5313,244.0469 Q148.1563,244.0469 148.75,243.7813 Q149.3438,243.5 149.9688,242.9219 L149.9688,245.6406 Z "/><text fill="#000000" font-family="sans-serif" font-size="12" lengthAdjust="spacingAndGlyphs" textLength="35" x="161" y="244.1543">List`1</text><rect fill="#FFFFFF" height="15.9688" style="stroke: #000000; stroke-width: 1.0; stroke-dasharray: 2.0,2.0;" width="9" x="204" y="221"/><text fill="#000000" font-family="sans-serif" font-size="12" font-style="italic" lengthAdjust="spacingAndGlyphs" textLength="7" x="205" y="233.1387">T</text><line style="stroke: #A80036; stroke-width: 1.5;" x1="133" x2="209" y1="256" y2="256"/><line style="stroke: #A80036; stroke-width: 1.5;" x1="133" x2="209" y1="264" y2="264"/><!--MD5=[83b3cf3d23d77c6f1e1b5291a241bc2a]
class MonoBehaviour--><rect fill="#FEFECE" filter="url(#f1nhcialrzweer)" height="48" id="MonoBehaviour" style="stroke: #A80036; stroke-width: 1.5;" width="128" x="107" y="8"/><ellipse cx="122" cy="24" fill="#ADD1B2" rx="11" ry="11" style="stroke: #A80036; stroke-width: 1.0;"/><path d="M124.9688,29.6406 Q124.3906,29.9375 123.75,30.0781 Q123.1094,30.2344 122.4063,30.2344 Q119.9063,30.2344 118.5781,28.5938 Q117.2656,26.9375 117.2656,23.8125 Q117.2656,20.6875 118.5781,19.0313 Q119.9063,17.375 122.4063,17.375 Q123.1094,17.375 123.75,17.5313 Q124.4063,17.6875 124.9688,17.9844 L124.9688,20.7031 Q124.3438,20.125 123.75,19.8594 Q123.1563,19.5781 122.5313,19.5781 Q121.1875,19.5781 120.5,20.6563 Q119.8125,21.7188 119.8125,23.8125 Q119.8125,25.9063 120.5,26.9844 Q121.1875,28.0469 122.5313,28.0469 Q123.1563,28.0469 123.75,27.7813 Q124.3438,27.5 124.9688,26.9219 L124.9688,29.6406 Z "/><text fill="#000000" font-family="sans-serif" font-size="12" lengthAdjust="spacingAndGlyphs" textLength="96" x="136" y="28.1543">MonoBehaviour</text><line style="stroke: #A80036; stroke-width: 1.5;" x1="108" x2="234" y1="40" y2="40"/><line style="stroke: #A80036; stroke-width: 1.5;" x1="108" x2="234" y1="48" y2="48"/><!--MD5=[18eee71c88ab61f27581b8cbdd3ef5ee]
class Color--><rect fill="#FEFECE" filter="url(#f1nhcialrzweer)" height="48" id="Color" style="stroke: #A80036; stroke-width: 1.5;" width="64" x="255" y="116"/><ellipse cx="270" cy="132" fill="#ADD1B2" rx="11" ry="11" style="stroke: #A80036; stroke-width: 1.0;"/><path d="M272.9688,137.6406 Q272.3906,137.9375 271.75,138.0781 Q271.1094,138.2344 270.4063,138.2344 Q267.9063,138.2344 266.5781,136.5938 Q265.2656,134.9375 265.2656,131.8125 Q265.2656,128.6875 266.5781,127.0313 Q267.9063,125.375 270.4063,125.375 Q271.1094,125.375 271.75,125.5313 Q272.4063,125.6875 272.9688,125.9844 L272.9688,128.7031 Q272.3438,128.125 271.75,127.8594 Q271.1563,127.5781 270.5313,127.5781 Q269.1875,127.5781 268.5,128.6563 Q267.8125,129.7188 267.8125,131.8125 Q267.8125,133.9063 268.5,134.9844 Q269.1875,136.0469 270.5313,136.0469 Q271.1563,136.0469 271.75,135.7813 Q272.3438,135.5 272.9688,134.9219 L272.9688,137.6406 Z "/><text fill="#000000" font-family="sans-serif" font-size="12" lengthAdjust="spacingAndGlyphs" textLength="32" x="284" y="136.1543">Color</text><line style="stroke: #A80036; stroke-width: 1.5;" x1="256" x2="318" y1="148" y2="148"/><line style="stroke: #A80036; stroke-width: 1.5;" x1="256" x2="318" y1="156" y2="156"/><!--MD5=[aa0fe6f43c7acf172b3d6e972a3a4b92]
reverse link MonoBehaviour to PathDecor--><path d="M171,76.02 C171,89.58 171,104.04 171,115.68 " fill="none" id="MonoBehaviour&lt;-PathDecor" style="stroke: #A80036; stroke-width: 1.0;"/><polygon fill="none" points="164,76,171,56,178,76,164,76" style="stroke: #A80036; stroke-width: 1.0;"/><!--MD5=[7eac2dbd06e1119117726429cd12365b]
link PathDecor to List`1--><path d="M171,164 C171,180 171,201.45 171,218.53 " fill="none" id="PathDecor-&gt;List`1" style="stroke: #A80036; stroke-width: 1.0;"/><polygon fill="#A80036" points="171,223.68,175,214.68,171,218.68,167,214.68,171,223.68" style="stroke: #A80036; stroke-width: 1.0;"/><text fill="#000000" font-family="sans-serif" font-size="13" lengthAdjust="spacingAndGlyphs" textLength="150" x="2.7188" y="213.007">waypoints&lt;Transform&gt;</text><!--MD5=[88777779a86a05eaa50832e77801eba3]
link PathDecor to Color--><path d="M232.39,140 C232.39,140 239.2,140 241.98,140 " fill="none" id="PathDecor-Color" style="stroke: #A80036; stroke-width: 1.0;"/><polygon fill="#A80036" points="255,140,246,136,250,140,246,144,255,140" style="stroke: #A80036; stroke-width: 1.0;"/><line style="stroke: #A80036; stroke-width: 1.0;" x1="250" x2="242" y1="140" y2="140"/><polygon fill="#FFFFFF" points="220.39,140,226.39,144,232.39,140,226.39,136,220.39,140" style="stroke: #A80036; stroke-width: 1.0;"/><text fill="#000000" font-family="sans-serif" font-size="13" lengthAdjust="spacingAndGlyphs" textLength="81" x="200.8703" y="105.2186">debugColour</text><!--MD5=[3f3767c5a2d80e3ea0cbb1590113589b]
@startuml
class PathDecor {
}
class "List`1"<T> {
}
MonoBehaviour <|- - PathDecor
PathDecor - -> "waypoints<Transform>" "List`1"
PathDecor o-> "debugColour" Color
@enduml

PlantUML version 1.2020.02(Sun Mar 01 10:22:07 GMT 2020)
(GPL source distribution)
Java Runtime: OpenJDK Runtime Environment
JVM: OpenJDK 64-Bit Server VM
Java Version: 11.0.9+11-Ubuntu-0ubuntu1
Operating System: Linux
Default Encoding: ANSI_X3.4-1968
Language: en
Country: US
--></g></svg>