<?xml version="1.0" encoding="UTF-8" standalone="no"?><svg xmlns="http://www.w3.org/2000/svg" xmlns:xlink="http://www.w3.org/1999/xlink" contentScriptType="application/ecmascript" contentStyleType="text/css" height="513px" preserveAspectRatio="none" style="width:292px;height:513px;" version="1.1" viewBox="0 0 292 513" width="292px" zoomAndPan="magnify"><defs><filter height="300%" id="fou7ljv87iha8" width="300%" x="-1" y="-1"><feGaussianBlur result="blurOut" stdDeviation="2.0"/><feColorMatrix in="blurOut" result="blurOut2" type="matrix" values="0 0 0 0 0 0 0 0 0 0 0 0 0 0 0 0 0 0 .4 0"/><feOffset dx="4.0" dy="4.0" in="blurOut2" result="blurOut3"/><feBlend in="SourceGraphic" in2="blurOut3" mode="normal"/></filter></defs><g><!--MD5=[f221449f0e08c3d7ed1ffff2c88e9145]
class PathMover--><rect fill="#FEFECE" filter="url(#fou7ljv87iha8)" height="278.4844" id="PathMover" style="stroke: #A80036; stroke-width: 1.5;" width="258" x="23" y="116"/><ellipse cx="114.75" cy="132" fill="#ADD1B2" rx="11" ry="11" style="stroke: #A80036; stroke-width: 1.0;"/><path d="M117.7188,137.6406 Q117.1406,137.9375 116.5,138.0781 Q115.8594,138.2344 115.1563,138.2344 Q112.6563,138.2344 111.3281,136.5938 Q110.0156,134.9375 110.0156,131.8125 Q110.0156,128.6875 111.3281,127.0313 Q112.6563,125.375 115.1563,125.375 Q115.8594,125.375 116.5,125.5313 Q117.1563,125.6875 117.7188,125.9844 L117.7188,128.7031 Q117.0938,128.125 116.5,127.8594 Q115.9063,127.5781 115.2813,127.5781 Q113.9375,127.5781 113.25,128.6563 Q112.5625,129.7188 112.5625,131.8125 Q112.5625,133.9063 113.25,134.9844 Q113.9375,136.0469 115.2813,136.0469 Q115.9063,136.0469 116.5,135.7813 Q117.0938,135.5 117.7188,134.9219 L117.7188,137.6406 Z "/><text fill="#000000" font-family="sans-serif" font-size="12" lengthAdjust="spacingAndGlyphs" textLength="66" x="135.25" y="136.1543">PathMover</text><line style="stroke: #A80036; stroke-width: 1.5;" x1="24" x2="280" y1="148" y2="148"/><ellipse cx="34" cy="159" fill="none" rx="3" ry="3" style="stroke: #038048; stroke-width: 1.0;"/><text fill="#000000" font-family="sans-serif" font-size="11" lengthAdjust="spacingAndGlyphs" textLength="111" x="43" y="162.2104">speed : float = 5.0f</text><ellipse cx="34" cy="171.8047" fill="none" rx="3" ry="3" style="stroke: #038048; stroke-width: 1.0;"/><text fill="#000000" font-family="sans-serif" font-size="11" lengthAdjust="spacingAndGlyphs" textLength="108" x="43" y="175.0151">mass : float = 5.0f</text><ellipse cx="34" cy="184.6094" fill="none" rx="3" ry="3" style="stroke: #038048; stroke-width: 1.0;"/><text fill="#000000" font-family="sans-serif" font-size="11" lengthAdjust="spacingAndGlyphs" textLength="138" x="43" y="187.8198">maxSteer : float = 15.0f</text><ellipse cx="34" cy="197.4141" fill="none" rx="3" ry="3" style="stroke: #038048; stroke-width: 1.0;"/><text fill="#000000" font-family="sans-serif" font-size="11" lengthAdjust="spacingAndGlyphs" textLength="139" x="43" y="200.6245">pathRadius : float = 1.0f</text><ellipse cx="34" cy="210.2188" fill="none" rx="3" ry="3" style="stroke: #038048; stroke-width: 1.0;"/><text fill="#000000" font-family="sans-serif" font-size="11" lengthAdjust="spacingAndGlyphs" textLength="171" x="43" y="213.4292">currentWaypointIndex : int = 0</text><ellipse cx="34" cy="223.0234" fill="none" rx="3" ry="3" style="stroke: #038048; stroke-width: 1.0;"/><text fill="#000000" font-family="sans-serif" font-size="11" lengthAdjust="spacingAndGlyphs" textLength="36" x="43" y="226.2339">id : int</text><ellipse cx="34" cy="235.8281" fill="none" rx="3" ry="3" style="stroke: #038048; stroke-width: 1.0;"/><text fill="#000000" font-family="sans-serif" font-size="11" lengthAdjust="spacingAndGlyphs" textLength="134" x="43" y="239.0386">hadLoiter : bool = false</text><ellipse cx="34" cy="248.6328" fill="none" rx="3" ry="3" style="stroke: #038048; stroke-width: 1.0;"/><text fill="#000000" font-family="sans-serif" font-size="11" lengthAdjust="spacingAndGlyphs" textLength="146" x="43" y="251.8433">canChangeY : bool = true</text><ellipse cx="34" cy="261.4375" fill="none" rx="3" ry="3" style="stroke: #038048; stroke-width: 1.0;"/><text fill="#000000" font-family="sans-serif" font-size="11" lengthAdjust="spacingAndGlyphs" textLength="130" x="43" y="264.6479">startWalkTime : int = 8</text><ellipse cx="34" cy="274.2422" fill="none" rx="3" ry="3" style="stroke: #038048; stroke-width: 1.0;"/><text fill="#000000" font-family="sans-serif" font-size="11" lengthAdjust="spacingAndGlyphs" textLength="131" x="43" y="277.4526">endWalkTime : int = 17</text><ellipse cx="34" cy="287.0469" fill="none" rx="3" ry="3" style="stroke: #038048; stroke-width: 1.0;"/><text fill="#000000" font-family="sans-serif" font-size="11" lengthAdjust="spacingAndGlyphs" textLength="104" x="43" y="290.2573">first : bool = false</text><ellipse cx="34" cy="299.8516" fill="none" rx="3" ry="3" style="stroke: #038048; stroke-width: 1.0;"/><text fill="#000000" font-family="sans-serif" font-size="11" lengthAdjust="spacingAndGlyphs" textLength="102" x="43" y="303.062">late : bool = false</text><ellipse cx="34" cy="312.6563" fill="none" rx="3" ry="3" style="stroke: #038048; stroke-width: 1.0;"/><text fill="#000000" font-family="sans-serif" font-size="11" lengthAdjust="spacingAndGlyphs" textLength="115" x="43" y="315.8667">inside : bool = false</text><line style="stroke: #A80036; stroke-width: 1.5;" x1="24" x2="280" y1="322.4609" y2="322.4609"/><text fill="#000000" font-family="sans-serif" font-size="11" lengthAdjust="spacingAndGlyphs" textLength="71" x="43" y="336.6714">Start() : void</text><ellipse cx="34" cy="346.2656" fill="#84BE84" rx="3" ry="3" style="stroke: #038048; stroke-width: 1.0;"/><text fill="#000000" font-family="sans-serif" font-size="11" lengthAdjust="spacingAndGlyphs" textLength="178" x="43" y="349.4761">SetDefaultPath(newId:int) : void</text><text fill="#000000" font-family="sans-serif" font-size="11" lengthAdjust="spacingAndGlyphs" textLength="83" x="43" y="362.2808">Update() : void</text><ellipse cx="34" cy="371.875" fill="#84BE84" rx="3" ry="3" style="stroke: #038048; stroke-width: 1.0;"/><text fill="#000000" font-family="sans-serif" font-size="11" lengthAdjust="spacingAndGlyphs" textLength="110" x="43" y="375.0854">GetStartTime() : int</text><ellipse cx="34" cy="384.6797" fill="#84BE84" rx="3" ry="3" style="stroke: #038048; stroke-width: 1.0;"/><text fill="#000000" font-family="sans-serif" font-size="11" lengthAdjust="spacingAndGlyphs" textLength="232" x="43" y="387.8901">Talk(time:int, pos:Vector3) : IEnumerator</text><!--MD5=[e644022de7dea015dd09463c37421447]
class List`1--><rect fill="#FEFECE" filter="url(#fou7ljv87iha8)" height="48" id="List`1" style="stroke: #A80036; stroke-width: 1.5;" width="78" x="113" y="454"/><ellipse cx="128" cy="470" fill="#ADD1B2" rx="11" ry="11" style="stroke: #A80036; stroke-width: 1.0;"/><path d="M130.9688,475.6406 Q130.3906,475.9375 129.75,476.0781 Q129.1094,476.2344 128.4063,476.2344 Q125.9063,476.2344 124.5781,474.5938 Q123.2656,472.9375 123.2656,469.8125 Q123.2656,466.6875 124.5781,465.0313 Q125.9063,463.375 128.4063,463.375 Q129.1094,463.375 129.75,463.5313 Q130.4063,463.6875 130.9688,463.9844 L130.9688,466.7031 Q130.3438,466.125 129.75,465.8594 Q129.1563,465.5781 128.5313,465.5781 Q127.1875,465.5781 126.5,466.6563 Q125.8125,467.7188 125.8125,469.8125 Q125.8125,471.9063 126.5,472.9844 Q127.1875,474.0469 128.5313,474.0469 Q129.1563,474.0469 129.75,473.7813 Q130.3438,473.5 130.9688,472.9219 L130.9688,475.6406 Z "/><text fill="#000000" font-family="sans-serif" font-size="12" lengthAdjust="spacingAndGlyphs" textLength="35" x="142" y="474.1543">List`1</text><rect fill="#FFFFFF" height="15.9688" style="stroke: #000000; stroke-width: 1.0; stroke-dasharray: 2.0,2.0;" width="9" x="185" y="451"/><text fill="#000000" font-family="sans-serif" font-size="12" font-style="italic" lengthAdjust="spacingAndGlyphs" textLength="7" x="186" y="463.1387">T</text><line style="stroke: #A80036; stroke-width: 1.5;" x1="114" x2="190" y1="486" y2="486"/><line style="stroke: #A80036; stroke-width: 1.5;" x1="114" x2="190" y1="494" y2="494"/><!--MD5=[83b3cf3d23d77c6f1e1b5291a241bc2a]
class MonoBehaviour--><rect fill="#FEFECE" filter="url(#fou7ljv87iha8)" height="48" id="MonoBehaviour" style="stroke: #A80036; stroke-width: 1.5;" width="128" x="88" y="8"/><ellipse cx="103" cy="24" fill="#ADD1B2" rx="11" ry="11" style="stroke: #A80036; stroke-width: 1.0;"/><path d="M105.9688,29.6406 Q105.3906,29.9375 104.75,30.0781 Q104.1094,30.2344 103.4063,30.2344 Q100.9063,30.2344 99.5781,28.5938 Q98.2656,26.9375 98.2656,23.8125 Q98.2656,20.6875 99.5781,19.0313 Q100.9063,17.375 103.4063,17.375 Q104.1094,17.375 104.75,17.5313 Q105.4063,17.6875 105.9688,17.9844 L105.9688,20.7031 Q105.3438,20.125 104.75,19.8594 Q104.1563,19.5781 103.5313,19.5781 Q102.1875,19.5781 101.5,20.6563 Q100.8125,21.7188 100.8125,23.8125 Q100.8125,25.9063 101.5,26.9844 Q102.1875,28.0469 103.5313,28.0469 Q104.1563,28.0469 104.75,27.7813 Q105.3438,27.5 105.9688,26.9219 L105.9688,29.6406 Z "/><text fill="#000000" font-family="sans-serif" font-size="12" lengthAdjust="spacingAndGlyphs" textLength="96" x="117" y="28.1543">MonoBehaviour</text><line style="stroke: #A80036; stroke-width: 1.5;" x1="89" x2="215" y1="40" y2="40"/><line style="stroke: #A80036; stroke-width: 1.5;" x1="89" x2="215" y1="48" y2="48"/><!--MD5=[62a393f6f714832aa2819703105261bb]
reverse link MonoBehaviour to PathMover--><path d="M152,76.61 C152,88.39 152,101.78 152,115.82 " fill="none" id="MonoBehaviour&lt;-PathMover" style="stroke: #A80036; stroke-width: 1.0;"/><polygon fill="none" points="145,76.23,152,56.23,159,76.23,145,76.23" style="stroke: #A80036; stroke-width: 1.0;"/><!--MD5=[727b9d2c3d8d096e45b3a9bcfe1a8814]
link PathMover to List`1--><path d="M152,394.08 C152,414.59 152,433.75 152,448.48 " fill="none" id="PathMover-&gt;List`1" style="stroke: #A80036; stroke-width: 1.0;"/><polygon fill="#A80036" points="152,453.7,156,444.7,152,448.7,148,444.7,152,453.7" style="stroke: #A80036; stroke-width: 1.0;"/><text fill="#000000" font-family="sans-serif" font-size="13" lengthAdjust="spacingAndGlyphs" textLength="131" x="5.0344" y="443.0318">path&lt;GameObject&gt;</text><!--MD5=[8eda3f5e27ceae32e476eda238bbe54f]
@startuml
class PathMover {
    + speed : float = 5.0f
    + mass : float = 5.0f
    + maxSteer : float = 15.0f
    + pathRadius : float = 1.0f
    + currentWaypointIndex : int = 0
    + id : int
    + hadLoiter : bool = false
    + canChangeY : bool = true
    + startWalkTime : int = 8
    + endWalkTime : int = 17
    + first : bool = false
    + late : bool = false
    + inside : bool = false
    Start() : void
    + SetDefaultPath(newId:int) : void
    Update() : void
    + GetStartTime() : int
    + Talk(time:int, pos:Vector3) : IEnumerator
}
class "List`1"<T> {
}
MonoBehaviour <|- - PathMover
PathMover - -> "path<GameObject>" "List`1"
@enduml

PlantUML version 1.2020.02(Sun Mar 01 10:22:07 GMT 2020)
(GPL source distribution)
Java Runtime: OpenJDK Runtime Environment
JVM: OpenJDK 64-Bit Server VM
Java Version: 11.0.9+11-Ubuntu-0ubuntu1
Operating System: Linux
Default Encoding: ANSI_X3.4-1968
Language: en
Country: US
--></g></svg>