<?xml version="1.0" encoding="UTF-8" standalone="no"?><svg xmlns="http://www.w3.org/2000/svg" xmlns:xlink="http://www.w3.org/1999/xlink" contentScriptType="application/ecmascript" contentStyleType="text/css" height="175px" preserveAspectRatio="none" style="width:578px;height:175px;" version="1.1" viewBox="0 0 578 175" width="578px" zoomAndPan="magnify"><defs><filter height="300%" id="f61itp8rdgc65" width="300%" x="-1" y="-1"><feGaussianBlur result="blurOut" stdDeviation="2.0"/><feColorMatrix in="blurOut" result="blurOut2" type="matrix" values="0 0 0 0 0 0 0 0 0 0 0 0 0 0 0 0 0 0 .4 0"/><feOffset dx="4.0" dy="4.0" in="blurOut2" result="blurOut3"/><feBlend in="SourceGraphic" in2="blurOut3" mode="normal"/></filter></defs><g><!--MD5=[104a394afe83e3a61478ac461f557c1f]
class PathFollowing--><rect fill="#FEFECE" filter="url(#f61itp8rdgc65)" height="48" id="PathFollowing" style="stroke: #A80036; stroke-width: 1.5;" width="118" x="11" y="116"/><ellipse cx="26" cy="132" fill="#ADD1B2" rx="11" ry="11" style="stroke: #A80036; stroke-width: 1.0;"/><path d="M28.9688,137.6406 Q28.3906,137.9375 27.75,138.0781 Q27.1094,138.2344 26.4063,138.2344 Q23.9063,138.2344 22.5781,136.5938 Q21.2656,134.9375 21.2656,131.8125 Q21.2656,128.6875 22.5781,127.0313 Q23.9063,125.375 26.4063,125.375 Q27.1094,125.375 27.75,125.5313 Q28.4063,125.6875 28.9688,125.9844 L28.9688,128.7031 Q28.3438,128.125 27.75,127.8594 Q27.1563,127.5781 26.5313,127.5781 Q25.1875,127.5781 24.5,128.6563 Q23.8125,129.7188 23.8125,131.8125 Q23.8125,133.9063 24.5,134.9844 Q25.1875,136.0469 26.5313,136.0469 Q27.1563,136.0469 27.75,135.7813 Q28.3438,135.5 28.9688,134.9219 L28.9688,137.6406 Z "/><text fill="#000000" font-family="sans-serif" font-size="12" lengthAdjust="spacingAndGlyphs" textLength="86" x="40" y="136.1543">PathFollowing</text><line style="stroke: #A80036; stroke-width: 1.5;" x1="12" x2="128" y1="148" y2="148"/><line style="stroke: #A80036; stroke-width: 1.5;" x1="12" x2="128" y1="156" y2="156"/><!--MD5=[a11544de820a927b3dbade298cf8c341]
class Action`1--><rect fill="#FEFECE" filter="url(#f61itp8rdgc65)" height="48" id="Action`1" style="stroke: #A80036; stroke-width: 1.5;" width="96" x="164" y="116"/><ellipse cx="179" cy="132" fill="#ADD1B2" rx="11" ry="11" style="stroke: #A80036; stroke-width: 1.0;"/><path d="M181.9688,137.6406 Q181.3906,137.9375 180.75,138.0781 Q180.1094,138.2344 179.4063,138.2344 Q176.9063,138.2344 175.5781,136.5938 Q174.2656,134.9375 174.2656,131.8125 Q174.2656,128.6875 175.5781,127.0313 Q176.9063,125.375 179.4063,125.375 Q180.1094,125.375 180.75,125.5313 Q181.4063,125.6875 181.9688,125.9844 L181.9688,128.7031 Q181.3438,128.125 180.75,127.8594 Q180.1563,127.5781 179.5313,127.5781 Q178.1875,127.5781 177.5,128.6563 Q176.8125,129.7188 176.8125,131.8125 Q176.8125,133.9063 177.5,134.9844 Q178.1875,136.0469 179.5313,136.0469 Q180.1563,136.0469 180.75,135.7813 Q181.3438,135.5 181.9688,134.9219 L181.9688,137.6406 Z "/><text fill="#000000" font-family="sans-serif" font-size="12" lengthAdjust="spacingAndGlyphs" textLength="53" x="193" y="136.1543">Action`1</text><rect fill="#FFFFFF" height="15.9688" style="stroke: #000000; stroke-width: 1.0; stroke-dasharray: 2.0,2.0;" width="9" x="254" y="113"/><text fill="#000000" font-family="sans-serif" font-size="12" font-style="italic" lengthAdjust="spacingAndGlyphs" textLength="7" x="255" y="125.1387">T</text><line style="stroke: #A80036; stroke-width: 1.5;" x1="165" x2="259" y1="148" y2="148"/><line style="stroke: #A80036; stroke-width: 1.5;" x1="165" x2="259" y1="156" y2="156"/><!--MD5=[83b3cf3d23d77c6f1e1b5291a241bc2a]
class MonoBehaviour--><rect fill="#FEFECE" filter="url(#f61itp8rdgc65)" height="48" id="MonoBehaviour" style="stroke: #A80036; stroke-width: 1.5;" width="128" x="6" y="8"/><ellipse cx="21" cy="24" fill="#ADD1B2" rx="11" ry="11" style="stroke: #A80036; stroke-width: 1.0;"/><path d="M23.9688,29.6406 Q23.3906,29.9375 22.75,30.0781 Q22.1094,30.2344 21.4063,30.2344 Q18.9063,30.2344 17.5781,28.5938 Q16.2656,26.9375 16.2656,23.8125 Q16.2656,20.6875 17.5781,19.0313 Q18.9063,17.375 21.4063,17.375 Q22.1094,17.375 22.75,17.5313 Q23.4063,17.6875 23.9688,17.9844 L23.9688,20.7031 Q23.3438,20.125 22.75,19.8594 Q22.1563,19.5781 21.5313,19.5781 Q20.1875,19.5781 19.5,20.6563 Q18.8125,21.7188 18.8125,23.8125 Q18.8125,25.9063 19.5,26.9844 Q20.1875,28.0469 21.5313,28.0469 Q22.1563,28.0469 22.75,27.7813 Q23.3438,27.5 23.9688,26.9219 L23.9688,29.6406 Z "/><text fill="#000000" font-family="sans-serif" font-size="12" lengthAdjust="spacingAndGlyphs" textLength="96" x="35" y="28.1543">MonoBehaviour</text><line style="stroke: #A80036; stroke-width: 1.5;" x1="7" x2="133" y1="40" y2="40"/><line style="stroke: #A80036; stroke-width: 1.5;" x1="7" x2="133" y1="48" y2="48"/><!--MD5=[d15b291b44751cd3126d3847d8d6d9c8]
reverse link MonoBehaviour to PathFollowing--><path d="M70,76.02 C70,89.58 70,104.04 70,115.68 " fill="none" id="MonoBehaviour&lt;-PathFollowing" style="stroke: #A80036; stroke-width: 1.0;"/><polygon fill="none" points="63,76,70,56,77,76,63,76" style="stroke: #A80036; stroke-width: 1.0;"/><!--MD5=[78ad610734bc6d152a751a42e862e09b]
link PathFollowing to Action`1--><path d="M141.07,140 C141.07,140 147.91,140 150.7,140 " fill="none" id="PathFollowing-Action`1" style="stroke: #A80036; stroke-width: 1.0;"/><polygon fill="#A80036" points="163.73,140,154.73,136,158.73,140,154.73,144,163.73,140" style="stroke: #A80036; stroke-width: 1.0;"/><line style="stroke: #A80036; stroke-width: 1.0;" x1="158.73" x2="150.73" y1="140" y2="140"/><polygon fill="#FFFFFF" points="129.07,140,135.07,144,141.07,140,135.07,136,129.07,140" style="stroke: #A80036; stroke-width: 1.0;"/><text fill="#000000" font-family="sans-serif" font-size="13" lengthAdjust="spacingAndGlyphs" textLength="299" x="267.4908" y="129.4475">OnNewPathCreated&lt;IEnumerable&lt;Vector3&gt;&gt;</text><!--MD5=[b5dd4ba11beb27deab4db22d3143b054]
@startuml
class PathFollowing {
}
class "Action`1"<T> {
}
MonoBehaviour <|- - PathFollowing
PathFollowing o-> "OnNewPathCreated<IEnumerable<Vector3>>" "Action`1"
@enduml

PlantUML version 1.2020.02(Sun Mar 01 10:22:07 GMT 2020)
(GPL source distribution)
Java Runtime: OpenJDK Runtime Environment
JVM: OpenJDK 64-Bit Server VM
Java Version: 11.0.9+11-Ubuntu-0ubuntu1
Operating System: Linux
Default Encoding: ANSI_X3.4-1968
Language: en
Country: US
--></g></svg>