<?xml version="1.0" encoding="UTF-8" standalone="no"?><svg xmlns="http://www.w3.org/2000/svg" xmlns:xlink="http://www.w3.org/1999/xlink" contentScriptType="application/ecmascript" contentStyleType="text/css" height="213px" preserveAspectRatio="none" style="width:268px;height:213px;" version="1.1" viewBox="0 0 268 213" width="268px" zoomAndPan="magnify"><defs><filter height="300%" id="f3tv6m8wg25dw" width="300%" x="-1" y="-1"><feGaussianBlur result="blurOut" stdDeviation="2.0"/><feColorMatrix in="blurOut" result="blurOut2" type="matrix" values="0 0 0 0 0 0 0 0 0 0 0 0 0 0 0 0 0 0 .4 0"/><feOffset dx="4.0" dy="4.0" in="blurOut2" result="blurOut3"/><feBlend in="SourceGraphic" in2="blurOut3" mode="normal"/></filter></defs><g><!--MD5=[89f476bbcbbb8c2ba802ad398ab74444]
class PathCellController--><rect fill="#FEFECE" filter="url(#f3tv6m8wg25dw)" height="86.4141" id="PathCellController" style="stroke: #A80036; stroke-width: 1.5;" width="251" x="6" y="116"/><ellipse cx="71.25" cy="132" fill="#ADD1B2" rx="11" ry="11" style="stroke: #A80036; stroke-width: 1.0;"/><path d="M74.2188,137.6406 Q73.6406,137.9375 73,138.0781 Q72.3594,138.2344 71.6563,138.2344 Q69.1563,138.2344 67.8281,136.5938 Q66.5156,134.9375 66.5156,131.8125 Q66.5156,128.6875 67.8281,127.0313 Q69.1563,125.375 71.6563,125.375 Q72.3594,125.375 73,125.5313 Q73.6563,125.6875 74.2188,125.9844 L74.2188,128.7031 Q73.5938,128.125 73,127.8594 Q72.4063,127.5781 71.7813,127.5781 Q70.4375,127.5781 69.75,128.6563 Q69.0625,129.7188 69.0625,131.8125 Q69.0625,133.9063 69.75,134.9844 Q70.4375,136.0469 71.7813,136.0469 Q72.4063,136.0469 73,135.7813 Q73.5938,135.5 74.2188,134.9219 L74.2188,137.6406 Z "/><text fill="#000000" font-family="sans-serif" font-size="12" lengthAdjust="spacingAndGlyphs" textLength="112" x="91.75" y="136.1543">PathCellController</text><line style="stroke: #A80036; stroke-width: 1.5;" x1="7" x2="256" y1="148" y2="148"/><line style="stroke: #A80036; stroke-width: 1.5;" x1="7" x2="256" y1="156" y2="156"/><ellipse cx="17" cy="167" fill="#84BE84" rx="3" ry="3" style="stroke: #038048; stroke-width: 1.0;"/><text fill="#000000" font-family="sans-serif" font-size="11" lengthAdjust="spacingAndGlyphs" textLength="114" x="26" y="170.2104">GetLoiterTime() : int</text><ellipse cx="17" cy="179.8047" fill="#84BE84" rx="3" ry="3" style="stroke: #038048; stroke-width: 1.0;"/><text fill="#000000" font-family="sans-serif" font-size="11" lengthAdjust="spacingAndGlyphs" textLength="225" x="26" y="183.0151">IncreaseLoiterTime(newLoiter:int) : void</text><ellipse cx="17" cy="192.6094" fill="#84BE84" rx="3" ry="3" style="stroke: #038048; stroke-width: 1.0;"/><text fill="#000000" font-family="sans-serif" font-size="11" lengthAdjust="spacingAndGlyphs" textLength="104" x="26" y="195.8198">GetAtShop() : bool</text><!--MD5=[83b3cf3d23d77c6f1e1b5291a241bc2a]
class MonoBehaviour--><rect fill="#FEFECE" filter="url(#f3tv6m8wg25dw)" height="48" id="MonoBehaviour" style="stroke: #A80036; stroke-width: 1.5;" width="128" x="67.5" y="8"/><ellipse cx="82.5" cy="24" fill="#ADD1B2" rx="11" ry="11" style="stroke: #A80036; stroke-width: 1.0;"/><path d="M85.4688,29.6406 Q84.8906,29.9375 84.25,30.0781 Q83.6094,30.2344 82.9063,30.2344 Q80.4063,30.2344 79.0781,28.5938 Q77.7656,26.9375 77.7656,23.8125 Q77.7656,20.6875 79.0781,19.0313 Q80.4063,17.375 82.9063,17.375 Q83.6094,17.375 84.25,17.5313 Q84.9063,17.6875 85.4688,17.9844 L85.4688,20.7031 Q84.8438,20.125 84.25,19.8594 Q83.6563,19.5781 83.0313,19.5781 Q81.6875,19.5781 81,20.6563 Q80.3125,21.7188 80.3125,23.8125 Q80.3125,25.9063 81,26.9844 Q81.6875,28.0469 83.0313,28.0469 Q83.6563,28.0469 84.25,27.7813 Q84.8438,27.5 85.4688,26.9219 L85.4688,29.6406 Z "/><text fill="#000000" font-family="sans-serif" font-size="12" lengthAdjust="spacingAndGlyphs" textLength="96" x="96.5" y="28.1543">MonoBehaviour</text><line style="stroke: #A80036; stroke-width: 1.5;" x1="68.5" x2="194.5" y1="40" y2="40"/><line style="stroke: #A80036; stroke-width: 1.5;" x1="68.5" x2="194.5" y1="48" y2="48"/><!--MD5=[7d2b61b6927ea33359b5ef80d9cfe3ea]
reverse link MonoBehaviour to PathCellController--><path d="M131.5,76.27 C131.5,89.12 131.5,103.17 131.5,115.94 " fill="none" id="MonoBehaviour&lt;-PathCellController" style="stroke: #A80036; stroke-width: 1.0;"/><polygon fill="none" points="124.5,76.22,131.5,56.22,138.5,76.22,124.5,76.22" style="stroke: #A80036; stroke-width: 1.0;"/><!--MD5=[54fb5657c7d24e1ce560bf331677c0d6]
@startuml
class PathCellController {
    + GetLoiterTime() : int
    + IncreaseLoiterTime(newLoiter:int) : void
    + GetAtShop() : bool
}
MonoBehaviour <|- - PathCellController
@enduml

PlantUML version 1.2020.02(Sun Mar 01 10:22:07 GMT 2020)
(GPL source distribution)
Java Runtime: OpenJDK Runtime Environment
JVM: OpenJDK 64-Bit Server VM
Java Version: 11.0.9+11-Ubuntu-0ubuntu1
Operating System: Linux
Default Encoding: ANSI_X3.4-1968
Language: en
Country: US
--></g></svg>