<?xml version="1.0" encoding="UTF-8" standalone="no"?><svg xmlns="http://www.w3.org/2000/svg" xmlns:xlink="http://www.w3.org/1999/xlink" contentScriptType="application/ecmascript" contentStyleType="text/css" height="309px" preserveAspectRatio="none" style="width:272px;height:309px;" version="1.1" viewBox="0 0 272 309" width="272px" zoomAndPan="magnify"><defs><filter height="300%" id="fq9nduxhlvsj4" width="300%" x="-1" y="-1"><feGaussianBlur result="blurOut" stdDeviation="2.0"/><feColorMatrix in="blurOut" result="blurOut2" type="matrix" values="0 0 0 0 0 0 0 0 0 0 0 0 0 0 0 0 0 0 .4 0"/><feOffset dx="4.0" dy="4.0" in="blurOut2" result="blurOut3"/><feBlend in="SourceGraphic" in2="blurOut3" mode="normal"/></filter></defs><g><!--MD5=[bd8d3343deb6157d578859c0d78d7876]
class PlantController--><rect fill="#FEFECE" filter="url(#fq9nduxhlvsj4)" height="73.6094" id="PlantController" style="stroke: #A80036; stroke-width: 1.5;" width="231" x="6" y="116"/><ellipse cx="70.75" cy="132" fill="#ADD1B2" rx="11" ry="11" style="stroke: #A80036; stroke-width: 1.0;"/><path d="M73.7188,137.6406 Q73.1406,137.9375 72.5,138.0781 Q71.8594,138.2344 71.1563,138.2344 Q68.6563,138.2344 67.3281,136.5938 Q66.0156,134.9375 66.0156,131.8125 Q66.0156,128.6875 67.3281,127.0313 Q68.6563,125.375 71.1563,125.375 Q71.8594,125.375 72.5,125.5313 Q73.1563,125.6875 73.7188,125.9844 L73.7188,128.7031 Q73.0938,128.125 72.5,127.8594 Q71.9063,127.5781 71.2813,127.5781 Q69.9375,127.5781 69.25,128.6563 Q68.5625,129.7188 68.5625,131.8125 Q68.5625,133.9063 69.25,134.9844 Q69.9375,136.0469 71.2813,136.0469 Q71.9063,136.0469 72.5,135.7813 Q73.0938,135.5 73.7188,134.9219 L73.7188,137.6406 Z "/><text fill="#000000" font-family="sans-serif" font-size="12" lengthAdjust="spacingAndGlyphs" textLength="93" x="91.25" y="136.1543">PlantController</text><line style="stroke: #A80036; stroke-width: 1.5;" x1="7" x2="236" y1="148" y2="148"/><line style="stroke: #A80036; stroke-width: 1.5;" x1="7" x2="236" y1="156" y2="156"/><ellipse cx="17" cy="167" fill="#84BE84" rx="3" ry="3" style="stroke: #038048; stroke-width: 1.0;"/><text fill="#000000" font-family="sans-serif" font-size="11" lengthAdjust="spacingAndGlyphs" textLength="205" x="26" y="170.2104">getPlant(name:string) : GameObject</text><ellipse cx="17" cy="179.8047" fill="#84BE84" rx="3" ry="3" style="stroke: #038048; stroke-width: 1.0;"/><text fill="#000000" font-family="sans-serif" font-size="11" lengthAdjust="spacingAndGlyphs" textLength="202" x="26" y="183.0151">getFruit(name:string) : GameObject</text><!--MD5=[83b3cf3d23d77c6f1e1b5291a241bc2a]
class MonoBehaviour--><rect fill="#FEFECE" filter="url(#fq9nduxhlvsj4)" height="48" id="MonoBehaviour" style="stroke: #A80036; stroke-width: 1.5;" width="128" x="57.5" y="8"/><ellipse cx="72.5" cy="24" fill="#ADD1B2" rx="11" ry="11" style="stroke: #A80036; stroke-width: 1.0;"/><path d="M75.4688,29.6406 Q74.8906,29.9375 74.25,30.0781 Q73.6094,30.2344 72.9063,30.2344 Q70.4063,30.2344 69.0781,28.5938 Q67.7656,26.9375 67.7656,23.8125 Q67.7656,20.6875 69.0781,19.0313 Q70.4063,17.375 72.9063,17.375 Q73.6094,17.375 74.25,17.5313 Q74.9063,17.6875 75.4688,17.9844 L75.4688,20.7031 Q74.8438,20.125 74.25,19.8594 Q73.6563,19.5781 73.0313,19.5781 Q71.6875,19.5781 71,20.6563 Q70.3125,21.7188 70.3125,23.8125 Q70.3125,25.9063 71,26.9844 Q71.6875,28.0469 73.0313,28.0469 Q73.6563,28.0469 74.25,27.7813 Q74.8438,27.5 75.4688,26.9219 L75.4688,29.6406 Z "/><text fill="#000000" font-family="sans-serif" font-size="12" lengthAdjust="spacingAndGlyphs" textLength="96" x="86.5" y="28.1543">MonoBehaviour</text><line style="stroke: #A80036; stroke-width: 1.5;" x1="58.5" x2="184.5" y1="40" y2="40"/><line style="stroke: #A80036; stroke-width: 1.5;" x1="58.5" x2="184.5" y1="48" y2="48"/><!--MD5=[064f7a74fee85463ec1a30143664ee17]
class GameObject--><rect fill="#FEFECE" filter="url(#fq9nduxhlvsj4)" height="48" id="GameObject" style="stroke: #A80036; stroke-width: 1.5;" width="108" x="67.5" y="250"/><ellipse cx="82.5" cy="266" fill="#ADD1B2" rx="11" ry="11" style="stroke: #A80036; stroke-width: 1.0;"/><path d="M85.4688,271.6406 Q84.8906,271.9375 84.25,272.0781 Q83.6094,272.2344 82.9063,272.2344 Q80.4063,272.2344 79.0781,270.5938 Q77.7656,268.9375 77.7656,265.8125 Q77.7656,262.6875 79.0781,261.0313 Q80.4063,259.375 82.9063,259.375 Q83.6094,259.375 84.25,259.5313 Q84.9063,259.6875 85.4688,259.9844 L85.4688,262.7031 Q84.8438,262.125 84.25,261.8594 Q83.6563,261.5781 83.0313,261.5781 Q81.6875,261.5781 81,262.6563 Q80.3125,263.7188 80.3125,265.8125 Q80.3125,267.9063 81,268.9844 Q81.6875,270.0469 83.0313,270.0469 Q83.6563,270.0469 84.25,269.7813 Q84.8438,269.5 85.4688,268.9219 L85.4688,271.6406 Z "/><text fill="#000000" font-family="sans-serif" font-size="12" lengthAdjust="spacingAndGlyphs" textLength="76" x="96.5" y="270.1543">GameObject</text><line style="stroke: #A80036; stroke-width: 1.5;" x1="68.5" x2="174.5" y1="282" y2="282"/><line style="stroke: #A80036; stroke-width: 1.5;" x1="68.5" x2="174.5" y1="290" y2="290"/><!--MD5=[579e3d8d9780f8732d827507026db133]
reverse link MonoBehaviour to PlantController--><path d="M121.5,76.43 C121.5,89.33 121.5,103.32 121.5,115.71 " fill="none" id="MonoBehaviour&lt;-PlantController" style="stroke: #A80036; stroke-width: 1.0;"/><polygon fill="none" points="114.5,76.23,121.5,56.23,128.5,76.23,114.5,76.23" style="stroke: #A80036; stroke-width: 1.0;"/><!--MD5=[c597a3795d8940127a97648121c36f57]
link PlantController to GameObject--><path d="M60.99,190.03 C53.38,207.94 54.93,229.23 65.65,245.76 " fill="none" id="PlantController-&gt;GameObject" style="stroke: #A80036; stroke-width: 1.0;"/><polygon fill="#A80036" points="68.58,249.85,66.5942,240.2034,65.6698,245.7842,60.089,244.8598,68.58,249.85" style="stroke: #A80036; stroke-width: 1.0;"/><text fill="#000000" font-family="sans-serif" font-size="13" lengthAdjust="spacingAndGlyphs" textLength="37" x="22.4293" y="242.8702">turnip</text><!--MD5=[c597a3795d8940127a97648121c36f57]
link PlantController to GameObject--><path d="M85.33,190.03 C80.86,207.63 81.68,228.51 87.8,244.91 " fill="none" id="PlantController-&gt;GameObject-1" style="stroke: #A80036; stroke-width: 1.0;"/><polygon fill="#A80036" points="89.87,249.85,90.09,240.0036,87.9419,245.2367,82.7087,243.0886,89.87,249.85" style="stroke: #A80036; stroke-width: 1.0;"/><text fill="#000000" font-family="sans-serif" font-size="13" lengthAdjust="spacingAndGlyphs" textLength="38" x="86.6336" y="238.8236">carrot</text><!--MD5=[c597a3795d8940127a97648121c36f57]
link PlantController to GameObject--><path d="M109.68,190.03 C108.23,207.48 108.48,228.15 110.43,244.49 " fill="none" id="PlantController-&gt;GameObject-2" style="stroke: #A80036; stroke-width: 1.0;"/><polygon fill="#A80036" points="111.16,249.85,113.9158,240.3946,110.4889,244.8952,105.9882,241.4683,111.16,249.85" style="stroke: #A80036; stroke-width: 1.0;"/><text fill="#000000" font-family="sans-serif" font-size="13" lengthAdjust="spacingAndGlyphs" textLength="47" x="114.5322" y="238.8236">tomato</text><!--MD5=[c597a3795d8940127a97648121c36f57]
link PlantController to GameObject--><path d="M134.02,190.03 C135.55,207.48 135.29,228.15 133.22,244.49 " fill="none" id="PlantController-&gt;GameObject-3" style="stroke: #A80036; stroke-width: 1.0;"/><polygon fill="#A80036" points="132.45,249.85,137.6961,241.5146,133.1651,244.9014,129.7783,240.3704,132.45,249.85" style="stroke: #A80036; stroke-width: 1.0;"/><text fill="#000000" font-family="sans-serif" font-size="13" lengthAdjust="spacingAndGlyphs" textLength="67" x="143.8403" y="238.8236">FruitTurnip</text><!--MD5=[c597a3795d8940127a97648121c36f57]
link PlantController to GameObject--><path d="M158.36,190.03 C162.92,207.63 162.08,228.51 155.85,244.91 " fill="none" id="PlantController-&gt;GameObject-4" style="stroke: #A80036; stroke-width: 1.0;"/><polygon fill="#A80036" points="153.74,249.85,160.9619,243.1534,155.7096,245.2543,153.6087,240.002,153.74,249.85" style="stroke: #A80036; stroke-width: 1.0;"/><text fill="#000000" font-family="sans-serif" font-size="13" lengthAdjust="spacingAndGlyphs" textLength="68" x="182.72" y="254.6616">FruitCarrot</text><!--MD5=[c597a3795d8940127a97648121c36f57]
link PlantController to GameObject--><path d="M182.71,190.03 C190.4,207.94 188.83,229.23 177.99,245.76 " fill="none" id="PlantController-&gt;GameObject-5" style="stroke: #A80036; stroke-width: 1.0;"/><polygon fill="#A80036" points="175.03,249.85,183.5409,244.8937,177.9564,245.7959,177.0542,240.2114,175.03,249.85" style="stroke: #A80036; stroke-width: 1.0;"/><text fill="#000000" font-family="sans-serif" font-size="13" lengthAdjust="spacingAndGlyphs" textLength="77" x="183.514" y="244.0053">FruitTomato</text><!--MD5=[3b8f14f26213f3bf88d75a484b108198]
@startuml
class PlantController {
    + getPlant(name:string) : GameObject
    + getFruit(name:string) : GameObject
}
MonoBehaviour <|- - PlantController
PlantController - -> "turnip" GameObject
PlantController - -> "carrot" GameObject
PlantController - -> "tomato" GameObject
PlantController - -> "FruitTurnip" GameObject
PlantController - -> "FruitCarrot" GameObject
PlantController - -> "FruitTomato" GameObject
@enduml

PlantUML version 1.2020.02(Sun Mar 01 10:22:07 GMT 2020)
(GPL source distribution)
Java Runtime: OpenJDK Runtime Environment
JVM: OpenJDK 64-Bit Server VM
Java Version: 11.0.9+11-Ubuntu-0ubuntu1
Operating System: Linux
Default Encoding: ANSI_X3.4-1968
Language: en
Country: US
--></g></svg>