<?xml version="1.0" encoding="UTF-8" standalone="no"?><svg xmlns="http://www.w3.org/2000/svg" xmlns:xlink="http://www.w3.org/1999/xlink" contentScriptType="application/ecmascript" contentStyleType="text/css" height="277px" preserveAspectRatio="none" style="width:210px;height:277px;" version="1.1" viewBox="0 0 210 277" width="210px" zoomAndPan="magnify"><defs><filter height="300%" id="f1gxylmulof3h4" width="300%" x="-1" y="-1"><feGaussianBlur result="blurOut" stdDeviation="2.0"/><feColorMatrix in="blurOut" result="blurOut2" type="matrix" values="0 0 0 0 0 0 0 0 0 0 0 0 0 0 0 0 0 0 .4 0"/><feOffset dx="4.0" dy="4.0" in="blurOut2" result="blurOut3"/><feBlend in="SourceGraphic" in2="blurOut3" mode="normal"/></filter></defs><g><!--MD5=[ae091be3c786b0d08dcf4daae5485be0]
class RoadCellController--><rect fill="#FEFECE" filter="url(#f1gxylmulof3h4)" height="150.4375" id="RoadCellController" style="stroke: #A80036; stroke-width: 1.5;" width="193" x="6" y="116"/><ellipse cx="41.7" cy="132" fill="#ADD1B2" rx="11" ry="11" style="stroke: #A80036; stroke-width: 1.0;"/><path d="M44.6688,137.6406 Q44.0906,137.9375 43.45,138.0781 Q42.8094,138.2344 42.1063,138.2344 Q39.6063,138.2344 38.2781,136.5938 Q36.9656,134.9375 36.9656,131.8125 Q36.9656,128.6875 38.2781,127.0313 Q39.6063,125.375 42.1063,125.375 Q42.8094,125.375 43.45,125.5313 Q44.1063,125.6875 44.6688,125.9844 L44.6688,128.7031 Q44.0438,128.125 43.45,127.8594 Q42.8563,127.5781 42.2313,127.5781 Q40.8875,127.5781 40.2,128.6563 Q39.5125,129.7188 39.5125,131.8125 Q39.5125,133.9063 40.2,134.9844 Q40.8875,136.0469 42.2313,136.0469 Q42.8563,136.0469 43.45,135.7813 Q44.0438,135.5 44.6688,134.9219 L44.6688,137.6406 Z "/><text fill="#000000" font-family="sans-serif" font-size="12" lengthAdjust="spacingAndGlyphs" textLength="115" x="60.3" y="136.1543">RoadCellController</text><line style="stroke: #A80036; stroke-width: 1.5;" x1="7" x2="198" y1="148" y2="148"/><ellipse cx="17" cy="159" fill="none" rx="3" ry="3" style="stroke: #038048; stroke-width: 1.0;"/><text fill="#000000" font-family="sans-serif" font-size="11" lengthAdjust="spacingAndGlyphs" textLength="115" x="26" y="162.2104">InFrontOfLight : bool</text><ellipse cx="17" cy="171.8047" fill="none" rx="3" ry="3" style="stroke: #038048; stroke-width: 1.0;"/><text fill="#000000" font-family="sans-serif" font-size="11" lengthAdjust="spacingAndGlyphs" textLength="88" x="26" y="175.0151">IsParking : bool</text><ellipse cx="17" cy="184.6094" fill="none" rx="3" ry="3" style="stroke: #038048; stroke-width: 1.0;"/><text fill="#000000" font-family="sans-serif" font-size="11" lengthAdjust="spacingAndGlyphs" textLength="78" x="26" y="187.8198">HasCar : bool</text><ellipse cx="17" cy="197.4141" fill="none" rx="3" ry="3" style="stroke: #038048; stroke-width: 1.0;"/><text fill="#000000" font-family="sans-serif" font-size="11" lengthAdjust="spacingAndGlyphs" textLength="128" x="26" y="200.6245">TrafficLightInFront : int</text><line style="stroke: #A80036; stroke-width: 1.5;" x1="7" x2="198" y1="207.2188" y2="207.2188"/><ellipse cx="17" cy="218.2188" fill="#84BE84" rx="3" ry="3" style="stroke: #038048; stroke-width: 1.0;"/><text fill="#000000" font-family="sans-serif" font-size="11" lengthAdjust="spacingAndGlyphs" textLength="167" x="26" y="221.4292">setParked(parked:bool) : void</text><ellipse cx="17" cy="231.0234" fill="#84BE84" rx="3" ry="3" style="stroke: #038048; stroke-width: 1.0;"/><text fill="#000000" font-family="sans-serif" font-size="11" lengthAdjust="spacingAndGlyphs" textLength="119" x="26" y="234.2339">GetNeighbour1() : int</text><ellipse cx="17" cy="243.8281" fill="#84BE84" rx="3" ry="3" style="stroke: #038048; stroke-width: 1.0;"/><text fill="#000000" font-family="sans-serif" font-size="11" lengthAdjust="spacingAndGlyphs" textLength="119" x="26" y="247.0386">GetNeighbour2() : int</text><ellipse cx="17" cy="256.6328" fill="#84BE84" rx="3" ry="3" style="stroke: #038048; stroke-width: 1.0;"/><text fill="#000000" font-family="sans-serif" font-size="11" lengthAdjust="spacingAndGlyphs" textLength="109" x="26" y="259.8433">GetParkingNr() : int</text><!--MD5=[83b3cf3d23d77c6f1e1b5291a241bc2a]
class MonoBehaviour--><rect fill="#FEFECE" filter="url(#f1gxylmulof3h4)" height="48" id="MonoBehaviour" style="stroke: #A80036; stroke-width: 1.5;" width="128" x="38.5" y="8"/><ellipse cx="53.5" cy="24" fill="#ADD1B2" rx="11" ry="11" style="stroke: #A80036; stroke-width: 1.0;"/><path d="M56.4688,29.6406 Q55.8906,29.9375 55.25,30.0781 Q54.6094,30.2344 53.9063,30.2344 Q51.4063,30.2344 50.0781,28.5938 Q48.7656,26.9375 48.7656,23.8125 Q48.7656,20.6875 50.0781,19.0313 Q51.4063,17.375 53.9063,17.375 Q54.6094,17.375 55.25,17.5313 Q55.9063,17.6875 56.4688,17.9844 L56.4688,20.7031 Q55.8438,20.125 55.25,19.8594 Q54.6563,19.5781 54.0313,19.5781 Q52.6875,19.5781 52,20.6563 Q51.3125,21.7188 51.3125,23.8125 Q51.3125,25.9063 52,26.9844 Q52.6875,28.0469 54.0313,28.0469 Q54.6563,28.0469 55.25,27.7813 Q55.8438,27.5 56.4688,26.9219 L56.4688,29.6406 Z "/><text fill="#000000" font-family="sans-serif" font-size="12" lengthAdjust="spacingAndGlyphs" textLength="96" x="67.5" y="28.1543">MonoBehaviour</text><line style="stroke: #A80036; stroke-width: 1.5;" x1="39.5" x2="165.5" y1="40" y2="40"/><line style="stroke: #A80036; stroke-width: 1.5;" x1="39.5" x2="165.5" y1="48" y2="48"/><!--MD5=[7870c39ac1999aacf83fc213515d5f7a]
reverse link MonoBehaviour to RoadCellController--><path d="M102.5,76.38 C102.5,88.67 102.5,102.4 102.5,115.96 " fill="none" id="MonoBehaviour&lt;-RoadCellController" style="stroke: #A80036; stroke-width: 1.0;"/><polygon fill="none" points="95.5,76.17,102.5,56.17,109.5,76.17,95.5,76.17" style="stroke: #A80036; stroke-width: 1.0;"/><!--MD5=[e6667980b819ffea56597c68ecac96d0]
@startuml
class RoadCellController {
    + InFrontOfLight : bool
    + IsParking : bool
    + HasCar : bool
    + TrafficLightInFront : int
    + setParked(parked:bool) : void
    + GetNeighbour1() : int
    + GetNeighbour2() : int
    + GetParkingNr() : int
}
MonoBehaviour <|- - RoadCellController
@enduml

PlantUML version 1.2020.02(Sun Mar 01 10:22:07 GMT 2020)
(GPL source distribution)
Java Runtime: OpenJDK Runtime Environment
JVM: OpenJDK 64-Bit Server VM
Java Version: 11.0.9+11-Ubuntu-0ubuntu1
Operating System: Linux
Default Encoding: ANSI_X3.4-1968
Language: en
Country: US
--></g></svg>