<?xml version="1.0" encoding="UTF-8" standalone="no"?><svg xmlns="http://www.w3.org/2000/svg" xmlns:xlink="http://www.w3.org/1999/xlink" contentScriptType="application/ecmascript" contentStyleType="text/css" height="321px" preserveAspectRatio="none" style="width:446px;height:321px;" version="1.1" viewBox="0 0 446 321" width="446px" zoomAndPan="magnify"><defs><filter height="300%" id="f9twvnhh1l5wy" width="300%" x="-1" y="-1"><feGaussianBlur result="blurOut" stdDeviation="2.0"/><feColorMatrix in="blurOut" result="blurOut2" type="matrix" values="0 0 0 0 0 0 0 0 0 0 0 0 0 0 0 0 0 0 .4 0"/><feOffset dx="4.0" dy="4.0" in="blurOut2" result="blurOut3"/><feBlend in="SourceGraphic" in2="blurOut3" mode="normal"/></filter></defs><g><!--MD5=[039b2ec0cb16902bbe90465d208493ca]
class SeedBagController--><rect fill="#FEFECE" filter="url(#f9twvnhh1l5wy)" height="86.4141" id="SeedBagController" style="stroke: #A80036; stroke-width: 1.5;" width="149" x="152.5" y="116"/><ellipse cx="167.5" cy="132" fill="#ADD1B2" rx="11" ry="11" style="stroke: #A80036; stroke-width: 1.0;"/><path d="M170.4688,137.6406 Q169.8906,137.9375 169.25,138.0781 Q168.6094,138.2344 167.9063,138.2344 Q165.4063,138.2344 164.0781,136.5938 Q162.7656,134.9375 162.7656,131.8125 Q162.7656,128.6875 164.0781,127.0313 Q165.4063,125.375 167.9063,125.375 Q168.6094,125.375 169.25,125.5313 Q169.9063,125.6875 170.4688,125.9844 L170.4688,128.7031 Q169.8438,128.125 169.25,127.8594 Q168.6563,127.5781 168.0313,127.5781 Q166.6875,127.5781 166,128.6563 Q165.3125,129.7188 165.3125,131.8125 Q165.3125,133.9063 166,134.9844 Q166.6875,136.0469 168.0313,136.0469 Q168.6563,136.0469 169.25,135.7813 Q169.8438,135.5 170.4688,134.9219 L170.4688,137.6406 Z "/><text fill="#000000" font-family="sans-serif" font-size="12" lengthAdjust="spacingAndGlyphs" textLength="117" x="181.5" y="136.1543">SeedBagController</text><line style="stroke: #A80036; stroke-width: 1.5;" x1="153.5" x2="300.5" y1="148" y2="148"/><ellipse cx="163.5" cy="159" fill="none" rx="3" ry="3" style="stroke: #038048; stroke-width: 1.0;"/><text fill="#000000" font-family="sans-serif" font-size="11" lengthAdjust="spacingAndGlyphs" textLength="100" x="172.5" y="162.2104">plantType : string</text><ellipse cx="163.5" cy="171.8047" fill="none" rx="3" ry="3" style="stroke: #038048; stroke-width: 1.0;"/><text fill="#000000" font-family="sans-serif" font-size="11" lengthAdjust="spacingAndGlyphs" textLength="99" x="172.5" y="175.0151">plotName : string</text><text fill="#000000" font-family="sans-serif" font-size="11" lengthAdjust="spacingAndGlyphs" textLength="106" x="172.5" y="187.8198">timer : float = 0.5f</text><line style="stroke: #A80036; stroke-width: 1.5;" x1="153.5" x2="300.5" y1="194.4141" y2="194.4141"/><!--MD5=[83b3cf3d23d77c6f1e1b5291a241bc2a]
class MonoBehaviour--><rect fill="#FEFECE" filter="url(#f9twvnhh1l5wy)" height="48" id="MonoBehaviour" style="stroke: #A80036; stroke-width: 1.5;" width="128" x="163" y="8"/><ellipse cx="178" cy="24" fill="#ADD1B2" rx="11" ry="11" style="stroke: #A80036; stroke-width: 1.0;"/><path d="M180.9688,29.6406 Q180.3906,29.9375 179.75,30.0781 Q179.1094,30.2344 178.4063,30.2344 Q175.9063,30.2344 174.5781,28.5938 Q173.2656,26.9375 173.2656,23.8125 Q173.2656,20.6875 174.5781,19.0313 Q175.9063,17.375 178.4063,17.375 Q179.1094,17.375 179.75,17.5313 Q180.4063,17.6875 180.9688,17.9844 L180.9688,20.7031 Q180.3438,20.125 179.75,19.8594 Q179.1563,19.5781 178.5313,19.5781 Q177.1875,19.5781 176.5,20.6563 Q175.8125,21.7188 175.8125,23.8125 Q175.8125,25.9063 176.5,26.9844 Q177.1875,28.0469 178.5313,28.0469 Q179.1563,28.0469 179.75,27.7813 Q180.3438,27.5 180.9688,26.9219 L180.9688,29.6406 Z "/><text fill="#000000" font-family="sans-serif" font-size="12" lengthAdjust="spacingAndGlyphs" textLength="96" x="192" y="28.1543">MonoBehaviour</text><line style="stroke: #A80036; stroke-width: 1.5;" x1="164" x2="290" y1="40" y2="40"/><line style="stroke: #A80036; stroke-width: 1.5;" x1="164" x2="290" y1="48" y2="48"/><!--MD5=[064f7a74fee85463ec1a30143664ee17]
class GameObject--><rect fill="#FEFECE" filter="url(#f9twvnhh1l5wy)" height="48" id="GameObject" style="stroke: #A80036; stroke-width: 1.5;" width="108" x="6" y="262"/><ellipse cx="21" cy="278" fill="#ADD1B2" rx="11" ry="11" style="stroke: #A80036; stroke-width: 1.0;"/><path d="M23.9688,283.6406 Q23.3906,283.9375 22.75,284.0781 Q22.1094,284.2344 21.4063,284.2344 Q18.9063,284.2344 17.5781,282.5938 Q16.2656,280.9375 16.2656,277.8125 Q16.2656,274.6875 17.5781,273.0313 Q18.9063,271.375 21.4063,271.375 Q22.1094,271.375 22.75,271.5313 Q23.4063,271.6875 23.9688,271.9844 L23.9688,274.7031 Q23.3438,274.125 22.75,273.8594 Q22.1563,273.5781 21.5313,273.5781 Q20.1875,273.5781 19.5,274.6563 Q18.8125,275.7188 18.8125,277.8125 Q18.8125,279.9063 19.5,280.9844 Q20.1875,282.0469 21.5313,282.0469 Q22.1563,282.0469 22.75,281.7813 Q23.3438,281.5 23.9688,280.9219 L23.9688,283.6406 Z "/><text fill="#000000" font-family="sans-serif" font-size="12" lengthAdjust="spacingAndGlyphs" textLength="76" x="35" y="282.1543">GameObject</text><line style="stroke: #A80036; stroke-width: 1.5;" x1="7" x2="113" y1="294" y2="294"/><line style="stroke: #A80036; stroke-width: 1.5;" x1="7" x2="113" y1="302" y2="302"/><!--MD5=[bd622505b4ad2c89ad2f9c7a1fb5e1ce]
class InputActionProperty--><rect fill="#FEFECE" filter="url(#f9twvnhh1l5wy)" height="48" id="InputActionProperty" style="stroke: #A80036; stroke-width: 1.5;" width="156" x="149" y="262"/><ellipse cx="164" cy="278" fill="#ADD1B2" rx="11" ry="11" style="stroke: #A80036; stroke-width: 1.0;"/><path d="M166.9688,283.6406 Q166.3906,283.9375 165.75,284.0781 Q165.1094,284.2344 164.4063,284.2344 Q161.9063,284.2344 160.5781,282.5938 Q159.2656,280.9375 159.2656,277.8125 Q159.2656,274.6875 160.5781,273.0313 Q161.9063,271.375 164.4063,271.375 Q165.1094,271.375 165.75,271.5313 Q166.4063,271.6875 166.9688,271.9844 L166.9688,274.7031 Q166.3438,274.125 165.75,273.8594 Q165.1563,273.5781 164.5313,273.5781 Q163.1875,273.5781 162.5,274.6563 Q161.8125,275.7188 161.8125,277.8125 Q161.8125,279.9063 162.5,280.9844 Q163.1875,282.0469 164.5313,282.0469 Q165.1563,282.0469 165.75,281.7813 Q166.3438,281.5 166.9688,280.9219 L166.9688,283.6406 Z "/><text fill="#000000" font-family="sans-serif" font-size="12" lengthAdjust="spacingAndGlyphs" textLength="124" x="178" y="282.1543">InputActionProperty</text><line style="stroke: #A80036; stroke-width: 1.5;" x1="150" x2="304" y1="294" y2="294"/><line style="stroke: #A80036; stroke-width: 1.5;" x1="150" x2="304" y1="302" y2="302"/><!--MD5=[004b1d6c4ca8aad4ba8b586a335ed4f3]
class Transform--><rect fill="#FEFECE" filter="url(#f9twvnhh1l5wy)" height="48" id="Transform" style="stroke: #A80036; stroke-width: 1.5;" width="95" x="340.5" y="262"/><ellipse cx="355.5" cy="278" fill="#ADD1B2" rx="11" ry="11" style="stroke: #A80036; stroke-width: 1.0;"/><path d="M358.4688,283.6406 Q357.8906,283.9375 357.25,284.0781 Q356.6094,284.2344 355.9063,284.2344 Q353.4063,284.2344 352.0781,282.5938 Q350.7656,280.9375 350.7656,277.8125 Q350.7656,274.6875 352.0781,273.0313 Q353.4063,271.375 355.9063,271.375 Q356.6094,271.375 357.25,271.5313 Q357.9063,271.6875 358.4688,271.9844 L358.4688,274.7031 Q357.8438,274.125 357.25,273.8594 Q356.6563,273.5781 356.0313,273.5781 Q354.6875,273.5781 354,274.6563 Q353.3125,275.7188 353.3125,277.8125 Q353.3125,279.9063 354,280.9844 Q354.6875,282.0469 356.0313,282.0469 Q356.6563,282.0469 357.25,281.7813 Q357.8438,281.5 358.4688,280.9219 L358.4688,283.6406 Z "/><text fill="#000000" font-family="sans-serif" font-size="12" lengthAdjust="spacingAndGlyphs" textLength="63" x="369.5" y="282.1543">Transform</text><line style="stroke: #A80036; stroke-width: 1.5;" x1="341.5" x2="434.5" y1="294" y2="294"/><line style="stroke: #A80036; stroke-width: 1.5;" x1="341.5" x2="434.5" y1="302" y2="302"/><!--MD5=[33e02c125ddb8de19eba17429fc1f895]
reverse link MonoBehaviour to SeedBagController--><path d="M227,76.27 C227,89.12 227,103.17 227,115.94 " fill="none" id="MonoBehaviour&lt;-SeedBagController" style="stroke: #A80036; stroke-width: 1.0;"/><polygon fill="none" points="220,76.22,227,56.22,234,76.22,220,76.22" style="stroke: #A80036; stroke-width: 1.0;"/><!--MD5=[8e54aca4b713637a5ceaf2b4a9d489b4]
link SeedBagController to GameObject--><path d="M170.46,202.32 C145.62,220.91 117.22,242.17 95.43,258.48 " fill="none" id="SeedBagController-&gt;GameObject" style="stroke: #A80036; stroke-width: 1.0;"/><polygon fill="#A80036" points="91.17,261.67,100.7737,259.4864,95.1751,258.6768,95.9847,253.0782,91.17,261.67" style="stroke: #A80036; stroke-width: 1.0;"/><text fill="#000000" font-family="sans-serif" font-size="13" lengthAdjust="spacingAndGlyphs" textLength="31" x="63.9896" y="250.9945">seed</text><!--MD5=[082a20f28b2996800efbd212d0e92f28]
link SeedBagController to InputActionProperty--><path d="M227,202.32 C227,220.14 227,240.41 227,256.42 " fill="none" id="SeedBagController-&gt;InputActionProperty" style="stroke: #A80036; stroke-width: 1.0;"/><polygon fill="#A80036" points="227,261.67,231,252.67,227,256.67,223,252.67,227,261.67" style="stroke: #A80036; stroke-width: 1.0;"/><text fill="#000000" font-family="sans-serif" font-size="13" lengthAdjust="spacingAndGlyphs" textLength="69" x="149.5906" y="250.9945">rightSelect</text><!--MD5=[fb93a5d18e52deae987dd7838f01f239]
link SeedBagController to Transform--><path d="M281.51,202.32 C305.45,220.91 332.84,242.17 353.84,258.48 " fill="none" id="SeedBagController-&gt;Transform" style="stroke: #A80036; stroke-width: 1.0;"/><polygon fill="#A80036" points="357.95,261.67,353.2929,252.9918,354.0002,258.6042,348.3877,259.3115,357.95,261.67" style="stroke: #A80036; stroke-width: 1.0;"/><text fill="#000000" font-family="sans-serif" font-size="13" lengthAdjust="spacingAndGlyphs" textLength="74" x="306.7813" y="250.9328">SpawnPoint</text><!--MD5=[bbf9be5cda6a3281b28c444a47a54d1a]
@startuml
class SeedBagController {
    + plantType : string
    + plotName : string
    timer : float = 0.5f
}
MonoBehaviour <|- - SeedBagController
SeedBagController - -> "seed" GameObject
SeedBagController - -> "rightSelect" InputActionProperty
SeedBagController - -> "SpawnPoint" Transform
@enduml

PlantUML version 1.2020.02(Sun Mar 01 10:22:07 GMT 2020)
(GPL source distribution)
Java Runtime: OpenJDK Runtime Environment
JVM: OpenJDK 64-Bit Server VM
Java Version: 11.0.9+11-Ubuntu-0ubuntu1
Operating System: Linux
Default Encoding: ANSI_X3.4-1968
Language: en
Country: US
--></g></svg>