<?xml version="1.0" encoding="UTF-8" standalone="no"?><svg xmlns="http://www.w3.org/2000/svg" xmlns:xlink="http://www.w3.org/1999/xlink" contentScriptType="application/ecmascript" contentStyleType="text/css" height="462px" preserveAspectRatio="none" style="width:261px;height:462px;" version="1.1" viewBox="0 0 261 462" width="261px" zoomAndPan="magnify"><defs><filter height="300%" id="f100vh7i8gcxen" width="300%" x="-1" y="-1"><feGaussianBlur result="blurOut" stdDeviation="2.0"/><feColorMatrix in="blurOut" result="blurOut2" type="matrix" values="0 0 0 0 0 0 0 0 0 0 0 0 0 0 0 0 0 0 .4 0"/><feOffset dx="4.0" dy="4.0" in="blurOut2" result="blurOut3"/><feBlend in="SourceGraphic" in2="blurOut3" mode="normal"/></filter></defs><g><!--MD5=[77504c55b1a4088817751af1ac6dc4da]
class ShopKeeperMover--><rect fill="#FEFECE" filter="url(#f100vh7i8gcxen)" height="227.2656" id="ShopKeeperMover" style="stroke: #A80036; stroke-width: 1.5;" width="197" x="53.5" y="116"/><ellipse cx="91.9" cy="132" fill="#ADD1B2" rx="11" ry="11" style="stroke: #A80036; stroke-width: 1.0;"/><path d="M94.8688,137.6406 Q94.2906,137.9375 93.65,138.0781 Q93.0094,138.2344 92.3063,138.2344 Q89.8063,138.2344 88.4781,136.5938 Q87.1656,134.9375 87.1656,131.8125 Q87.1656,128.6875 88.4781,127.0313 Q89.8063,125.375 92.3063,125.375 Q93.0094,125.375 93.65,125.5313 Q94.3063,125.6875 94.8688,125.9844 L94.8688,128.7031 Q94.2438,128.125 93.65,127.8594 Q93.0563,127.5781 92.4313,127.5781 Q91.0875,127.5781 90.4,128.6563 Q89.7125,129.7188 89.7125,131.8125 Q89.7125,133.9063 90.4,134.9844 Q91.0875,136.0469 92.4313,136.0469 Q93.0563,136.0469 93.65,135.7813 Q94.2438,135.5 94.8688,134.9219 L94.8688,137.6406 Z "/><text fill="#000000" font-family="sans-serif" font-size="12" lengthAdjust="spacingAndGlyphs" textLength="113" x="111.1" y="136.1543">ShopKeeperMover</text><line style="stroke: #A80036; stroke-width: 1.5;" x1="54.5" x2="249.5" y1="148" y2="148"/><ellipse cx="64.5" cy="159" fill="none" rx="3" ry="3" style="stroke: #038048; stroke-width: 1.0;"/><text fill="#000000" font-family="sans-serif" font-size="11" lengthAdjust="spacingAndGlyphs" textLength="111" x="73.5" y="162.2104">speed : float = 5.0f</text><ellipse cx="64.5" cy="171.8047" fill="none" rx="3" ry="3" style="stroke: #038048; stroke-width: 1.0;"/><text fill="#000000" font-family="sans-serif" font-size="11" lengthAdjust="spacingAndGlyphs" textLength="108" x="73.5" y="175.0151">mass : float = 5.0f</text><ellipse cx="64.5" cy="184.6094" fill="none" rx="3" ry="3" style="stroke: #038048; stroke-width: 1.0;"/><text fill="#000000" font-family="sans-serif" font-size="11" lengthAdjust="spacingAndGlyphs" textLength="138" x="73.5" y="187.8198">maxSteer : float = 15.0f</text><ellipse cx="64.5" cy="197.4141" fill="none" rx="3" ry="3" style="stroke: #038048; stroke-width: 1.0;"/><text fill="#000000" font-family="sans-serif" font-size="11" lengthAdjust="spacingAndGlyphs" textLength="153" x="73.5" y="200.6245">pathRadius : float = 0.001f</text><ellipse cx="64.5" cy="210.2188" fill="none" rx="3" ry="3" style="stroke: #038048; stroke-width: 1.0;"/><text fill="#000000" font-family="sans-serif" font-size="11" lengthAdjust="spacingAndGlyphs" textLength="171" x="73.5" y="213.4292">currentWaypointIndex : int = 0</text><ellipse cx="64.5" cy="223.0234" fill="none" rx="3" ry="3" style="stroke: #038048; stroke-width: 1.0;"/><text fill="#000000" font-family="sans-serif" font-size="11" lengthAdjust="spacingAndGlyphs" textLength="36" x="73.5" y="226.2339">id : int</text><ellipse cx="64.5" cy="235.8281" fill="none" rx="3" ry="3" style="stroke: #038048; stroke-width: 1.0;"/><text fill="#000000" font-family="sans-serif" font-size="11" lengthAdjust="spacingAndGlyphs" textLength="146" x="73.5" y="239.0386">canChangeY : bool = true</text><ellipse cx="64.5" cy="248.6328" fill="none" rx="3" ry="3" style="stroke: #038048; stroke-width: 1.0;"/><text fill="#000000" font-family="sans-serif" font-size="11" lengthAdjust="spacingAndGlyphs" textLength="131" x="73.5" y="251.8433">StartWalkTime : int = 4</text><ellipse cx="64.5" cy="261.4375" fill="none" rx="3" ry="3" style="stroke: #038048; stroke-width: 1.0;"/><text fill="#000000" font-family="sans-serif" font-size="11" lengthAdjust="spacingAndGlyphs" textLength="125" x="73.5" y="264.6479">ShopRotation : int = 0</text><ellipse cx="64.5" cy="274.2422" fill="none" rx="3" ry="3" style="stroke: #038048; stroke-width: 1.0;"/><text fill="#000000" font-family="sans-serif" font-size="11" lengthAdjust="spacingAndGlyphs" textLength="87" x="73.5" y="277.4526">dayOff : int = 0</text><line style="stroke: #A80036; stroke-width: 1.5;" x1="54.5" x2="249.5" y1="284.0469" y2="284.0469"/><text fill="#000000" font-family="sans-serif" font-size="11" lengthAdjust="spacingAndGlyphs" textLength="71" x="73.5" y="298.2573">Start() : void</text><text fill="#000000" font-family="sans-serif" font-size="11" lengthAdjust="spacingAndGlyphs" textLength="83" x="73.5" y="311.062">Update() : void</text><ellipse cx="64.5" cy="320.6563" fill="#84BE84" rx="3" ry="3" style="stroke: #038048; stroke-width: 1.0;"/><text fill="#000000" font-family="sans-serif" font-size="11" lengthAdjust="spacingAndGlyphs" textLength="110" x="73.5" y="323.8667">GetStartTime() : int</text><ellipse cx="64.5" cy="333.4609" fill="#84BE84" rx="3" ry="3" style="stroke: #038048; stroke-width: 1.0;"/><text fill="#000000" font-family="sans-serif" font-size="11" lengthAdjust="spacingAndGlyphs" textLength="105" x="73.5" y="336.6714">WorkToday() : bool</text><!--MD5=[e644022de7dea015dd09463c37421447]
class List`1--><rect fill="#FEFECE" filter="url(#f100vh7i8gcxen)" height="48" id="List`1" style="stroke: #A80036; stroke-width: 1.5;" width="78" x="113" y="403"/><ellipse cx="128" cy="419" fill="#ADD1B2" rx="11" ry="11" style="stroke: #A80036; stroke-width: 1.0;"/><path d="M130.9688,424.6406 Q130.3906,424.9375 129.75,425.0781 Q129.1094,425.2344 128.4063,425.2344 Q125.9063,425.2344 124.5781,423.5938 Q123.2656,421.9375 123.2656,418.8125 Q123.2656,415.6875 124.5781,414.0313 Q125.9063,412.375 128.4063,412.375 Q129.1094,412.375 129.75,412.5313 Q130.4063,412.6875 130.9688,412.9844 L130.9688,415.7031 Q130.3438,415.125 129.75,414.8594 Q129.1563,414.5781 128.5313,414.5781 Q127.1875,414.5781 126.5,415.6563 Q125.8125,416.7188 125.8125,418.8125 Q125.8125,420.9063 126.5,421.9844 Q127.1875,423.0469 128.5313,423.0469 Q129.1563,423.0469 129.75,422.7813 Q130.3438,422.5 130.9688,421.9219 L130.9688,424.6406 Z "/><text fill="#000000" font-family="sans-serif" font-size="12" lengthAdjust="spacingAndGlyphs" textLength="35" x="142" y="423.1543">List`1</text><rect fill="#FFFFFF" height="15.9688" style="stroke: #000000; stroke-width: 1.0; stroke-dasharray: 2.0,2.0;" width="9" x="185" y="400"/><text fill="#000000" font-family="sans-serif" font-size="12" font-style="italic" lengthAdjust="spacingAndGlyphs" textLength="7" x="186" y="412.1387">T</text><line style="stroke: #A80036; stroke-width: 1.5;" x1="114" x2="190" y1="435" y2="435"/><line style="stroke: #A80036; stroke-width: 1.5;" x1="114" x2="190" y1="443" y2="443"/><!--MD5=[83b3cf3d23d77c6f1e1b5291a241bc2a]
class MonoBehaviour--><rect fill="#FEFECE" filter="url(#f100vh7i8gcxen)" height="48" id="MonoBehaviour" style="stroke: #A80036; stroke-width: 1.5;" width="128" x="88" y="8"/><ellipse cx="103" cy="24" fill="#ADD1B2" rx="11" ry="11" style="stroke: #A80036; stroke-width: 1.0;"/><path d="M105.9688,29.6406 Q105.3906,29.9375 104.75,30.0781 Q104.1094,30.2344 103.4063,30.2344 Q100.9063,30.2344 99.5781,28.5938 Q98.2656,26.9375 98.2656,23.8125 Q98.2656,20.6875 99.5781,19.0313 Q100.9063,17.375 103.4063,17.375 Q104.1094,17.375 104.75,17.5313 Q105.4063,17.6875 105.9688,17.9844 L105.9688,20.7031 Q105.3438,20.125 104.75,19.8594 Q104.1563,19.5781 103.5313,19.5781 Q102.1875,19.5781 101.5,20.6563 Q100.8125,21.7188 100.8125,23.8125 Q100.8125,25.9063 101.5,26.9844 Q102.1875,28.0469 103.5313,28.0469 Q104.1563,28.0469 104.75,27.7813 Q105.3438,27.5 105.9688,26.9219 L105.9688,29.6406 Z "/><text fill="#000000" font-family="sans-serif" font-size="12" lengthAdjust="spacingAndGlyphs" textLength="96" x="117" y="28.1543">MonoBehaviour</text><line style="stroke: #A80036; stroke-width: 1.5;" x1="89" x2="215" y1="40" y2="40"/><line style="stroke: #A80036; stroke-width: 1.5;" x1="89" x2="215" y1="48" y2="48"/><!--MD5=[daa7471fd4b65d6a2993579e29f46414]
reverse link MonoBehaviour to ShopKeeperMover--><path d="M152,76.38 C152,88.38 152,101.97 152,115.98 " fill="none" id="MonoBehaviour&lt;-ShopKeeperMover" style="stroke: #A80036; stroke-width: 1.0;"/><polygon fill="none" points="145,76.19,152,56.19,159,76.19,145,76.19" style="stroke: #A80036; stroke-width: 1.0;"/><!--MD5=[bab8f6e9cf07346142ed152e1b2a714a]
link ShopKeeperMover to List`1--><path d="M152,343.09 C152,363.35 152,382.74 152,397.67 " fill="none" id="ShopKeeperMover-&gt;List`1" style="stroke: #A80036; stroke-width: 1.0;"/><polygon fill="#A80036" points="152,402.96,156,393.96,152,397.96,148,393.96,152,402.96" style="stroke: #A80036; stroke-width: 1.0;"/><text fill="#000000" font-family="sans-serif" font-size="13" lengthAdjust="spacingAndGlyphs" textLength="131" x="4.2156" y="391.9618">path&lt;GameObject&gt;</text><!--MD5=[cdb6850a9074d125d48f2da2209a7d75]
@startuml
class ShopKeeperMover {
    + speed : float = 5.0f
    + mass : float = 5.0f
    + maxSteer : float = 15.0f
    + pathRadius : float = 0.001f
    + currentWaypointIndex : int = 0
    + id : int
    + canChangeY : bool = true
    + StartWalkTime : int = 4
    + ShopRotation : int = 0
    + dayOff : int = 0
    Start() : void
    Update() : void
    + GetStartTime() : int
    + WorkToday() : bool
}
class "List`1"<T> {
}
MonoBehaviour <|- - ShopKeeperMover
ShopKeeperMover - -> "path<GameObject>" "List`1"
@enduml

PlantUML version 1.2020.02(Sun Mar 01 10:22:07 GMT 2020)
(GPL source distribution)
Java Runtime: OpenJDK Runtime Environment
JVM: OpenJDK 64-Bit Server VM
Java Version: 11.0.9+11-Ubuntu-0ubuntu1
Operating System: Linux
Default Encoding: ANSI_X3.4-1968
Language: en
Country: US
--></g></svg>