<?xml version="1.0" encoding="UTF-8" standalone="no"?><svg xmlns="http://www.w3.org/2000/svg" xmlns:xlink="http://www.w3.org/1999/xlink" contentScriptType="application/ecmascript" contentStyleType="text/css" height="347px" preserveAspectRatio="none" style="width:651px;height:347px;" version="1.1" viewBox="0 0 651 347" width="651px" zoomAndPan="magnify"><defs><filter height="300%" id="fpriz815f18fr" width="300%" x="-1" y="-1"><feGaussianBlur result="blurOut" stdDeviation="2.0"/><feColorMatrix in="blurOut" result="blurOut2" type="matrix" values="0 0 0 0 0 0 0 0 0 0 0 0 0 0 0 0 0 0 .4 0"/><feOffset dx="4.0" dy="4.0" in="blurOut2" result="blurOut3"/><feBlend in="SourceGraphic" in2="blurOut3" mode="normal"/></filter></defs><g><!--MD5=[45c6380d22fb72521f5065026b277fb9]
class Slot--><rect fill="#FEFECE" filter="url(#fpriz815f18fr)" height="112.0234" id="Slot" style="stroke: #A80036; stroke-width: 1.5;" width="218" x="193" y="116"/><ellipse cx="285.75" cy="132" fill="#ADD1B2" rx="11" ry="11" style="stroke: #A80036; stroke-width: 1.0;"/><path d="M288.7188,137.6406 Q288.1406,137.9375 287.5,138.0781 Q286.8594,138.2344 286.1563,138.2344 Q283.6563,138.2344 282.3281,136.5938 Q281.0156,134.9375 281.0156,131.8125 Q281.0156,128.6875 282.3281,127.0313 Q283.6563,125.375 286.1563,125.375 Q286.8594,125.375 287.5,125.5313 Q288.1563,125.6875 288.7188,125.9844 L288.7188,128.7031 Q288.0938,128.125 287.5,127.8594 Q286.9063,127.5781 286.2813,127.5781 Q284.9375,127.5781 284.25,128.6563 Q283.5625,129.7188 283.5625,131.8125 Q283.5625,133.9063 284.25,134.9844 Q284.9375,136.0469 286.2813,136.0469 Q286.9063,136.0469 287.5,135.7813 Q288.0938,135.5 288.7188,134.9219 L288.7188,137.6406 Z "/><text fill="#000000" font-family="sans-serif" font-size="12" lengthAdjust="spacingAndGlyphs" textLength="24" x="306.25" y="136.1543">Slot</text><line style="stroke: #A80036; stroke-width: 1.5;" x1="194" x2="410" y1="148" y2="148"/><text fill="#000000" font-family="sans-serif" font-size="11" lengthAdjust="spacingAndGlyphs" textLength="130" x="199" y="162.2104">_canPutIn : bool = true</text><line style="stroke: #A80036; stroke-width: 1.5;" x1="194" x2="410" y1="168.8047" y2="168.8047"/><text fill="#000000" font-family="sans-serif" font-size="11" lengthAdjust="spacingAndGlyphs" textLength="170" x="213" y="183.0151">IsItem(obj:GameObject) : bool</text><text fill="#000000" font-family="sans-serif" font-size="11" lengthAdjust="spacingAndGlyphs" textLength="192" x="213" y="195.8198">InsertItem(obj:GameObject) : void</text><ellipse cx="204" cy="205.4141" fill="#84BE84" rx="3" ry="3" style="stroke: #038048; stroke-width: 1.0;"/><text fill="#000000" font-family="sans-serif" font-size="11" lengthAdjust="spacingAndGlyphs" textLength="113" x="213" y="208.6245">RemoveItem() : void</text><ellipse cx="204" cy="218.2188" fill="#84BE84" rx="3" ry="3" style="stroke: #038048; stroke-width: 1.0;"/><text fill="#000000" font-family="sans-serif" font-size="11" lengthAdjust="spacingAndGlyphs" textLength="136" x="213" y="221.4292">SetPutIn(put:bool) : void</text><!--MD5=[83b3cf3d23d77c6f1e1b5291a241bc2a]
class MonoBehaviour--><rect fill="#FEFECE" filter="url(#fpriz815f18fr)" height="48" id="MonoBehaviour" style="stroke: #A80036; stroke-width: 1.5;" width="128" x="238" y="8"/><ellipse cx="253" cy="24" fill="#ADD1B2" rx="11" ry="11" style="stroke: #A80036; stroke-width: 1.0;"/><path d="M255.9688,29.6406 Q255.3906,29.9375 254.75,30.0781 Q254.1094,30.2344 253.4063,30.2344 Q250.9063,30.2344 249.5781,28.5938 Q248.2656,26.9375 248.2656,23.8125 Q248.2656,20.6875 249.5781,19.0313 Q250.9063,17.375 253.4063,17.375 Q254.1094,17.375 254.75,17.5313 Q255.4063,17.6875 255.9688,17.9844 L255.9688,20.7031 Q255.3438,20.125 254.75,19.8594 Q254.1563,19.5781 253.5313,19.5781 Q252.1875,19.5781 251.5,20.6563 Q250.8125,21.7188 250.8125,23.8125 Q250.8125,25.9063 251.5,26.9844 Q252.1875,28.0469 253.5313,28.0469 Q254.1563,28.0469 254.75,27.7813 Q255.3438,27.5 255.9688,26.9219 L255.9688,29.6406 Z "/><text fill="#000000" font-family="sans-serif" font-size="12" lengthAdjust="spacingAndGlyphs" textLength="96" x="267" y="28.1543">MonoBehaviour</text><line style="stroke: #A80036; stroke-width: 1.5;" x1="239" x2="365" y1="40" y2="40"/><line style="stroke: #A80036; stroke-width: 1.5;" x1="239" x2="365" y1="48" y2="48"/><!--MD5=[064f7a74fee85463ec1a30143664ee17]
class GameObject--><rect fill="#FEFECE" filter="url(#fpriz815f18fr)" height="48" id="GameObject" style="stroke: #A80036; stroke-width: 1.5;" width="108" x="6" y="288"/><ellipse cx="21" cy="304" fill="#ADD1B2" rx="11" ry="11" style="stroke: #A80036; stroke-width: 1.0;"/><path d="M23.9688,309.6406 Q23.3906,309.9375 22.75,310.0781 Q22.1094,310.2344 21.4063,310.2344 Q18.9063,310.2344 17.5781,308.5938 Q16.2656,306.9375 16.2656,303.8125 Q16.2656,300.6875 17.5781,299.0313 Q18.9063,297.375 21.4063,297.375 Q22.1094,297.375 22.75,297.5313 Q23.4063,297.6875 23.9688,297.9844 L23.9688,300.7031 Q23.3438,300.125 22.75,299.8594 Q22.1563,299.5781 21.5313,299.5781 Q20.1875,299.5781 19.5,300.6563 Q18.8125,301.7188 18.8125,303.8125 Q18.8125,305.9063 19.5,306.9844 Q20.1875,308.0469 21.5313,308.0469 Q22.1563,308.0469 22.75,307.7813 Q23.3438,307.5 23.9688,306.9219 L23.9688,309.6406 Z "/><text fill="#000000" font-family="sans-serif" font-size="12" lengthAdjust="spacingAndGlyphs" textLength="76" x="35" y="308.1543">GameObject</text><line style="stroke: #A80036; stroke-width: 1.5;" x1="7" x2="113" y1="320" y2="320"/><line style="stroke: #A80036; stroke-width: 1.5;" x1="7" x2="113" y1="328" y2="328"/><!--MD5=[964f074a2dd77d134c21b891bb53e381]
class Image--><rect fill="#FEFECE" filter="url(#fpriz815f18fr)" height="48" id="Image" style="stroke: #A80036; stroke-width: 1.5;" width="70" x="149" y="288"/><ellipse cx="164" cy="304" fill="#ADD1B2" rx="11" ry="11" style="stroke: #A80036; stroke-width: 1.0;"/><path d="M166.9688,309.6406 Q166.3906,309.9375 165.75,310.0781 Q165.1094,310.2344 164.4063,310.2344 Q161.9063,310.2344 160.5781,308.5938 Q159.2656,306.9375 159.2656,303.8125 Q159.2656,300.6875 160.5781,299.0313 Q161.9063,297.375 164.4063,297.375 Q165.1094,297.375 165.75,297.5313 Q166.4063,297.6875 166.9688,297.9844 L166.9688,300.7031 Q166.3438,300.125 165.75,299.8594 Q165.1563,299.5781 164.5313,299.5781 Q163.1875,299.5781 162.5,300.6563 Q161.8125,301.7188 161.8125,303.8125 Q161.8125,305.9063 162.5,306.9844 Q163.1875,308.0469 164.5313,308.0469 Q165.1563,308.0469 165.75,307.7813 Q166.3438,307.5 166.9688,306.9219 L166.9688,309.6406 Z "/><text fill="#000000" font-family="sans-serif" font-size="12" lengthAdjust="spacingAndGlyphs" textLength="38" x="178" y="308.1543">Image</text><line style="stroke: #A80036; stroke-width: 1.5;" x1="150" x2="218" y1="320" y2="320"/><line style="stroke: #A80036; stroke-width: 1.5;" x1="150" x2="218" y1="328" y2="328"/><!--MD5=[004b1d6c4ca8aad4ba8b586a335ed4f3]
class Transform--><rect fill="#FEFECE" filter="url(#fpriz815f18fr)" height="48" id="Transform" style="stroke: #A80036; stroke-width: 1.5;" width="95" x="254.5" y="288"/><ellipse cx="269.5" cy="304" fill="#ADD1B2" rx="11" ry="11" style="stroke: #A80036; stroke-width: 1.0;"/><path d="M272.4688,309.6406 Q271.8906,309.9375 271.25,310.0781 Q270.6094,310.2344 269.9063,310.2344 Q267.4063,310.2344 266.0781,308.5938 Q264.7656,306.9375 264.7656,303.8125 Q264.7656,300.6875 266.0781,299.0313 Q267.4063,297.375 269.9063,297.375 Q270.6094,297.375 271.25,297.5313 Q271.9063,297.6875 272.4688,297.9844 L272.4688,300.7031 Q271.8438,300.125 271.25,299.8594 Q270.6563,299.5781 270.0313,299.5781 Q268.6875,299.5781 268,300.6563 Q267.3125,301.7188 267.3125,303.8125 Q267.3125,305.9063 268,306.9844 Q268.6875,308.0469 270.0313,308.0469 Q270.6563,308.0469 271.25,307.7813 Q271.8438,307.5 272.4688,306.9219 L272.4688,309.6406 Z "/><text fill="#000000" font-family="sans-serif" font-size="12" lengthAdjust="spacingAndGlyphs" textLength="63" x="283.5" y="308.1543">Transform</text><line style="stroke: #A80036; stroke-width: 1.5;" x1="255.5" x2="348.5" y1="320" y2="320"/><line style="stroke: #A80036; stroke-width: 1.5;" x1="255.5" x2="348.5" y1="328" y2="328"/><!--MD5=[18eee71c88ab61f27581b8cbdd3ef5ee]
class Color--><rect fill="#FEFECE" filter="url(#fpriz815f18fr)" height="48" id="Color" style="stroke: #A80036; stroke-width: 1.5;" width="64" x="385" y="288"/><ellipse cx="400" cy="304" fill="#ADD1B2" rx="11" ry="11" style="stroke: #A80036; stroke-width: 1.0;"/><path d="M402.9688,309.6406 Q402.3906,309.9375 401.75,310.0781 Q401.1094,310.2344 400.4063,310.2344 Q397.9063,310.2344 396.5781,308.5938 Q395.2656,306.9375 395.2656,303.8125 Q395.2656,300.6875 396.5781,299.0313 Q397.9063,297.375 400.4063,297.375 Q401.1094,297.375 401.75,297.5313 Q402.4063,297.6875 402.9688,297.9844 L402.9688,300.7031 Q402.3438,300.125 401.75,299.8594 Q401.1563,299.5781 400.5313,299.5781 Q399.1875,299.5781 398.5,300.6563 Q397.8125,301.7188 397.8125,303.8125 Q397.8125,305.9063 398.5,306.9844 Q399.1875,308.0469 400.5313,308.0469 Q401.1563,308.0469 401.75,307.7813 Q402.3438,307.5 402.9688,306.9219 L402.9688,309.6406 Z "/><text fill="#000000" font-family="sans-serif" font-size="12" lengthAdjust="spacingAndGlyphs" textLength="32" x="414" y="308.1543">Color</text><line style="stroke: #A80036; stroke-width: 1.5;" x1="386" x2="448" y1="320" y2="320"/><line style="stroke: #A80036; stroke-width: 1.5;" x1="386" x2="448" y1="328" y2="328"/><!--MD5=[bd622505b4ad2c89ad2f9c7a1fb5e1ce]
class InputActionProperty--><rect fill="#FEFECE" filter="url(#fpriz815f18fr)" height="48" id="InputActionProperty" style="stroke: #A80036; stroke-width: 1.5;" width="156" x="484" y="288"/><ellipse cx="499" cy="304" fill="#ADD1B2" rx="11" ry="11" style="stroke: #A80036; stroke-width: 1.0;"/><path d="M501.9688,309.6406 Q501.3906,309.9375 500.75,310.0781 Q500.1094,310.2344 499.4063,310.2344 Q496.9063,310.2344 495.5781,308.5938 Q494.2656,306.9375 494.2656,303.8125 Q494.2656,300.6875 495.5781,299.0313 Q496.9063,297.375 499.4063,297.375 Q500.1094,297.375 500.75,297.5313 Q501.4063,297.6875 501.9688,297.9844 L501.9688,300.7031 Q501.3438,300.125 500.75,299.8594 Q500.1563,299.5781 499.5313,299.5781 Q498.1875,299.5781 497.5,300.6563 Q496.8125,301.7188 496.8125,303.8125 Q496.8125,305.9063 497.5,306.9844 Q498.1875,308.0469 499.5313,308.0469 Q500.1563,308.0469 500.75,307.7813 Q501.3438,307.5 501.9688,306.9219 L501.9688,309.6406 Z "/><text fill="#000000" font-family="sans-serif" font-size="12" lengthAdjust="spacingAndGlyphs" textLength="124" x="513" y="308.1543">InputActionProperty</text><line style="stroke: #A80036; stroke-width: 1.5;" x1="485" x2="639" y1="320" y2="320"/><line style="stroke: #A80036; stroke-width: 1.5;" x1="485" x2="639" y1="328" y2="328"/><!--MD5=[2432538da175b176b2f051a6c9a5e83c]
reverse link MonoBehaviour to Slot--><path d="M302,76.25 C302,88.82 302,102.73 302,115.93 " fill="none" id="MonoBehaviour&lt;-Slot" style="stroke: #A80036; stroke-width: 1.0;"/><polygon fill="none" points="295,76.1,302,56.1,309,76.1,295,76.1" style="stroke: #A80036; stroke-width: 1.0;"/><!--MD5=[d171f8f6c1ae6d43e40730d8e7d99102]
link Slot to GameObject--><path d="M205.31,228.14 C170.57,247.95 133.04,269.35 104.83,285.44 " fill="none" id="Slot-&gt;GameObject" style="stroke: #A80036; stroke-width: 1.0;"/><polygon fill="#A80036" points="100.38,287.97,110.1805,286.9951,104.7256,285.497,106.2237,280.0421,100.38,287.97" style="stroke: #A80036; stroke-width: 1.0;"/><text fill="#000000" font-family="sans-serif" font-size="13" lengthAdjust="spacingAndGlyphs" textLength="65" x="37.3992" y="276.9743">itemInSlot</text><!--MD5=[83690ddf05b6a975de586e6ffdce5782]
link Slot to Image--><path d="M254.68,228.33 C238.37,247.41 220.82,267.95 207.28,283.77 " fill="none" id="Slot-&gt;Image" style="stroke: #A80036; stroke-width: 1.0;"/><polygon fill="#A80036" points="203.93,287.69,212.8149,283.4406,207.1757,283.8867,206.7296,278.2474,203.93,287.69" style="stroke: #A80036; stroke-width: 1.0;"/><text fill="#000000" font-family="sans-serif" font-size="13" lengthAdjust="spacingAndGlyphs" textLength="63" x="138.1098" y="277.0194">slotImage</text><!--MD5=[cf1a16e16a8cc8f0e6b44a2ec6d7c1d9]
link Slot to Transform--><path d="M302,228.33 C302,246.93 302,266.9 302,282.56 " fill="none" id="Slot-&gt;Transform" style="stroke: #A80036; stroke-width: 1.0;"/><polygon fill="#A80036" points="302,287.69,306,278.69,302,282.69,298,278.69,302,287.69" style="stroke: #A80036; stroke-width: 1.0;"/><text fill="#000000" font-family="sans-serif" font-size="13" lengthAdjust="spacingAndGlyphs" textLength="73" x="220.1031" y="277.0194">attachPoint</text><!--MD5=[325c8cfe7db6661cdfd9ab5c767980fc]
link Slot to Color--><path d="M348.11,228.33 C364.01,247.41 381.12,267.95 394.31,283.77 " fill="none" id="Slot-&gt;Color" style="stroke: #A80036; stroke-width: 1.0;"/><polygon fill="#A80036" points="397.58,287.69,394.8947,278.2143,394.3805,283.8477,388.747,283.3335,397.58,287.69" style="stroke: #A80036; stroke-width: 1.0;"/><text fill="#000000" font-family="sans-serif" font-size="13" lengthAdjust="spacingAndGlyphs" textLength="87" x="323.196" y="276.9577">originalColour</text><!--MD5=[968d85582bd657d400b4de78f4356387]
link Slot to InputActionProperty--><path d="M405.88,228.14 C443.2,247.95 483.53,269.35 513.84,285.44 " fill="none" id="Slot-&gt;InputActionProperty" style="stroke: #A80036; stroke-width: 1.0;"/><polygon fill="#A80036" points="518.62,287.97,512.5352,280.2257,514.2004,285.6319,508.7942,287.2971,518.62,287.97" style="stroke: #A80036; stroke-width: 1.0;"/><text fill="#000000" font-family="sans-serif" font-size="13" lengthAdjust="spacingAndGlyphs" textLength="69" x="447.4826" y="276.9052">rightSelect</text><!--MD5=[9eda94db5900fab7e8a2e984ec36df5b]
@startuml
class Slot {
    _canPutIn : bool = true
    IsItem(obj:GameObject) : bool
    InsertItem(obj:GameObject) : void
    + RemoveItem() : void
    + SetPutIn(put:bool) : void
}
MonoBehaviour <|- - Slot
Slot - -> "itemInSlot" GameObject
Slot - -> "slotImage" Image
Slot - -> "attachPoint" Transform
Slot - -> "originalColour" Color
Slot - -> "rightSelect" InputActionProperty
@enduml

PlantUML version 1.2020.02(Sun Mar 01 10:22:07 GMT 2020)
(GPL source distribution)
Java Runtime: OpenJDK Runtime Environment
JVM: OpenJDK 64-Bit Server VM
Java Version: 11.0.9+11-Ubuntu-0ubuntu1
Operating System: Linux
Default Encoding: ANSI_X3.4-1968
Language: en
Country: US
--></g></svg>