<?xml version="1.0" encoding="UTF-8" standalone="no"?><svg xmlns="http://www.w3.org/2000/svg" xmlns:xlink="http://www.w3.org/1999/xlink" contentScriptType="application/ecmascript" contentStyleType="text/css" height="360px" preserveAspectRatio="none" style="width:187px;height:360px;" version="1.1" viewBox="0 0 187 360" width="187px" zoomAndPan="magnify"><defs><filter height="300%" id="f5pa5r82p9dy6" width="300%" x="-1" y="-1"><feGaussianBlur result="blurOut" stdDeviation="2.0"/><feColorMatrix in="blurOut" result="blurOut2" type="matrix" values="0 0 0 0 0 0 0 0 0 0 0 0 0 0 0 0 0 0 .4 0"/><feOffset dx="4.0" dy="4.0" in="blurOut2" result="blurOut3"/><feBlend in="SourceGraphic" in2="blurOut3" mode="normal"/></filter></defs><g><!--MD5=[0a32fcab6799603534822ea1d0006f4f]
class TimeController--><rect fill="#FEFECE" filter="url(#f5pa5r82p9dy6)" height="124.8281" id="TimeController" style="stroke: #A80036; stroke-width: 1.5;" width="156" x="20" y="116"/><ellipse cx="50.3" cy="132" fill="#ADD1B2" rx="11" ry="11" style="stroke: #A80036; stroke-width: 1.0;"/><path d="M53.2688,137.6406 Q52.6906,137.9375 52.05,138.0781 Q51.4094,138.2344 50.7063,138.2344 Q48.2063,138.2344 46.8781,136.5938 Q45.5656,134.9375 45.5656,131.8125 Q45.5656,128.6875 46.8781,127.0313 Q48.2063,125.375 50.7063,125.375 Q51.4094,125.375 52.05,125.5313 Q52.7063,125.6875 53.2688,125.9844 L53.2688,128.7031 Q52.6438,128.125 52.05,127.8594 Q51.4563,127.5781 50.8313,127.5781 Q49.4875,127.5781 48.8,128.6563 Q48.1125,129.7188 48.1125,131.8125 Q48.1125,133.9063 48.8,134.9844 Q49.4875,136.0469 50.8313,136.0469 Q51.4563,136.0469 52.05,135.7813 Q52.6438,135.5 53.2688,134.9219 L53.2688,137.6406 Z "/><text fill="#000000" font-family="sans-serif" font-size="12" lengthAdjust="spacingAndGlyphs" textLength="90" x="67.7" y="136.1543">TimeController</text><line style="stroke: #A80036; stroke-width: 1.5;" x1="21" x2="175" y1="148" y2="148"/><ellipse cx="31" cy="159" fill="none" rx="3" ry="3" style="stroke: #038048; stroke-width: 1.0;"/><text fill="#000000" font-family="sans-serif" font-size="11" lengthAdjust="spacingAndGlyphs" textLength="83" x="40" y="162.2104">dayNr : int = 1</text><line style="stroke: #A80036; stroke-width: 1.5;" x1="21" x2="175" y1="168.8047" y2="168.8047"/><text fill="#000000" font-family="sans-serif" font-size="11" lengthAdjust="spacingAndGlyphs" textLength="71" x="40" y="183.0151">Start() : void</text><text fill="#000000" font-family="sans-serif" font-size="11" lengthAdjust="spacingAndGlyphs" textLength="83" x="40" y="195.8198">Update() : void</text><text fill="#000000" font-family="sans-serif" font-size="11" lengthAdjust="spacingAndGlyphs" textLength="130" x="40" y="208.6245">UpdateSettings() : void</text><ellipse cx="31" cy="218.2188" fill="#84BE84" rx="3" ry="3" style="stroke: #038048; stroke-width: 1.0;"/><text fill="#000000" font-family="sans-serif" font-size="11" lengthAdjust="spacingAndGlyphs" textLength="87" x="40" y="221.4292">newDay() : void</text><ellipse cx="31" cy="231.0234" fill="#84BE84" rx="3" ry="3" style="stroke: #038048; stroke-width: 1.0;"/><text fill="#000000" font-family="sans-serif" font-size="11" lengthAdjust="spacingAndGlyphs" textLength="117" x="40" y="234.2339">GetDayOfWeek() : int</text><!--MD5=[83b3cf3d23d77c6f1e1b5291a241bc2a]
class MonoBehaviour--><rect fill="#FEFECE" filter="url(#f5pa5r82p9dy6)" height="48" id="MonoBehaviour" style="stroke: #A80036; stroke-width: 1.5;" width="128" x="34" y="8"/><ellipse cx="49" cy="24" fill="#ADD1B2" rx="11" ry="11" style="stroke: #A80036; stroke-width: 1.0;"/><path d="M51.9688,29.6406 Q51.3906,29.9375 50.75,30.0781 Q50.1094,30.2344 49.4063,30.2344 Q46.9063,30.2344 45.5781,28.5938 Q44.2656,26.9375 44.2656,23.8125 Q44.2656,20.6875 45.5781,19.0313 Q46.9063,17.375 49.4063,17.375 Q50.1094,17.375 50.75,17.5313 Q51.4063,17.6875 51.9688,17.9844 L51.9688,20.7031 Q51.3438,20.125 50.75,19.8594 Q50.1563,19.5781 49.5313,19.5781 Q48.1875,19.5781 47.5,20.6563 Q46.8125,21.7188 46.8125,23.8125 Q46.8125,25.9063 47.5,26.9844 Q48.1875,28.0469 49.5313,28.0469 Q50.1563,28.0469 50.75,27.7813 Q51.3438,27.5 51.9688,26.9219 L51.9688,29.6406 Z "/><text fill="#000000" font-family="sans-serif" font-size="12" lengthAdjust="spacingAndGlyphs" textLength="96" x="63" y="28.1543">MonoBehaviour</text><line style="stroke: #A80036; stroke-width: 1.5;" x1="35" x2="161" y1="40" y2="40"/><line style="stroke: #A80036; stroke-width: 1.5;" x1="35" x2="161" y1="48" y2="48"/><!--MD5=[20ddef7090025b04fb973268620c0974]
class DateTime--><rect fill="#FEFECE" filter="url(#f5pa5r82p9dy6)" height="48" id="DateTime" style="stroke: #A80036; stroke-width: 1.5;" width="91" x="52.5" y="301"/><ellipse cx="67.5" cy="317" fill="#ADD1B2" rx="11" ry="11" style="stroke: #A80036; stroke-width: 1.0;"/><path d="M70.4688,322.6406 Q69.8906,322.9375 69.25,323.0781 Q68.6094,323.2344 67.9063,323.2344 Q65.4063,323.2344 64.0781,321.5938 Q62.7656,319.9375 62.7656,316.8125 Q62.7656,313.6875 64.0781,312.0313 Q65.4063,310.375 67.9063,310.375 Q68.6094,310.375 69.25,310.5313 Q69.9063,310.6875 70.4688,310.9844 L70.4688,313.7031 Q69.8438,313.125 69.25,312.8594 Q68.6563,312.5781 68.0313,312.5781 Q66.6875,312.5781 66,313.6563 Q65.3125,314.7188 65.3125,316.8125 Q65.3125,318.9063 66,319.9844 Q66.6875,321.0469 68.0313,321.0469 Q68.6563,321.0469 69.25,320.7813 Q69.8438,320.5 70.4688,319.9219 L70.4688,322.6406 Z "/><text fill="#000000" font-family="sans-serif" font-size="12" lengthAdjust="spacingAndGlyphs" textLength="59" x="81.5" y="321.1543">DateTime</text><line style="stroke: #A80036; stroke-width: 1.5;" x1="53.5" x2="142.5" y1="333" y2="333"/><line style="stroke: #A80036; stroke-width: 1.5;" x1="53.5" x2="142.5" y1="341" y2="341"/><!--MD5=[7a3891e2b4d555de1172411e77e94df8]
reverse link MonoBehaviour to TimeController--><path d="M98,76.67 C98,89.05 98,102.77 98,115.99 " fill="none" id="MonoBehaviour&lt;-TimeController" style="stroke: #A80036; stroke-width: 1.0;"/><polygon fill="none" points="91,76.22,98,56.22,105,76.22,91,76.22" style="stroke: #A80036; stroke-width: 1.0;"/><!--MD5=[a13858c71968faee8177bcbd3a7deeff]
link TimeController to DateTime--><path d="M98,241.2 C98,260.22 98,280.24 98,295.83 " fill="none" id="TimeController-&gt;DateTime" style="stroke: #A80036; stroke-width: 1.0;"/><polygon fill="#A80036" points="98,300.94,102,291.94,98,295.94,94,291.94,98,300.94" style="stroke: #A80036; stroke-width: 1.0;"/><text fill="#000000" font-family="sans-serif" font-size="13" lengthAdjust="spacingAndGlyphs" textLength="77" x="11.1344" y="289.9367">currentTime</text><!--MD5=[f758e93a92ae07f206f37ebf35ae4ea6]
@startuml
class TimeController {
    + dayNr : int = 1
    Start() : void
    Update() : void
    UpdateSettings() : void
    + newDay() : void
    + GetDayOfWeek() : int
}
MonoBehaviour <|- - TimeController
TimeController - -> "currentTime" DateTime
@enduml

PlantUML version 1.2020.02(Sun Mar 01 10:22:07 GMT 2020)
(GPL source distribution)
Java Runtime: OpenJDK Runtime Environment
JVM: OpenJDK 64-Bit Server VM
Java Version: 11.0.9+11-Ubuntu-0ubuntu1
Operating System: Linux
Default Encoding: ANSI_X3.4-1968
Language: en
Country: US
--></g></svg>