<?xml version="1.0" encoding="UTF-8" standalone="no"?><svg xmlns="http://www.w3.org/2000/svg" xmlns:xlink="http://www.w3.org/1999/xlink" contentScriptType="application/ecmascript" contentStyleType="text/css" height="309px" preserveAspectRatio="none" style="width:201px;height:309px;" version="1.1" viewBox="0 0 201 309" width="201px" zoomAndPan="magnify"><defs><filter height="300%" id="f1m31zjyej9fpo" width="300%" x="-1" y="-1"><feGaussianBlur result="blurOut" stdDeviation="2.0"/><feColorMatrix in="blurOut" result="blurOut2" type="matrix" values="0 0 0 0 0 0 0 0 0 0 0 0 0 0 0 0 0 0 .4 0"/><feOffset dx="4.0" dy="4.0" in="blurOut2" result="blurOut3"/><feBlend in="SourceGraphic" in2="blurOut3" mode="normal"/></filter></defs><g><!--MD5=[d85e1abf3caa9c226551ac440a773ac6]
class TrafficLightController--><rect fill="#FEFECE" filter="url(#f1m31zjyej9fpo)" height="73.6094" id="TrafficLightController" style="stroke: #A80036; stroke-width: 1.5;" width="161" x="6" y="116"/><ellipse cx="21" cy="132" fill="#ADD1B2" rx="11" ry="11" style="stroke: #A80036; stroke-width: 1.0;"/><path d="M23.9688,137.6406 Q23.3906,137.9375 22.75,138.0781 Q22.1094,138.2344 21.4063,138.2344 Q18.9063,138.2344 17.5781,136.5938 Q16.2656,134.9375 16.2656,131.8125 Q16.2656,128.6875 17.5781,127.0313 Q18.9063,125.375 21.4063,125.375 Q22.1094,125.375 22.75,125.5313 Q23.4063,125.6875 23.9688,125.9844 L23.9688,128.7031 Q23.3438,128.125 22.75,127.8594 Q22.1563,127.5781 21.5313,127.5781 Q20.1875,127.5781 19.5,128.6563 Q18.8125,129.7188 18.8125,131.8125 Q18.8125,133.9063 19.5,134.9844 Q20.1875,136.0469 21.5313,136.0469 Q22.1563,136.0469 22.75,135.7813 Q23.3438,135.5 23.9688,134.9219 L23.9688,137.6406 Z "/><text fill="#000000" font-family="sans-serif" font-size="12" lengthAdjust="spacingAndGlyphs" textLength="129" x="35" y="136.1543">TrafficLightController</text><line style="stroke: #A80036; stroke-width: 1.5;" x1="7" x2="166" y1="148" y2="148"/><line style="stroke: #A80036; stroke-width: 1.5;" x1="7" x2="166" y1="156" y2="156"/><ellipse cx="17" cy="167" fill="#84BE84" rx="3" ry="3" style="stroke: #038048; stroke-width: 1.0;"/><text fill="#000000" font-family="sans-serif" font-size="11" lengthAdjust="spacingAndGlyphs" textLength="113" x="26" y="170.2104">ReturnGreen1() : int</text><ellipse cx="17" cy="179.8047" fill="#84BE84" rx="3" ry="3" style="stroke: #038048; stroke-width: 1.0;"/><text fill="#000000" font-family="sans-serif" font-size="11" lengthAdjust="spacingAndGlyphs" textLength="113" x="26" y="183.0151">ReturnGreen2() : int</text><!--MD5=[83b3cf3d23d77c6f1e1b5291a241bc2a]
class MonoBehaviour--><rect fill="#FEFECE" filter="url(#f1m31zjyej9fpo)" height="48" id="MonoBehaviour" style="stroke: #A80036; stroke-width: 1.5;" width="128" x="22.5" y="8"/><ellipse cx="37.5" cy="24" fill="#ADD1B2" rx="11" ry="11" style="stroke: #A80036; stroke-width: 1.0;"/><path d="M40.4688,29.6406 Q39.8906,29.9375 39.25,30.0781 Q38.6094,30.2344 37.9063,30.2344 Q35.4063,30.2344 34.0781,28.5938 Q32.7656,26.9375 32.7656,23.8125 Q32.7656,20.6875 34.0781,19.0313 Q35.4063,17.375 37.9063,17.375 Q38.6094,17.375 39.25,17.5313 Q39.9063,17.6875 40.4688,17.9844 L40.4688,20.7031 Q39.8438,20.125 39.25,19.8594 Q38.6563,19.5781 38.0313,19.5781 Q36.6875,19.5781 36,20.6563 Q35.3125,21.7188 35.3125,23.8125 Q35.3125,25.9063 36,26.9844 Q36.6875,28.0469 38.0313,28.0469 Q38.6563,28.0469 39.25,27.7813 Q39.8438,27.5 40.4688,26.9219 L40.4688,29.6406 Z "/><text fill="#000000" font-family="sans-serif" font-size="12" lengthAdjust="spacingAndGlyphs" textLength="96" x="51.5" y="28.1543">MonoBehaviour</text><line style="stroke: #A80036; stroke-width: 1.5;" x1="23.5" x2="149.5" y1="40" y2="40"/><line style="stroke: #A80036; stroke-width: 1.5;" x1="23.5" x2="149.5" y1="48" y2="48"/><!--MD5=[90d32ccc189f11441a6ce7cbb63ad387]
class Material--><rect fill="#FEFECE" filter="url(#f1m31zjyej9fpo)" height="48" id="Material" style="stroke: #A80036; stroke-width: 1.5;" width="82" x="45.5" y="250"/><ellipse cx="60.5" cy="266" fill="#ADD1B2" rx="11" ry="11" style="stroke: #A80036; stroke-width: 1.0;"/><path d="M63.4688,271.6406 Q62.8906,271.9375 62.25,272.0781 Q61.6094,272.2344 60.9063,272.2344 Q58.4063,272.2344 57.0781,270.5938 Q55.7656,268.9375 55.7656,265.8125 Q55.7656,262.6875 57.0781,261.0313 Q58.4063,259.375 60.9063,259.375 Q61.6094,259.375 62.25,259.5313 Q62.9063,259.6875 63.4688,259.9844 L63.4688,262.7031 Q62.8438,262.125 62.25,261.8594 Q61.6563,261.5781 61.0313,261.5781 Q59.6875,261.5781 59,262.6563 Q58.3125,263.7188 58.3125,265.8125 Q58.3125,267.9063 59,268.9844 Q59.6875,270.0469 61.0313,270.0469 Q61.6563,270.0469 62.25,269.7813 Q62.8438,269.5 63.4688,268.9219 L63.4688,271.6406 Z "/><text fill="#000000" font-family="sans-serif" font-size="12" lengthAdjust="spacingAndGlyphs" textLength="50" x="74.5" y="270.1543">Material</text><line style="stroke: #A80036; stroke-width: 1.5;" x1="46.5" x2="126.5" y1="282" y2="282"/><line style="stroke: #A80036; stroke-width: 1.5;" x1="46.5" x2="126.5" y1="290" y2="290"/><!--MD5=[270daae271827e5b3fb5adef775dc95b]
reverse link MonoBehaviour to TrafficLightController--><path d="M86.5,76.43 C86.5,89.33 86.5,103.32 86.5,115.71 " fill="none" id="MonoBehaviour&lt;-TrafficLightController" style="stroke: #A80036; stroke-width: 1.0;"/><polygon fill="none" points="79.5,76.23,86.5,56.23,93.5,76.23,79.5,76.23" style="stroke: #A80036; stroke-width: 1.0;"/><!--MD5=[091c939658b3153ee8344a52de9635c1]
link TrafficLightController to Material--><path d="M50.33,190.03 C45.86,207.63 46.68,228.51 52.8,244.91 " fill="none" id="TrafficLightController-&gt;Material" style="stroke: #A80036; stroke-width: 1.0;"/><polygon fill="#A80036" points="54.87,249.85,55.09,240.0036,52.9419,245.2367,47.7087,243.0886,54.87,249.85" style="stroke: #A80036; stroke-width: 1.0;"/><text fill="#000000" font-family="sans-serif" font-size="13" lengthAdjust="spacingAndGlyphs" textLength="24" x="19.6898" y="238.8236">Red</text><!--MD5=[091c939658b3153ee8344a52de9635c1]
link TrafficLightController to Material--><path d="M74.68,190.03 C73.23,207.48 73.48,228.15 75.43,244.49 " fill="none" id="TrafficLightController-&gt;Material-1" style="stroke: #A80036; stroke-width: 1.0;"/><polygon fill="#A80036" points="76.16,249.85,78.9158,240.3946,75.4889,244.8952,70.9882,241.4683,76.16,249.85" style="stroke: #A80036; stroke-width: 1.0;"/><text fill="#000000" font-family="sans-serif" font-size="13" lengthAdjust="spacingAndGlyphs" textLength="39" x="78.5073" y="238.8236">LitRed</text><!--MD5=[091c939658b3153ee8344a52de9635c1]
link TrafficLightController to Material--><path d="M99.02,190.03 C100.55,207.48 100.29,228.15 98.22,244.49 " fill="none" id="TrafficLightController-&gt;Material-2" style="stroke: #A80036; stroke-width: 1.0;"/><polygon fill="#A80036" points="97.45,249.85,102.6961,241.5146,98.1651,244.9014,94.7783,240.3704,97.45,249.85" style="stroke: #A80036; stroke-width: 1.0;"/><text fill="#000000" font-family="sans-serif" font-size="13" lengthAdjust="spacingAndGlyphs" textLength="39" x="105.2528" y="238.8236">Green</text><!--MD5=[091c939658b3153ee8344a52de9635c1]
link TrafficLightController to Material--><path d="M123.36,190.03 C127.92,207.63 127.08,228.51 120.85,244.91 " fill="none" id="TrafficLightController-&gt;Material-3" style="stroke: #A80036; stroke-width: 1.0;"/><polygon fill="#A80036" points="118.74,249.85,125.9619,243.1534,120.7096,245.2543,118.6087,240.002,118.74,249.85" style="stroke: #A80036; stroke-width: 1.0;"/><text fill="#000000" font-family="sans-serif" font-size="13" lengthAdjust="spacingAndGlyphs" textLength="54" x="135.4013" y="257.2528">LitGreen</text><!--MD5=[ec23025ead94c83156efa2e78734b673]
@startuml
class TrafficLightController {
    + ReturnGreen1() : int
    + ReturnGreen2() : int
}
MonoBehaviour <|- - TrafficLightController
TrafficLightController - -> "Red" Material
TrafficLightController - -> "LitRed" Material
TrafficLightController - -> "Green" Material
TrafficLightController - -> "LitGreen" Material
@enduml

PlantUML version 1.2020.02(Sun Mar 01 10:22:07 GMT 2020)
(GPL source distribution)
Java Runtime: OpenJDK Runtime Environment
JVM: OpenJDK 64-Bit Server VM
Java Version: 11.0.9+11-Ubuntu-0ubuntu1
Operating System: Linux
Default Encoding: ANSI_X3.4-1968
Language: en
Country: US
--></g></svg>