<?xml version="1.0" encoding="UTF-8" standalone="no"?><svg xmlns="http://www.w3.org/2000/svg" xmlns:xlink="http://www.w3.org/1999/xlink" contentScriptType="application/ecmascript" contentStyleType="text/css" height="200px" preserveAspectRatio="none" style="width:228px;height:200px;" version="1.1" viewBox="0 0 228 200" width="228px" zoomAndPan="magnify"><defs><filter height="300%" id="f1hosnxnhyndjy" width="300%" x="-1" y="-1"><feGaussianBlur result="blurOut" stdDeviation="2.0"/><feColorMatrix in="blurOut" result="blurOut2" type="matrix" values="0 0 0 0 0 0 0 0 0 0 0 0 0 0 0 0 0 0 .4 0"/><feOffset dx="4.0" dy="4.0" in="blurOut2" result="blurOut3"/><feBlend in="SourceGraphic" in2="blurOut3" mode="normal"/></filter></defs><g><!--MD5=[3634724f3c37cd51932f0d55bccd7b0b]
class TreeController--><rect fill="#FEFECE" filter="url(#f1hosnxnhyndjy)" height="73.6094" id="TreeController" style="stroke: #A80036; stroke-width: 1.5;" width="211" x="6" y="116"/><ellipse cx="62.75" cy="132" fill="#ADD1B2" rx="11" ry="11" style="stroke: #A80036; stroke-width: 1.0;"/><path d="M65.7188,137.6406 Q65.1406,137.9375 64.5,138.0781 Q63.8594,138.2344 63.1563,138.2344 Q60.6563,138.2344 59.3281,136.5938 Q58.0156,134.9375 58.0156,131.8125 Q58.0156,128.6875 59.3281,127.0313 Q60.6563,125.375 63.1563,125.375 Q63.8594,125.375 64.5,125.5313 Q65.1563,125.6875 65.7188,125.9844 L65.7188,128.7031 Q65.0938,128.125 64.5,127.8594 Q63.9063,127.5781 63.2813,127.5781 Q61.9375,127.5781 61.25,128.6563 Q60.5625,129.7188 60.5625,131.8125 Q60.5625,133.9063 61.25,134.9844 Q61.9375,136.0469 63.2813,136.0469 Q63.9063,136.0469 64.5,135.7813 Q65.0938,135.5 65.7188,134.9219 L65.7188,137.6406 Z "/><text fill="#000000" font-family="sans-serif" font-size="12" lengthAdjust="spacingAndGlyphs" textLength="89" x="83.25" y="136.1543">TreeController</text><line style="stroke: #A80036; stroke-width: 1.5;" x1="7" x2="216" y1="148" y2="148"/><ellipse cx="17" cy="159" fill="none" rx="3" ry="3" style="stroke: #038048; stroke-width: 1.0;"/><text fill="#000000" font-family="sans-serif" font-size="11" lengthAdjust="spacingAndGlyphs" textLength="89" x="26" y="162.2104">woodCount : int</text><line style="stroke: #A80036; stroke-width: 1.5;" x1="7" x2="216" y1="168.8047" y2="168.8047"/><ellipse cx="17" cy="179.8047" fill="#84BE84" rx="3" ry="3" style="stroke: #038048; stroke-width: 1.0;"/><text fill="#000000" font-family="sans-serif" font-size="11" lengthAdjust="spacingAndGlyphs" textLength="185" x="26" y="183.0151">MinusLife(hitPoint:Vector3) : void</text><!--MD5=[83b3cf3d23d77c6f1e1b5291a241bc2a]
class MonoBehaviour--><rect fill="#FEFECE" filter="url(#f1hosnxnhyndjy)" height="48" id="MonoBehaviour" style="stroke: #A80036; stroke-width: 1.5;" width="128" x="47.5" y="8"/><ellipse cx="62.5" cy="24" fill="#ADD1B2" rx="11" ry="11" style="stroke: #A80036; stroke-width: 1.0;"/><path d="M65.4688,29.6406 Q64.8906,29.9375 64.25,30.0781 Q63.6094,30.2344 62.9063,30.2344 Q60.4063,30.2344 59.0781,28.5938 Q57.7656,26.9375 57.7656,23.8125 Q57.7656,20.6875 59.0781,19.0313 Q60.4063,17.375 62.9063,17.375 Q63.6094,17.375 64.25,17.5313 Q64.9063,17.6875 65.4688,17.9844 L65.4688,20.7031 Q64.8438,20.125 64.25,19.8594 Q63.6563,19.5781 63.0313,19.5781 Q61.6875,19.5781 61,20.6563 Q60.3125,21.7188 60.3125,23.8125 Q60.3125,25.9063 61,26.9844 Q61.6875,28.0469 63.0313,28.0469 Q63.6563,28.0469 64.25,27.7813 Q64.8438,27.5 65.4688,26.9219 L65.4688,29.6406 Z "/><text fill="#000000" font-family="sans-serif" font-size="12" lengthAdjust="spacingAndGlyphs" textLength="96" x="76.5" y="28.1543">MonoBehaviour</text><line style="stroke: #A80036; stroke-width: 1.5;" x1="48.5" x2="174.5" y1="40" y2="40"/><line style="stroke: #A80036; stroke-width: 1.5;" x1="48.5" x2="174.5" y1="48" y2="48"/><!--MD5=[8f4bf1f4bd85fa9922c8af9eb8d6563e]
reverse link MonoBehaviour to TreeController--><path d="M111.5,76.43 C111.5,89.33 111.5,103.32 111.5,115.71 " fill="none" id="MonoBehaviour&lt;-TreeController" style="stroke: #A80036; stroke-width: 1.0;"/><polygon fill="none" points="104.5,76.23,111.5,56.23,118.5,76.23,104.5,76.23" style="stroke: #A80036; stroke-width: 1.0;"/><!--MD5=[ee1dc4dcee7c76e9567ce9c66d1deb8d]
@startuml
class TreeController {
    + woodCount : int
    + MinusLife(hitPoint:Vector3) : void
}
MonoBehaviour <|- - TreeController
@enduml

PlantUML version 1.2020.02(Sun Mar 01 10:22:07 GMT 2020)
(GPL source distribution)
Java Runtime: OpenJDK Runtime Environment
JVM: OpenJDK 64-Bit Server VM
Java Version: 11.0.9+11-Ubuntu-0ubuntu1
Operating System: Linux
Default Encoding: ANSI_X3.4-1968
Language: en
Country: US
--></g></svg>