<?xml version="1.0" encoding="UTF-8" standalone="no"?><svg xmlns="http://www.w3.org/2000/svg" xmlns:xlink="http://www.w3.org/1999/xlink" contentScriptType="application/ecmascript" contentStyleType="text/css" height="213px" preserveAspectRatio="none" style="width:264px;height:213px;" version="1.1" viewBox="0 0 264 213" width="264px" zoomAndPan="magnify"><defs><filter height="300%" id="fwel21p4lywiv" width="300%" x="-1" y="-1"><feGaussianBlur result="blurOut" stdDeviation="2.0"/><feColorMatrix in="blurOut" result="blurOut2" type="matrix" values="0 0 0 0 0 0 0 0 0 0 0 0 0 0 0 0 0 0 .4 0"/><feOffset dx="4.0" dy="4.0" in="blurOut2" result="blurOut3"/><feBlend in="SourceGraphic" in2="blurOut3" mode="normal"/></filter></defs><g><!--MD5=[b83cfcbcf184d1f771e55db9619fd736]
class VehicleController--><rect fill="#FEFECE" filter="url(#fwel21p4lywiv)" height="86.4141" id="VehicleController" style="stroke: #A80036; stroke-width: 1.5;" width="247" x="6" y="116"/><ellipse cx="72.25" cy="132" fill="#ADD1B2" rx="11" ry="11" style="stroke: #A80036; stroke-width: 1.0;"/><path d="M75.2188,137.6406 Q74.6406,137.9375 74,138.0781 Q73.3594,138.2344 72.6563,138.2344 Q70.1563,138.2344 68.8281,136.5938 Q67.5156,134.9375 67.5156,131.8125 Q67.5156,128.6875 68.8281,127.0313 Q70.1563,125.375 72.6563,125.375 Q73.3594,125.375 74,125.5313 Q74.6563,125.6875 75.2188,125.9844 L75.2188,128.7031 Q74.5938,128.125 74,127.8594 Q73.4063,127.5781 72.7813,127.5781 Q71.4375,127.5781 70.75,128.6563 Q70.0625,129.7188 70.0625,131.8125 Q70.0625,133.9063 70.75,134.9844 Q71.4375,136.0469 72.7813,136.0469 Q73.4063,136.0469 74,135.7813 Q74.5938,135.5 75.2188,134.9219 L75.2188,137.6406 Z "/><text fill="#000000" font-family="sans-serif" font-size="12" lengthAdjust="spacingAndGlyphs" textLength="106" x="92.75" y="136.1543">VehicleController</text><line style="stroke: #A80036; stroke-width: 1.5;" x1="7" x2="252" y1="148" y2="148"/><line style="stroke: #A80036; stroke-width: 1.5;" x1="7" x2="252" y1="156" y2="156"/><text fill="#000000" font-family="sans-serif" font-size="11" lengthAdjust="spacingAndGlyphs" textLength="71" x="12" y="170.2104">Start() : void</text><text fill="#000000" font-family="sans-serif" font-size="11" lengthAdjust="spacingAndGlyphs" textLength="207" x="12" y="183.0151">OnTriggerEnter(other:Collider) : void</text><text fill="#000000" font-family="sans-serif" font-size="11" lengthAdjust="spacingAndGlyphs" textLength="235" x="12" y="195.8198">OnCollisionEnter(collision:Collision) : void</text><!--MD5=[83b3cf3d23d77c6f1e1b5291a241bc2a]
class MonoBehaviour--><rect fill="#FEFECE" filter="url(#fwel21p4lywiv)" height="48" id="MonoBehaviour" style="stroke: #A80036; stroke-width: 1.5;" width="128" x="65.5" y="8"/><ellipse cx="80.5" cy="24" fill="#ADD1B2" rx="11" ry="11" style="stroke: #A80036; stroke-width: 1.0;"/><path d="M83.4688,29.6406 Q82.8906,29.9375 82.25,30.0781 Q81.6094,30.2344 80.9063,30.2344 Q78.4063,30.2344 77.0781,28.5938 Q75.7656,26.9375 75.7656,23.8125 Q75.7656,20.6875 77.0781,19.0313 Q78.4063,17.375 80.9063,17.375 Q81.6094,17.375 82.25,17.5313 Q82.9063,17.6875 83.4688,17.9844 L83.4688,20.7031 Q82.8438,20.125 82.25,19.8594 Q81.6563,19.5781 81.0313,19.5781 Q79.6875,19.5781 79,20.6563 Q78.3125,21.7188 78.3125,23.8125 Q78.3125,25.9063 79,26.9844 Q79.6875,28.0469 81.0313,28.0469 Q81.6563,28.0469 82.25,27.7813 Q82.8438,27.5 83.4688,26.9219 L83.4688,29.6406 Z "/><text fill="#000000" font-family="sans-serif" font-size="12" lengthAdjust="spacingAndGlyphs" textLength="96" x="94.5" y="28.1543">MonoBehaviour</text><line style="stroke: #A80036; stroke-width: 1.5;" x1="66.5" x2="192.5" y1="40" y2="40"/><line style="stroke: #A80036; stroke-width: 1.5;" x1="66.5" x2="192.5" y1="48" y2="48"/><!--MD5=[1a132cdcadb340cfbc798b8ae18a6957]
reverse link MonoBehaviour to VehicleController--><path d="M129.5,76.27 C129.5,89.12 129.5,103.17 129.5,115.94 " fill="none" id="MonoBehaviour&lt;-VehicleController" style="stroke: #A80036; stroke-width: 1.0;"/><polygon fill="none" points="122.5,76.22,129.5,56.22,136.5,76.22,122.5,76.22" style="stroke: #A80036; stroke-width: 1.0;"/><!--MD5=[3979b6118ca1ad49fffe0a0bd999d182]
@startuml
class VehicleController {
    Start() : void
    OnTriggerEnter(other:Collider) : void
    OnCollisionEnter(collision:Collision) : void
}
MonoBehaviour <|- - VehicleController
@enduml

PlantUML version 1.2020.02(Sun Mar 01 10:22:07 GMT 2020)
(GPL source distribution)
Java Runtime: OpenJDK Runtime Environment
JVM: OpenJDK 64-Bit Server VM
Java Version: 11.0.9+11-Ubuntu-0ubuntu1
Operating System: Linux
Default Encoding: ANSI_X3.4-1968
Language: en
Country: US
--></g></svg>