<?xml version="1.0" encoding="UTF-8" standalone="no"?><svg xmlns="http://www.w3.org/2000/svg" xmlns:xlink="http://www.w3.org/1999/xlink" contentScriptType="application/ecmascript" contentStyleType="text/css" height="411px" preserveAspectRatio="none" style="width:312px;height:411px;" version="1.1" viewBox="0 0 312 411" width="312px" zoomAndPan="magnify"><defs><filter height="300%" id="f1doc0ojorj9hm" width="300%" x="-1" y="-1"><feGaussianBlur result="blurOut" stdDeviation="2.0"/><feColorMatrix in="blurOut" result="blurOut2" type="matrix" values="0 0 0 0 0 0 0 0 0 0 0 0 0 0 0 0 0 0 .4 0"/><feOffset dx="4.0" dy="4.0" in="blurOut2" result="blurOut3"/><feBlend in="SourceGraphic" in2="blurOut3" mode="normal"/></filter></defs><g><!--MD5=[fa5bc46eac96ddbccc97f1b741d937c2]
class VehicleMover--><rect fill="#FEFECE" filter="url(#f1doc0ojorj9hm)" height="176.0469" id="VehicleMover" style="stroke: #A80036; stroke-width: 1.5;" width="295" x="6" y="116"/><ellipse cx="108.25" cy="132" fill="#ADD1B2" rx="11" ry="11" style="stroke: #A80036; stroke-width: 1.0;"/><path d="M111.2188,137.6406 Q110.6406,137.9375 110,138.0781 Q109.3594,138.2344 108.6563,138.2344 Q106.1563,138.2344 104.8281,136.5938 Q103.5156,134.9375 103.5156,131.8125 Q103.5156,128.6875 104.8281,127.0313 Q106.1563,125.375 108.6563,125.375 Q109.3594,125.375 110,125.5313 Q110.6563,125.6875 111.2188,125.9844 L111.2188,128.7031 Q110.5938,128.125 110,127.8594 Q109.4063,127.5781 108.7813,127.5781 Q107.4375,127.5781 106.75,128.6563 Q106.0625,129.7188 106.0625,131.8125 Q106.0625,133.9063 106.75,134.9844 Q107.4375,136.0469 108.7813,136.0469 Q109.4063,136.0469 110,135.7813 Q110.5938,135.5 111.2188,134.9219 L111.2188,137.6406 Z "/><text fill="#000000" font-family="sans-serif" font-size="12" lengthAdjust="spacingAndGlyphs" textLength="82" x="128.75" y="136.1543">VehicleMover</text><line style="stroke: #A80036; stroke-width: 1.5;" x1="7" x2="300" y1="148" y2="148"/><ellipse cx="17" cy="159" fill="none" rx="3" ry="3" style="stroke: #038048; stroke-width: 1.0;"/><text fill="#000000" font-family="sans-serif" font-size="11" lengthAdjust="spacingAndGlyphs" textLength="111" x="26" y="162.2104">speed : float = 5.0f</text><ellipse cx="17" cy="171.8047" fill="none" rx="3" ry="3" style="stroke: #038048; stroke-width: 1.0;"/><text fill="#000000" font-family="sans-serif" font-size="11" lengthAdjust="spacingAndGlyphs" textLength="108" x="26" y="175.0151">mass : float = 5.0f</text><ellipse cx="17" cy="184.6094" fill="none" rx="3" ry="3" style="stroke: #038048; stroke-width: 1.0;"/><text fill="#000000" font-family="sans-serif" font-size="11" lengthAdjust="spacingAndGlyphs" textLength="138" x="26" y="187.8198">maxSteer : float = 15.0f</text><ellipse cx="17" cy="197.4141" fill="none" rx="3" ry="3" style="stroke: #038048; stroke-width: 1.0;"/><text fill="#000000" font-family="sans-serif" font-size="11" lengthAdjust="spacingAndGlyphs" textLength="139" x="26" y="200.6245">pathRadius : float = 1.0f</text><ellipse cx="17" cy="210.2188" fill="none" rx="3" ry="3" style="stroke: #038048; stroke-width: 1.0;"/><text fill="#000000" font-family="sans-serif" font-size="11" lengthAdjust="spacingAndGlyphs" textLength="171" x="26" y="213.4292">currentWaypointIndex : int = 0</text><ellipse cx="17" cy="223.0234" fill="none" rx="3" ry="3" style="stroke: #038048; stroke-width: 1.0;"/><text fill="#000000" font-family="sans-serif" font-size="11" lengthAdjust="spacingAndGlyphs" textLength="36" x="26" y="226.2339">id : int</text><line style="stroke: #A80036; stroke-width: 1.5;" x1="7" x2="300" y1="232.8281" y2="232.8281"/><text fill="#000000" font-family="sans-serif" font-size="11" lengthAdjust="spacingAndGlyphs" textLength="71" x="26" y="247.0386">Start() : void</text><ellipse cx="17" cy="256.6328" fill="#84BE84" rx="3" ry="3" style="stroke: #038048; stroke-width: 1.0;"/><text fill="#000000" font-family="sans-serif" font-size="11" lengthAdjust="spacingAndGlyphs" textLength="269" x="26" y="259.8433">SetPointsByChildren(parent:GameObject) : void</text><text fill="#000000" font-family="sans-serif" font-size="11" lengthAdjust="spacingAndGlyphs" textLength="83" x="26" y="272.6479">Update() : void</text><ellipse cx="17" cy="282.2422" fill="#84BE84" rx="3" ry="3" style="stroke: #038048; stroke-width: 1.0;"/><text fill="#000000" font-family="sans-serif" font-size="11" lengthAdjust="spacingAndGlyphs" textLength="149" x="26" y="285.4526">setMove(move:bool) : void</text><!--MD5=[e644022de7dea015dd09463c37421447]
class List`1--><rect fill="#FEFECE" filter="url(#f1doc0ojorj9hm)" height="48" id="List`1" style="stroke: #A80036; stroke-width: 1.5;" width="78" x="114.5" y="352"/><ellipse cx="129.5" cy="368" fill="#ADD1B2" rx="11" ry="11" style="stroke: #A80036; stroke-width: 1.0;"/><path d="M132.4688,373.6406 Q131.8906,373.9375 131.25,374.0781 Q130.6094,374.2344 129.9063,374.2344 Q127.4063,374.2344 126.0781,372.5938 Q124.7656,370.9375 124.7656,367.8125 Q124.7656,364.6875 126.0781,363.0313 Q127.4063,361.375 129.9063,361.375 Q130.6094,361.375 131.25,361.5313 Q131.9063,361.6875 132.4688,361.9844 L132.4688,364.7031 Q131.8438,364.125 131.25,363.8594 Q130.6563,363.5781 130.0313,363.5781 Q128.6875,363.5781 128,364.6563 Q127.3125,365.7188 127.3125,367.8125 Q127.3125,369.9063 128,370.9844 Q128.6875,372.0469 130.0313,372.0469 Q130.6563,372.0469 131.25,371.7813 Q131.8438,371.5 132.4688,370.9219 L132.4688,373.6406 Z "/><text fill="#000000" font-family="sans-serif" font-size="12" lengthAdjust="spacingAndGlyphs" textLength="35" x="143.5" y="372.1543">List`1</text><rect fill="#FFFFFF" height="15.9688" style="stroke: #000000; stroke-width: 1.0; stroke-dasharray: 2.0,2.0;" width="9" x="186.5" y="349"/><text fill="#000000" font-family="sans-serif" font-size="12" font-style="italic" lengthAdjust="spacingAndGlyphs" textLength="7" x="187.5" y="361.1387">T</text><line style="stroke: #A80036; stroke-width: 1.5;" x1="115.5" x2="191.5" y1="384" y2="384"/><line style="stroke: #A80036; stroke-width: 1.5;" x1="115.5" x2="191.5" y1="392" y2="392"/><!--MD5=[83b3cf3d23d77c6f1e1b5291a241bc2a]
class MonoBehaviour--><rect fill="#FEFECE" filter="url(#f1doc0ojorj9hm)" height="48" id="MonoBehaviour" style="stroke: #A80036; stroke-width: 1.5;" width="128" x="89.5" y="8"/><ellipse cx="104.5" cy="24" fill="#ADD1B2" rx="11" ry="11" style="stroke: #A80036; stroke-width: 1.0;"/><path d="M107.4688,29.6406 Q106.8906,29.9375 106.25,30.0781 Q105.6094,30.2344 104.9063,30.2344 Q102.4063,30.2344 101.0781,28.5938 Q99.7656,26.9375 99.7656,23.8125 Q99.7656,20.6875 101.0781,19.0313 Q102.4063,17.375 104.9063,17.375 Q105.6094,17.375 106.25,17.5313 Q106.9063,17.6875 107.4688,17.9844 L107.4688,20.7031 Q106.8438,20.125 106.25,19.8594 Q105.6563,19.5781 105.0313,19.5781 Q103.6875,19.5781 103,20.6563 Q102.3125,21.7188 102.3125,23.8125 Q102.3125,25.9063 103,26.9844 Q103.6875,28.0469 105.0313,28.0469 Q105.6563,28.0469 106.25,27.7813 Q106.8438,27.5 107.4688,26.9219 L107.4688,29.6406 Z "/><text fill="#000000" font-family="sans-serif" font-size="12" lengthAdjust="spacingAndGlyphs" textLength="96" x="118.5" y="28.1543">MonoBehaviour</text><line style="stroke: #A80036; stroke-width: 1.5;" x1="90.5" x2="216.5" y1="40" y2="40"/><line style="stroke: #A80036; stroke-width: 1.5;" x1="90.5" x2="216.5" y1="48" y2="48"/><!--MD5=[23b0daac43536f103323655b887ca18b]
reverse link MonoBehaviour to VehicleMover--><path d="M153.5,76.71 C153.5,88.77 153.5,102.3 153.5,115.9 " fill="none" id="MonoBehaviour&lt;-VehicleMover" style="stroke: #A80036; stroke-width: 1.0;"/><polygon fill="none" points="146.5,76.28,153.5,56.28,160.5,76.28,146.5,76.28" style="stroke: #A80036; stroke-width: 1.0;"/><!--MD5=[9af4cabbc908be6eb6a679354eed2db8]
link VehicleMover to List`1--><path d="M153.5,292.49 C153.5,312.05 153.5,331.44 153.5,346.5 " fill="none" id="VehicleMover-&gt;List`1" style="stroke: #A80036; stroke-width: 1.0;"/><polygon fill="#A80036" points="153.5,351.85,157.5,342.85,153.5,346.85,149.5,342.85,153.5,351.85" style="stroke: #A80036; stroke-width: 1.0;"/><text fill="#000000" font-family="sans-serif" font-size="13" lengthAdjust="spacingAndGlyphs" textLength="131" x="5.7156" y="340.8236">path&lt;GameObject&gt;</text><!--MD5=[95c9b69b48c28fe63c81a8d256865d5c]
@startuml
class VehicleMover {
    + speed : float = 5.0f
    + mass : float = 5.0f
    + maxSteer : float = 15.0f
    + pathRadius : float = 1.0f
    + currentWaypointIndex : int = 0
    + id : int
    Start() : void
    + SetPointsByChildren(parent:GameObject) : void
    Update() : void
    + setMove(move:bool) : void
}
class "List`1"<T> {
}
MonoBehaviour <|- - VehicleMover
VehicleMover - -> "path<GameObject>" "List`1"
@enduml

PlantUML version 1.2020.02(Sun Mar 01 10:22:07 GMT 2020)
(GPL source distribution)
Java Runtime: OpenJDK Runtime Environment
JVM: OpenJDK 64-Bit Server VM
Java Version: 11.0.9+11-Ubuntu-0ubuntu1
Operating System: Linux
Default Encoding: ANSI_X3.4-1968
Language: en
Country: US
--></g></svg>